  0
SECTION
  2
HEADER
  9
$ACADVER
  1
AC1014
  9
$HANDSEED
  5
FFFF
  9
$MEASUREMENT
 70
     1
  0
ENDSEC
  0
SECTION
  2
TABLES
  0
TABLE
  2
VPORT
  5
8
330
0
100
AcDbSymbolTable
 70
     4
  0
VPORT
  5
2E
330
8
100
AcDbSymbolTableRecord
100
AcDbViewportTableRecord
  2
*ACTIVE
 70
     0
 10
0.0
 20
0.0
 11
1.0
 21
1.0
 12
210.0
 22
148.5
 13
0.0
 23
0.0
 14
10.0
 24
10.0
 15
10.0
 25
10.0
 16
0.0
 26
0.0
 36
1.0
 17
0.0
 27
0.0
 37
0.0
 40
341.0
 41
1.24
 42
50.0
 43
0.0
 44
0.0
 50
0.0
 51
0.0
 71
     0
 72
   100
 73
     1
 74
     3
 75
     0
 76
     0
 77
     0
 78
     0
  0
ENDTAB
  0
TABLE
  2
LTYPE
  5
5
330
0
100
AcDbSymbolTable
 70
     1
  0
LTYPE
  5
14
330
5
100
AcDbSymbolTableRecord
100
AcDbLinetypeTableRecord
  2
BYBLOCK
 70
     0
  3

 72
    65
 73
     0
 40
0.0
  0
LTYPE
  5
15
330
5
100
AcDbSymbolTableRecord
100
AcDbLinetypeTableRecord
  2
BYLAYER
 70
     0
  3

 72
    65
 73
     0
 40
0.0
  0
LTYPE
  5
16
330
5
100
AcDbSymbolTableRecord
100
AcDbLinetypeTableRecord
  2
CONTINUOUS
 70
     0
  3
Solid line
 72
    65
 73
     0
 40
0.0
  0
ENDTAB
  0
TABLE
  2
LAYER
  5
2
100
AcDbSymbolTable
 70
2
  0
LAYER
  5
50
100
AcDbSymbolTableRecord
100
AcDbLayerTableRecord
  2
0
 70
0
  6
CONTINUOUS
  0
LAYER
  5
51
100
AcDbSymbolTableRecord
100
AcDbLayerTableRecord
  2
Layer_1
 70
0
  6
CONTINUOUS
  0
ENDTAB
  0
TABLE
  2
STYLE
  5
3
330
0
100
AcDbSymbolTable
 70
     1
  0
STYLE
  5
11
330
3
100
AcDbSymbolTableRecord
100
AcDbTextStyleTableRecord
  2
STANDARD
 70
     0
 40
0.0
 41
1.0
 50
0.0
 71
     0
 42
2.5
  3
txt
  4

  0
ENDTAB
  0
TABLE
  2
VIEW
  5
6
330
0
100
AcDbSymbolTable
 70
     0
  0
ENDTAB
  0
TABLE
  2
UCS
  5
7
330
0
100
AcDbSymbolTable
 70
     0
  0
ENDTAB
  0
TABLE
  2
APPID
  5
9
330
0
100
AcDbSymbolTable
 70
     2
  0
APPID
  5
12
330
9
100
AcDbSymbolTableRecord
100
AcDbRegAppTableRecord
  2
ACAD
 70
     0
  0
ENDTAB
  0
TABLE
  2
DIMSTYLE
  5
A
330
0
100
AcDbSymbolTable
 70
     1
  0
DIMSTYLE
105
27
330
A
100
AcDbSymbolTableRecord
100
AcDbDimStyleTableRecord
  2
ISO-25
 70
     0
  3

  4

  5

  6

  7

 40
1.0
 41
2.5
 42
0.625
 43
3.75
 44
1.25
 45
0.0
 46
0.0
 47
0.0
 48
0.0
140
2.5
141
2.5
142
0.0
143
0.03937007874016
144
1.0
145
0.0
146
1.0
147
0.625
 71
     0
 72
     0
 73
     0
 74
     0
 75
     0
 76
     0
 77
     1
 78
     8
170
     0
171
     3
172
     1
173
     0
174
     0
175
     0
176
     0
177
     0
178
     0
270
     2
271
     2
272
     2
273
     2
274
     3
340
11
275
     0
280
     0
281
     0
282
     0
283
     0
284
     8
285
     0
286
     0
287
     3
288
     0
  0
ENDTAB
  0
TABLE
  2
BLOCK_RECORD
  5
1
330
0
100
AcDbSymbolTable
 70
     1
  0
BLOCK_RECORD
  5
1F
330
1
100
AcDbSymbolTableRecord
100
AcDbBlockTableRecord
  2
*MODEL_SPACE
  0
BLOCK_RECORD
  5
1B
330
1
100
AcDbSymbolTableRecord
100
AcDbBlockTableRecord
  2
*PAPER_SPACE
  0
ENDTAB
  0
ENDSEC
  0
SECTION
  2
BLOCKS
  0
BLOCK
  5
20
330
1F
100
AcDbEntity
  8
0
100
AcDbBlockBegin
  2
*MODEL_SPACE
 70
     0
 10
0.0
 20
0.0
 30
0.0
  3
*MODEL_SPACE
  1

  0
ENDBLK
  5
21
330
1F
100
AcDbEntity
  8
0
100
AcDbBlockEnd
  0
BLOCK
  5
1C
330
1B
100
AcDbEntity
 67
     1
  8
0
100
AcDbBlockBegin
  2
*PAPER_SPACE
  1

  0
ENDBLK
  5
1D
330
1B
100
AcDbEntity
 67
     1
  8
0
100
AcDbBlockEnd
  0
ENDSEC
  0
SECTION
  2
ENTITIES
  0
LWPOLYLINE
  5
100
100
AcDbEntity
  8
Layer_1
 62
7
100
AcDbPolyline
 90
150
 70
0
 10
26.718507
 20
230.632969
 30
0.0
 10
24.002708
 20
230.636102
 30
0.0
 10
20.580616
 20
230.647052
 30
0.0
 10
20.580616
 20
230.647052
 30
0.0
 10
18.869571
 20
230.670505
 30
0.0
 10
17.160086
 20
230.725197
 30
0.0
 10
15.433414
 20
230.837702
 30
0.0
 10
15.433414
 20
230.837702
 30
0.0
 10
13.709866
 20
230.978336
 30
0.0
 10
10.264336
 20
231.290858
 30
0.0
 10
10.417470
 20
232.820640
 30
0.0
 10
10.531541
 20
234.141037
 30
0.0
 10
10.531541
 20
234.141037
 30
0.0
 10
10.669048
 20
235.459872
 30
0.0
 10
10.969067
 20
237.402182
 30
0.0
 10
11.311276
 20
239.338244
 30
0.0
 10
11.947255
 20
242.316557
 30
0.0
 10
11.947255
 20
242.316557
 30
0.0
 10
12.233211
 20
243.810402
 30
0.0
 10
12.351968
 20
244.558886
 30
0.0
 10
12.442600
 20
245.312058
 30
0.0
 10
12.442600
 20
245.312058
 30
0.0
 10
12.458235
 20
245.690208
 30
0.0
 10
12.450418
 20
246.068357
 30
0.0
 10
12.401977
 20
246.826220
 30
0.0
 10
12.401977
 20
246.826220
 30
0.0
 10
12.203527
 20
248.974795
 30
0.0
 10
11.930071
 20
251.117118
 30
0.0
 10
11.680056
 20
252.709408
 30
0.0
 10
11.408163
 20
254.297006
 30
0.0
 10
11.408163
 20
254.297006
 30
0.0
 10
10.839378
 20
257.467522
 30
0.0
 10
11.461291
 20
257.555028
 30
0.0
 10
11.767561
 20
257.611280
 30
0.0
 10
11.767561
 20
257.611280
 30
0.0
 10
12.070705
 20
257.687847
 30
0.0
 10
12.436352
 20
257.842544
 30
0.0
 10
12.775436
 20
258.050370
 30
0.0
 10
12.775436
 20
258.050370
 30
0.0
 10
13.052017
 20
258.291012
 30
0.0
 10
13.291096
 20
258.570717
 30
0.0
 10
13.461417
 20
258.826983
 30
0.0
 10
13.461417
 20
258.826983
 30
0.0
 10
13.611427
 20
259.095749
 30
0.0
 10
13.745812
 20
259.373893
 30
0.0
 10
13.863005
 20
259.658286
 30
0.0
 10
13.863005
 20
259.658286
 30
0.0
 10
13.978640
 20
260.000495
 30
0.0
 10
14.075518
 20
260.348954
 30
0.0
 10
14.222404
 20
261.056813
 30
0.0
 10
14.280220
 20
261.642788
 30
0.0
 10
14.383352
 20
262.836613
 30
0.0
 10
14.383352
 20
262.836613
 30
0.0
 10
14.391170
 20
263.833552
 30
0.0
 10
14.356792
 20
264.830488
 30
0.0
 10
14.259911
 20
266.207140
 30
0.0
 10
14.259911
 20
266.207140
 30
0.0
 10
14.119277
 20
267.580662
 30
0.0
 10
13.895825
 20
269.191702
 30
0.0
 10
13.650497
 20
270.801178
 30
0.0
 10
13.650497
 20
270.801178
 30
0.0
 10
21.705695
 20
272.812246
 30
0.0
 10
22.021341
 20
272.570043
 30
0.0
 10
22.349487
 20
272.346590
 30
0.0
 10
22.349487
 20
272.346590
 30
0.0
 10
22.597941
 20
272.227831
 30
0.0
 10
22.857331
 20
272.132514
 30
0.0
 10
23.143287
 20
272.055947
 30
0.0
 10
23.143287
 20
272.055947
 30
0.0
 10
23.433931
 20
271.998131
 30
0.0
 10
24.105849
 20
271.915312
 30
0.0
 10
24.816831
 20
271.888755
 30
0.0
 10
24.816831
 20
271.888755
 30
0.0
 10
25.718452
 20
271.855941
 30
0.0
 10
26.716952
 20
271.852809
 30
0.0
 10
27.715451
 20
271.855941
 30
0.0
 10
28.617071
 20
271.888755
 30
0.0
 10
28.617071
 20
271.888755
 30
0.0
 10
29.328054
 20
271.915312
 30
0.0
 10
29.999971
 20
271.998131
 30
0.0
 10
30.290615
 20
272.055947
 30
0.0
 10
30.290615
 20
272.055947
 30
0.0
 10
30.576571
 20
272.132514
 30
0.0
 10
30.835961
 20
272.227831
 30
0.0
 10
31.084416
 20
272.346590
 30
0.0
 10
31.084416
 20
272.346590
 30
0.0
 10
31.412561
 20
272.570043
 30
0.0
 10
31.728207
 20
272.812246
 30
0.0
 10
39.783405
 20
270.801178
 30
0.0
 10
39.783405
 20
270.801178
 30
0.0
 10
39.538077
 20
269.193265
 30
0.0
 10
39.314625
 20
267.580662
 30
0.0
 10
39.173991
 20
266.207140
 30
0.0
 10
39.173991
 20
266.207140
 30
0.0
 10
39.077110
 20
264.832051
 30
0.0
 10
39.042732
 20
263.833552
 30
0.0
 10
39.050550
 20
262.836613
 30
0.0
 10
39.050550
 20
262.836613
 30
0.0
 10
39.155243
 20
261.642788
 30
0.0
 10
39.211496
 20
261.058373
 30
0.0
 10
39.358381
 20
260.348954
 30
0.0
 10
39.455262
 20
260.002058
 30
0.0
 10
39.570894
 20
259.659849
 30
0.0
 10
39.570894
 20
259.659849
 30
0.0
 10
39.688090
 20
259.373893
 30
0.0
 10
39.822473
 20
259.095749
 30
0.0
 10
39.974046
 20
258.828547
 30
0.0
 10
39.974046
 20
258.828547
 30
0.0
 10
40.142806
 20
258.570717
 30
0.0
 10
40.381882
 20
258.292573
 30
0.0
 10
40.658463
 20
258.050370
 30
0.0
 10
40.658463
 20
258.050370
 30
0.0
 10
40.997547
 20
257.842544
 30
0.0
 10
41.364758
 20
257.687847
 30
0.0
 10
41.666341
 20
257.612844
 30
0.0
 10
41.666341
 20
257.612844
 30
0.0
 10
41.974172
 20
257.556591
 30
0.0
 10
42.594524
 20
257.469085
 30
0.0
 10
42.025737
 20
254.297006
 30
0.0
 10
42.025737
 20
254.297006
 30
0.0
 10
41.755407
 20
252.709408
 30
0.0
 10
41.503829
 20
251.118682
 30
0.0
 10
41.230375
 20
248.976358
 30
0.0
 10
41.031925
 20
246.826220
 30
0.0
 10
41.031925
 20
246.826220
 30
0.0
 10
40.985048
 20
246.069921
 30
0.0
 10
40.977230
 20
245.691771
 30
0.0
 10
40.991285
 20
245.313622
 30
0.0
 10
40.991285
 20
245.313622
 30
0.0
 10
41.083478
 20
244.560450
 30
0.0
 10
41.202237
 20
243.810402
 30
0.0
 10
41.488193
 20
242.318118
 30
0.0
 10
41.488193
 20
242.318118
 30
0.0
 10
42.124170
 20
239.339804
 30
0.0
 10
42.467942
 20
237.403746
 30
0.0
 10
42.766398
 20
235.459872
 30
0.0
 10
42.903908
 20
234.142600
 30
0.0
 10
42.903908
 20
234.142600
 30
0.0
 10
43.017976
 20
232.820640
 30
0.0
 10
43.172674
 20
231.290858
 30
0.0
 10
39.727144
 20
230.978336
 30
0.0
 10
38.002032
 20
230.837702
 30
0.0
 10
38.002032
 20
230.837702
 30
0.0
 10
36.276923
 20
230.725197
 30
0.0
 10
34.565878
 20
230.672068
 30
0.0
 10
32.856393
 20
230.647064
 30
0.0
 10
32.856393
 20
230.647064
 30
0.0
 10
29.432738
 20
230.636113
 30
0.0
 10
26.718507
 20
230.632981
 30
0.0
 10
26.718507
 20
230.632969
 30
0.0
  0
LWPOLYLINE
  5
101
100
AcDbEntity
  8
Layer_1
 62
7
100
AcDbPolyline
 90
160
 70
0
 10
72.436505
 20
230.262098
 30
0.0
 10
70.502007
 20
230.235541
 30
0.0
 10
61.929586
 20
230.099595
 30
0.0
 10
61.929586
 20
230.099595
 30
0.0
 10
56.143282
 20
230.074590
 30
0.0
 10
56.132332
 20
231.612187
 30
0.0
 10
56.249528
 20
232.956025
 30
0.0
 10
56.388598
 20
234.296733
 30
0.0
 10
56.388598
 20
234.296733
 30
0.0
 10
56.687054
 20
236.239046
 30
0.0
 10
57.029263
 20
238.176668
 30
0.0
 10
57.666805
 20
241.153421
 30
0.0
 10
57.951198
 20
242.647265
 30
0.0
 10
57.951198
 20
242.647265
 30
0.0
 10
58.071518
 20
243.397313
 30
0.0
 10
58.162148
 20
244.150485
 30
0.0
 10
58.176202
 20
244.528635
 30
0.0
 10
58.176202
 20
244.528635
 30
0.0
 10
58.169965
 20
244.906782
 30
0.0
 10
58.121525
 20
245.663081
 30
0.0
 10
57.923074
 20
247.813219
 30
0.0
 10
57.923074
 20
247.813219
 30
0.0
 10
57.649618
 20
249.955545
 30
0.0
 10
57.399603
 20
251.538456
 30
0.0
 10
57.130834
 20
253.118246
 30
0.0
 10
56.563613
 20
256.274696
 30
0.0
 10
56.563613
 20
256.274696
 30
0.0
 10
57.176151
 20
256.407515
 30
0.0
 10
57.784001
 20
256.562212
 30
0.0
 10
58.240281
 20
256.710661
 30
0.0
 10
58.240281
 20
256.710661
 30
0.0
 10
58.459045
 20
256.802855
 30
0.0
 10
58.669995
 20
256.913799
 30
0.0
 10
58.890323
 20
257.066933
 30
0.0
 10
58.890323
 20
257.066933
 30
0.0
 10
59.095022
 20
257.241944
 30
0.0
 10
59.282536
 20
257.432580
 30
0.0
 10
59.451296
 20
257.640406
 30
0.0
 10
59.451296
 20
257.640406
 30
0.0
 10
59.621618
 20
257.915425
 30
0.0
 10
59.768503
 20
258.206069
 30
0.0
 10
59.893510
 20
258.506086
 30
0.0
 10
59.893510
 20
258.506086
 30
0.0
 10
59.999767
 20
258.813919
 30
0.0
 10
60.095088
 20
259.168628
 30
0.0
 10
60.159152
 20
259.531150
 30
0.0
 10
60.260721
 20
260.428084
 30
0.0
 10
60.260721
 20
260.428084
 30
0.0
 10
60.307601
 20
261.328141
 30
0.0
 10
60.293546
 20
262.612597
 30
0.0
 10
60.212289
 20
263.893928
 30
0.0
 10
60.212289
 20
263.893928
 30
0.0
 10
60.076342
 20
265.094004
 30
0.0
 10
59.887271
 20
266.286269
 30
0.0
 10
59.505994
 20
268.022314
 30
0.0
 10
59.505994
 20
268.022314
 30
0.0
 10
67.725267
 20
270.713111
 30
0.0
 10
67.836212
 20
269.213015
 30
0.0
 10
67.915903
 20
268.466094
 30
0.0
 10
67.915903
 20
268.466094
 30
0.0
 10
68.033098
 20
267.725422
 30
0.0
 10
68.108105
 20
267.430090
 30
0.0
 10
68.200298
 20
267.141010
 30
0.0
 10
68.200298
 20
267.141010
 30
0.0
 10
68.311243
 20
266.858178
 30
0.0
 10
68.439374
 20
266.581601
 30
0.0
 10
68.714391
 20
266.137820
 30
0.0
 10
69.048788
 20
265.736232
 30
0.0
 10
69.048788
 20
265.736232
 30
0.0
 10
69.358183
 20
265.462779
 30
0.0
 10
69.698830
 20
265.226827
 30
0.0
 10
70.048851
 20
265.033064
 30
0.0
 10
70.048851
 20
265.033064
 30
0.0
 10
70.414501
 20
264.872116
 30
0.0
 10
70.856715
 20
264.728357
 30
0.0
 10
71.308307
 20
264.625225
 30
0.0
 10
71.308307
 20
264.625225
 30
0.0
 10
71.942723
 20
264.568972
 30
0.0
 10
72.436505
 20
264.529907
 30
0.0
 10
72.928723
 20
264.568972
 30
0.0
 10
72.928723
 20
264.568972
 30
0.0
 10
73.563139
 20
264.625225
 30
0.0
 10
74.016291
 20
264.728357
 30
0.0
 10
74.458508
 20
264.873679
 30
0.0
 10
74.458508
 20
264.873679
 30
0.0
 10
74.824155
 20
265.033064
 30
0.0
 10
75.172615
 20
265.226827
 30
0.0
 10
75.513260
 20
265.462779
 30
0.0
 10
75.513260
 20
265.462779
 30
0.0
 10
75.822658
 20
265.736232
 30
0.0
 10
75.997666
 20
265.931558
 30
0.0
 10
76.157051
 20
266.137820
 30
0.0
 10
76.157051
 20
266.137820
 30
0.0
 10
76.432071
 20
266.583161
 30
0.0
 10
76.561767
 20
266.858178
 30
0.0
 10
76.671147
 20
267.141010
 30
0.0
 10
76.671147
 20
267.141010
 30
0.0
 10
76.764904
 20
267.430090
 30
0.0
 10
76.838344
 20
267.725422
 30
0.0
 10
76.955540
 20
268.466094
 30
0.0
 10
76.955540
 20
268.466094
 30
0.0
 10
77.035234
 20
269.213015
 30
0.0
 10
77.146178
 20
270.714674
 30
0.0
 10
85.365449
 20
268.022314
 30
0.0
 10
85.365449
 20
268.022314
 30
0.0
 10
84.984175
 20
266.286269
 30
0.0
 10
84.795100
 20
265.094004
 30
0.0
 10
84.659154
 20
263.895491
 30
0.0
 10
84.659154
 20
263.895491
 30
0.0
 10
84.577899
 20
262.612597
 30
0.0
 10
84.563845
 20
261.329705
 30
0.0
 10
84.610722
 20
260.428084
 30
0.0
 10
84.610722
 20
260.428084
 30
0.0
 10
84.713854
 20
259.532714
 30
0.0
 10
84.777921
 20
259.170191
 30
0.0
 10
84.871679
 20
258.815483
 30
0.0
 10
84.979496
 20
258.507649
 30
0.0
 10
84.979496
 20
258.507649
 30
0.0
 10
85.104503
 20
258.206069
 30
0.0
 10
85.249825
 20
257.915425
 30
0.0
 10
85.421713
 20
257.640406
 30
0.0
 10
85.421713
 20
257.640406
 30
0.0
 10
85.590473
 20
257.432580
 30
0.0
 10
85.777984
 20
257.241944
 30
0.0
 10
85.982686
 20
257.068496
 30
0.0
 10
85.982686
 20
257.068496
 30
0.0
 10
86.201450
 20
256.915360
 30
0.0
 10
86.412400
 20
256.804415
 30
0.0
 10
86.632725
 20
256.712222
 30
0.0
 10
86.632725
 20
256.712222
 30
0.0
 10
87.089005
 20
256.563776
 30
0.0
 10
87.695295
 20
256.409078
 30
0.0
 10
88.307833
 20
256.276259
 30
0.0
 10
88.307833
 20
256.276259
 30
0.0
 10
87.742172
 20
253.119807
 30
0.0
 10
87.473403
 20
251.538456
 30
0.0
 10
87.223388
 20
249.955545
 30
0.0
 10
86.949935
 20
247.813219
 30
0.0
 10
86.949935
 20
247.813219
 30
0.0
 10
86.751485
 20
245.663081
 30
0.0
 10
86.703044
 20
244.906782
 30
0.0
 10
86.696807
 20
244.528635
 30
0.0
 10
86.696807
 20
244.528635
 30
0.0
 10
86.710861
 20
244.150485
 30
0.0
 10
86.801492
 20
243.397313
 30
0.0
 10
86.921811
 20
242.647265
 30
0.0
 10
86.921811
 20
242.647265
 30
0.0
 10
87.206207
 20
241.154981
 30
0.0
 10
87.843747
 20
238.176668
 30
0.0
 10
88.185955
 20
236.240606
 30
0.0
 10
88.485974
 20
234.296733
 30
0.0
 10
88.485974
 20
234.296733
 30
0.0
 10
88.625045
 20
232.956025
 30
0.0
 10
88.742241
 20
231.612187
 30
0.0
 10
88.731290
 20
230.074590
 30
0.0
 10
82.943423
 20
230.101147
 30
0.0
 10
82.943423
 20
230.101147
 30
0.0
 10
74.371005
 20
230.235530
 30
0.0
 10
72.436507
 20
230.262087
 30
0.0
 10
72.436505
 20
230.262098
 30
0.0
  0
LWPOLYLINE
  5
102
100
AcDbEntity
  8
Layer_1
 62
7
100
AcDbPolyline
 90
78
 70
1
 10
102.883654
 20
251.089602
 30
0.0
 10
102.130482
 20
253.736640
 30
0.0
 10
102.130482
 20
253.736640
 30
0.0
 10
102.786773
 20
253.839772
 30
0.0
 10
103.108670
 20
253.906964
 30
0.0
 10
103.424313
 20
254.000718
 30
0.0
 10
103.424313
 20
254.000718
 30
0.0
 10
103.882156
 20
254.221046
 30
0.0
 10
104.316558
 20
254.486688
 30
0.0
 10
104.730646
 20
254.783580
 30
0.0
 10
104.730646
 20
254.783580
 30
0.0
 10
105.119734
 20
255.113289
 30
0.0
 10
105.530698
 20
255.536755
 30
0.0
 10
105.915096
 20
255.983657
 30
0.0
 10
105.915096
 20
255.983657
 30
0.0
 10
106.633893
 20
256.925904
 30
0.0
 10
107.041730
 20
257.483752
 30
0.0
 10
107.783960
 20
258.513505
 30
0.0
 10
108.177734
 20
259.008850
 30
0.0
 10
108.602763
 20
259.476066
 30
0.0
 10
108.602763
 20
259.476066
 30
0.0
 10
109.116856
 20
259.938595
 30
0.0
 10
109.668454
 20
260.357373
 30
0.0
 10
110.249741
 20
260.732396
 30
0.0
 10
110.249741
 20
260.732396
 30
0.0
 10
110.549761
 20
260.901156
 30
0.0
 10
110.860719
 20
261.052729
 30
0.0
 10
111.460754
 20
261.271491
 30
0.0
 10
111.460754
 20
261.271491
 30
0.0
 10
112.077983
 20
261.438690
 30
0.0
 10
112.707711
 20
261.569949
 30
0.0
 10
113.343687
 20
261.663703
 30
0.0
 10
113.343687
 20
261.663703
 30
0.0
 10
113.889034
 20
261.699644
 30
0.0
 10
114.339062
 20
261.707462
 30
0.0
 10
114.785967
 20
261.690275
 30
0.0
 10
115.309438
 20
261.623083
 30
0.0
 10
115.309438
 20
261.623083
 30
0.0
 10
115.826659
 20
261.527763
 30
0.0
 10
116.426697
 20
261.382441
 30
0.0
 10
116.756406
 20
261.276184
 30
0.0
 10
116.756406
 20
261.276184
 30
0.0
 10
117.079863
 20
261.151177
 30
0.0
 10
117.393946
 20
261.010542
 30
0.0
 10
117.695526
 20
260.846470
 30
0.0
 10
117.695526
 20
260.846470
 30
0.0
 10
118.023674
 20
260.610518
 30
0.0
 10
118.331505
 20
260.349564
 30
0.0
 10
118.623709
 20
260.071423
 30
0.0
 10
118.623709
 20
260.071423
 30
0.0
 10
118.898729
 20
259.774528
 30
0.0
 10
119.265940
 20
259.327626
 30
0.0
 10
119.615960
 20
258.866658
 30
0.0
 10
119.615960
 20
258.866658
 30
0.0
 10
120.283190
 20
257.916599
 30
0.0
 10
121.226995
 20
256.577452
 30
0.0
 10
121.570767
 20
256.118045
 30
0.0
 10
121.944229
 20
255.683643
 30
0.0
 10
121.944229
 20
255.683643
 30
0.0
 10
122.250496
 20
255.392999
 30
0.0
 10
122.572393
 20
255.119546
 30
0.0
 10
122.908351
 20
254.864843
 30
0.0
 10
122.908351
 20
254.864843
 30
0.0
 10
123.259937
 20
254.628888
 30
0.0
 10
123.586519
 20
254.441377
 30
0.0
 10
123.924040
 20
254.272617
 30
0.0
 10
123.924040
 20
254.272617
 30
0.0
 10
124.269376
 20
254.121044
 30
0.0
 10
124.622523
 20
253.988224
 30
0.0
 10
125.210059
 20
253.833527
 30
0.0
 10
125.210059
 20
253.833527
 30
0.0
 10
125.805410
 20
253.706962
 30
0.0
 10
125.052238
 20
251.086483
 30
0.0
 10
124.555326
 20
248.940248
 30
0.0
 10
124.834563
 20
247.455550
 30
0.0
 10
103.107098
 20
247.408244
 30
0.0
 10
103.375087
 20
248.941874
 30
0.0
 10
102.883654
 20
251.089602
 30
0.0
  0
LWPOLYLINE
  5
103
100
AcDbEntity
  8
Layer_1
 62
7
100
AcDbPolyline
 90
150
 70
0
 10
26.718506
 20
170.963128
 30
0.0
 10
24.002706
 20
170.966261
 30
0.0
 10
20.580615
 20
170.977211
 30
0.0
 10
20.580615
 20
170.977211
 30
0.0
 10
18.869570
 20
171.000664
 30
0.0
 10
17.160085
 20
171.055356
 30
0.0
 10
15.433413
 20
171.167861
 30
0.0
 10
15.433413
 20
171.167861
 30
0.0
 10
13.709864
 20
171.308495
 30
0.0
 10
10.264335
 20
171.621017
 30
0.0
 10
10.417469
 20
173.150799
 30
0.0
 10
10.531540
 20
174.471196
 30
0.0
 10
10.531540
 20
174.471196
 30
0.0
 10
10.669047
 20
175.790032
 30
0.0
 10
10.969066
 20
177.732341
 30
0.0
 10
11.311275
 20
179.668403
 30
0.0
 10
11.947254
 20
182.646716
 30
0.0
 10
11.947254
 20
182.646716
 30
0.0
 10
12.233210
 20
184.140561
 30
0.0
 10
12.351966
 20
184.889045
 30
0.0
 10
12.442599
 20
185.642217
 30
0.0
 10
12.442599
 20
185.642217
 30
0.0
 10
12.458234
 20
186.020367
 30
0.0
 10
12.450417
 20
186.398517
 30
0.0
 10
12.401976
 20
187.156379
 30
0.0
 10
12.401976
 20
187.156379
 30
0.0
 10
12.203526
 20
189.304954
 30
0.0
 10
11.930070
 20
191.447277
 30
0.0
 10
11.680055
 20
193.039567
 30
0.0
 10
11.408162
 20
194.627165
 30
0.0
 10
11.408162
 20
194.627165
 30
0.0
 10
10.839377
 20
197.797681
 30
0.0
 10
11.461290
 20
197.885187
 30
0.0
 10
11.767560
 20
197.941439
 30
0.0
 10
11.767560
 20
197.941439
 30
0.0
 10
12.070704
 20
198.018006
 30
0.0
 10
12.436351
 20
198.172704
 30
0.0
 10
12.775435
 20
198.380529
 30
0.0
 10
12.775435
 20
198.380529
 30
0.0
 10
13.052016
 20
198.621172
 30
0.0
 10
13.291095
 20
198.900876
 30
0.0
 10
13.461416
 20
199.157143
 30
0.0
 10
13.461416
 20
199.157143
 30
0.0
 10
13.611425
 20
199.425908
 30
0.0
 10
13.745811
 20
199.704053
 30
0.0
 10
13.863004
 20
199.988445
 30
0.0
 10
13.863004
 20
199.988445
 30
0.0
 10
13.978639
 20
200.330654
 30
0.0
 10
14.075517
 20
200.679113
 30
0.0
 10
14.222403
 20
201.386972
 30
0.0
 10
14.280219
 20
201.972947
 30
0.0
 10
14.383351
 20
203.166772
 30
0.0
 10
14.383351
 20
203.166772
 30
0.0
 10
14.391169
 20
204.163711
 30
0.0
 10
14.356791
 20
205.160647
 30
0.0
 10
14.259910
 20
206.537299
 30
0.0
 10
14.259910
 20
206.537299
 30
0.0
 10
14.119276
 20
207.910821
 30
0.0
 10
13.895824
 20
209.521861
 30
0.0
 10
13.650496
 20
211.131338
 30
0.0
 10
13.650496
 20
211.131338
 30
0.0
 10
21.705694
 20
213.142405
 30
0.0
 10
22.021340
 20
212.900202
 30
0.0
 10
22.349485
 20
212.676750
 30
0.0
 10
22.349485
 20
212.676750
 30
0.0
 10
22.597940
 20
212.557991
 30
0.0
 10
22.857330
 20
212.462673
 30
0.0
 10
23.143286
 20
212.386106
 30
0.0
 10
23.143286
 20
212.386106
 30
0.0
 10
23.433930
 20
212.328290
 30
0.0
 10
24.105847
 20
212.245472
 30
0.0
 10
24.816830
 20
212.218915
 30
0.0
 10
24.816830
 20
212.218915
 30
0.0
 10
25.718451
 20
212.186101
 30
0.0
 10
26.716950
 20
212.182968
 30
0.0
 10
27.715450
 20
212.186101
 30
0.0
 10
28.617071
 20
212.218915
 30
0.0
 10
28.617071
 20
212.218915
 30
0.0
 10
29.328054
 20
212.245472
 30
0.0
 10
29.999971
 20
212.328290
 30
0.0
 10
30.290615
 20
212.386106
 30
0.0
 10
30.290615
 20
212.386106
 30
0.0
 10
30.576571
 20
212.462673
 30
0.0
 10
30.835961
 20
212.557991
 30
0.0
 10
31.084416
 20
212.676750
 30
0.0
 10
31.084416
 20
212.676750
 30
0.0
 10
31.412561
 20
212.900202
 30
0.0
 10
31.728207
 20
213.142405
 30
0.0
 10
39.783405
 20
211.131338
 30
0.0
 10
39.783405
 20
211.131338
 30
0.0
 10
39.538077
 20
209.523424
 30
0.0
 10
39.314625
 20
207.910821
 30
0.0
 10
39.173991
 20
206.537299
 30
0.0
 10
39.173991
 20
206.537299
 30
0.0
 10
39.077110
 20
205.162211
 30
0.0
 10
39.042732
 20
204.163711
 30
0.0
 10
39.050550
 20
203.166772
 30
0.0
 10
39.050550
 20
203.166772
 30
0.0
 10
39.155243
 20
201.972947
 30
0.0
 10
39.211496
 20
201.388533
 30
0.0
 10
39.358381
 20
200.679113
 30
0.0
 10
39.455262
 20
200.332217
 30
0.0
 10
39.570894
 20
199.990009
 30
0.0
 10
39.570894
 20
199.990009
 30
0.0
 10
39.688090
 20
199.704053
 30
0.0
 10
39.822473
 20
199.425908
 30
0.0
 10
39.974046
 20
199.158706
 30
0.0
 10
39.974046
 20
199.158706
 30
0.0
 10
40.142806
 20
198.900876
 30
0.0
 10
40.381882
 20
198.622732
 30
0.0
 10
40.658463
 20
198.380529
 30
0.0
 10
40.658463
 20
198.380529
 30
0.0
 10
40.997547
 20
198.172704
 30
0.0
 10
41.364758
 20
198.018006
 30
0.0
 10
41.666341
 20
197.943003
 30
0.0
 10
41.666341
 20
197.943003
 30
0.0
 10
41.974172
 20
197.886750
 30
0.0
 10
42.594524
 20
197.799244
 30
0.0
 10
42.025737
 20
194.627165
 30
0.0
 10
42.025737
 20
194.627165
 30
0.0
 10
41.755407
 20
193.039567
 30
0.0
 10
41.503829
 20
191.448841
 30
0.0
 10
41.230375
 20
189.306517
 30
0.0
 10
41.031925
 20
187.156379
 30
0.0
 10
41.031925
 20
187.156379
 30
0.0
 10
40.985048
 20
186.400080
 30
0.0
 10
40.977230
 20
186.021931
 30
0.0
 10
40.991285
 20
185.643781
 30
0.0
 10
40.991285
 20
185.643781
 30
0.0
 10
41.083478
 20
184.890609
 30
0.0
 10
41.202237
 20
184.140561
 30
0.0
 10
41.488193
 20
182.648277
 30
0.0
 10
41.488193
 20
182.648277
 30
0.0
 10
42.124170
 20
179.669963
 30
0.0
 10
42.467942
 20
177.733905
 30
0.0
 10
42.766398
 20
175.790032
 30
0.0
 10
42.903908
 20
174.472759
 30
0.0
 10
42.903908
 20
174.472759
 30
0.0
 10
43.017976
 20
173.150799
 30
0.0
 10
43.172674
 20
171.621017
 30
0.0
 10
39.727144
 20
171.308495
 30
0.0
 10
38.002032
 20
171.167861
 30
0.0
 10
38.002032
 20
171.167861
 30
0.0
 10
36.276923
 20
171.055356
 30
0.0
 10
34.565878
 20
171.002228
 30
0.0
 10
32.856393
 20
170.977223
 30
0.0
 10
32.856393
 20
170.977223
 30
0.0
 10
29.432738
 20
170.966272
 30
0.0
 10
26.718506
 20
170.963140
 30
0.0
 10
26.718506
 20
170.963128
 30
0.0
  0
LWPOLYLINE
  5
104
100
AcDbEntity
  8
Layer_1
 62
7
100
AcDbPolyline
 90
160
 70
0
 10
72.436505
 20
170.592257
 30
0.0
 10
70.502007
 20
170.565700
 30
0.0
 10
61.929586
 20
170.429754
 30
0.0
 10
61.929586
 20
170.429754
 30
0.0
 10
56.143282
 20
170.404749
 30
0.0
 10
56.132332
 20
171.942346
 30
0.0
 10
56.249528
 20
173.286184
 30
0.0
 10
56.388598
 20
174.626892
 30
0.0
 10
56.388598
 20
174.626892
 30
0.0
 10
56.687054
 20
176.569205
 30
0.0
 10
57.029263
 20
178.506827
 30
0.0
 10
57.666805
 20
181.483580
 30
0.0
 10
57.951198
 20
182.977424
 30
0.0
 10
57.951198
 20
182.977424
 30
0.0
 10
58.071518
 20
183.727472
 30
0.0
 10
58.162148
 20
184.480644
 30
0.0
 10
58.176202
 20
184.858794
 30
0.0
 10
58.176202
 20
184.858794
 30
0.0
 10
58.169965
 20
185.236941
 30
0.0
 10
58.121525
 20
185.993240
 30
0.0
 10
57.923074
 20
188.143378
 30
0.0
 10
57.923074
 20
188.143378
 30
0.0
 10
57.649618
 20
190.285704
 30
0.0
 10
57.399603
 20
191.868615
 30
0.0
 10
57.130834
 20
193.448405
 30
0.0
 10
56.563613
 20
196.604855
 30
0.0
 10
56.563613
 20
196.604855
 30
0.0
 10
57.176151
 20
196.737674
 30
0.0
 10
57.784001
 20
196.892371
 30
0.0
 10
58.240281
 20
197.040820
 30
0.0
 10
58.240281
 20
197.040820
 30
0.0
 10
58.459045
 20
197.133014
 30
0.0
 10
58.669995
 20
197.243958
 30
0.0
 10
58.890323
 20
197.397092
 30
0.0
 10
58.890323
 20
197.397092
 30
0.0
 10
59.095022
 20
197.572104
 30
0.0
 10
59.282536
 20
197.762739
 30
0.0
 10
59.451296
 20
197.970565
 30
0.0
 10
59.451296
 20
197.970565
 30
0.0
 10
59.621618
 20
198.245585
 30
0.0
 10
59.768503
 20
198.536228
 30
0.0
 10
59.893510
 20
198.836245
 30
0.0
 10
59.893510
 20
198.836245
 30
0.0
 10
59.999767
 20
199.144079
 30
0.0
 10
60.095088
 20
199.498787
 30
0.0
 10
60.159152
 20
199.861310
 30
0.0
 10
60.260721
 20
200.758243
 30
0.0
 10
60.260721
 20
200.758243
 30
0.0
 10
60.307601
 20
201.658300
 30
0.0
 10
60.293546
 20
202.942756
 30
0.0
 10
60.212289
 20
204.224087
 30
0.0
 10
60.212289
 20
204.224087
 30
0.0
 10
60.076342
 20
205.424164
 30
0.0
 10
59.887271
 20
206.616428
 30
0.0
 10
59.505994
 20
208.352473
 30
0.0
 10
59.505994
 20
208.352473
 30
0.0
 10
67.725267
 20
211.043270
 30
0.0
 10
67.836212
 20
209.543174
 30
0.0
 10
67.915903
 20
208.796254
 30
0.0
 10
67.915903
 20
208.796254
 30
0.0
 10
68.033098
 20
208.055581
 30
0.0
 10
68.108105
 20
207.760250
 30
0.0
 10
68.200298
 20
207.471169
 30
0.0
 10
68.200298
 20
207.471169
 30
0.0
 10
68.311243
 20
207.188338
 30
0.0
 10
68.439374
 20
206.911760
 30
0.0
 10
68.714391
 20
206.467979
 30
0.0
 10
69.048788
 20
206.066391
 30
0.0
 10
69.048788
 20
206.066391
 30
0.0
 10
69.358183
 20
205.792938
 30
0.0
 10
69.698830
 20
205.556986
 30
0.0
 10
70.048851
 20
205.363223
 30
0.0
 10
70.048851
 20
205.363223
 30
0.0
 10
70.414501
 20
205.202275
 30
0.0
 10
70.856715
 20
205.058517
 30
0.0
 10
71.308307
 20
204.955384
 30
0.0
 10
71.308307
 20
204.955384
 30
0.0
 10
71.942723
 20
204.899132
 30
0.0
 10
72.436505
 20
204.860066
 30
0.0
 10
72.928723
 20
204.899132
 30
0.0
 10
72.928723
 20
204.899132
 30
0.0
 10
73.563139
 20
204.955384
 30
0.0
 10
74.016291
 20
205.058517
 30
0.0
 10
74.458508
 20
205.203838
 30
0.0
 10
74.458508
 20
205.203838
 30
0.0
 10
74.824155
 20
205.363223
 30
0.0
 10
75.172615
 20
205.556986
 30
0.0
 10
75.513260
 20
205.792938
 30
0.0
 10
75.513260
 20
205.792938
 30
0.0
 10
75.822658
 20
206.066391
 30
0.0
 10
75.997666
 20
206.261717
 30
0.0
 10
76.157051
 20
206.467979
 30
0.0
 10
76.157051
 20
206.467979
 30
0.0
 10
76.432071
 20
206.913320
 30
0.0
 10
76.561767
 20
207.188338
 30
0.0
 10
76.671147
 20
207.471169
 30
0.0
 10
76.671147
 20
207.471169
 30
0.0
 10
76.764904
 20
207.760250
 30
0.0
 10
76.838344
 20
208.055581
 30
0.0
 10
76.955540
 20
208.796254
 30
0.0
 10
76.955540
 20
208.796254
 30
0.0
 10
77.035234
 20
209.543174
 30
0.0
 10
77.146178
 20
211.044834
 30
0.0
 10
85.365449
 20
208.352473
 30
0.0
 10
85.365449
 20
208.352473
 30
0.0
 10
84.984175
 20
206.616428
 30
0.0
 10
84.795100
 20
205.424164
 30
0.0
 10
84.659154
 20
204.225651
 30
0.0
 10
84.659154
 20
204.225651
 30
0.0
 10
84.577899
 20
202.942756
 30
0.0
 10
84.563845
 20
201.659864
 30
0.0
 10
84.610722
 20
200.758243
 30
0.0
 10
84.610722
 20
200.758243
 30
0.0
 10
84.713854
 20
199.862873
 30
0.0
 10
84.777921
 20
199.500350
 30
0.0
 10
84.871679
 20
199.145642
 30
0.0
 10
84.979496
 20
198.837808
 30
0.0
 10
84.979496
 20
198.837808
 30
0.0
 10
85.104503
 20
198.536228
 30
0.0
 10
85.249825
 20
198.245585
 30
0.0
 10
85.421713
 20
197.970565
 30
0.0
 10
85.421713
 20
197.970565
 30
0.0
 10
85.590473
 20
197.762739
 30
0.0
 10
85.777984
 20
197.572104
 30
0.0
 10
85.982686
 20
197.398655
 30
0.0
 10
85.982686
 20
197.398655
 30
0.0
 10
86.201450
 20
197.245519
 30
0.0
 10
86.412400
 20
197.134574
 30
0.0
 10
86.632725
 20
197.042381
 30
0.0
 10
86.632725
 20
197.042381
 30
0.0
 10
87.089005
 20
196.893935
 30
0.0
 10
87.695295
 20
196.739238
 30
0.0
 10
88.307833
 20
196.606418
 30
0.0
 10
88.307833
 20
196.606418
 30
0.0
 10
87.742172
 20
193.449966
 30
0.0
 10
87.473403
 20
191.868615
 30
0.0
 10
87.223388
 20
190.285704
 30
0.0
 10
86.949935
 20
188.143378
 30
0.0
 10
86.949935
 20
188.143378
 30
0.0
 10
86.751485
 20
185.993240
 30
0.0
 10
86.703044
 20
185.236941
 30
0.0
 10
86.696807
 20
184.858794
 30
0.0
 10
86.696807
 20
184.858794
 30
0.0
 10
86.710861
 20
184.480644
 30
0.0
 10
86.801492
 20
183.727472
 30
0.0
 10
86.921811
 20
182.977424
 30
0.0
 10
86.921811
 20
182.977424
 30
0.0
 10
87.206207
 20
181.485141
 30
0.0
 10
87.843747
 20
178.506827
 30
0.0
 10
88.185955
 20
176.570766
 30
0.0
 10
88.485974
 20
174.626892
 30
0.0
 10
88.485974
 20
174.626892
 30
0.0
 10
88.625045
 20
173.286184
 30
0.0
 10
88.742241
 20
171.942346
 30
0.0
 10
88.731290
 20
170.404749
 30
0.0
 10
82.943423
 20
170.431306
 30
0.0
 10
82.943423
 20
170.431306
 30
0.0
 10
74.371005
 20
170.565689
 30
0.0
 10
72.436507
 20
170.592246
 30
0.0
 10
72.436505
 20
170.592257
 30
0.0
  0
LWPOLYLINE
  5
105
100
AcDbEntity
  8
Layer_1
 62
7
100
AcDbPolyline
 90
90
 70
1
 10
103.689381
 20
178.358141
 30
0.0
 10
102.698694
 20
184.297584
 30
0.0
 10
102.423677
 20
186.019568
 30
0.0
 10
101.754884
 20
191.185522
 30
0.0
 10
101.382985
 20
193.941947
 30
0.0
 10
100.976709
 20
196.693684
 30
0.0
 10
100.976709
 20
196.693684
 30
0.0
 10
100.489179
 20
199.446985
 30
0.0
 10
99.971959
 20
202.195595
 30
0.0
 10
100.612623
 20
202.295603
 30
0.0
 10
100.612623
 20
202.295603
 30
0.0
 10
100.926705
 20
202.361231
 30
0.0
 10
101.234539
 20
202.453425
 30
0.0
 10
101.692380
 20
202.673750
 30
0.0
 10
101.692380
 20
202.673750
 30
0.0
 10
102.126782
 20
202.939395
 30
0.0
 10
102.542433
 20
203.236287
 30
0.0
 10
102.931522
 20
203.567556
 30
0.0
 10
102.931522
 20
203.567556
 30
0.0
 10
103.342485
 20
203.989459
 30
0.0
 10
103.726883
 20
204.437924
 30
0.0
 10
104.445681
 20
205.380171
 30
0.0
 10
104.853517
 20
205.938020
 30
0.0
 10
105.597317
 20
206.967772
 30
0.0
 10
105.597317
 20
206.967772
 30
0.0
 10
105.992653
 20
207.461554
 30
0.0
 10
106.416117
 20
207.930334
 30
0.0
 10
106.931776
 20
208.392862
 30
0.0
 10
106.931776
 20
208.392862
 30
0.0
 10
107.484934
 20
208.811640
 30
0.0
 10
108.064658
 20
209.186663
 30
0.0
 10
108.677199
 20
209.506996
 30
0.0
 10
108.677199
 20
209.506996
 30
0.0
 10
109.278798
 20
209.732012
 30
0.0
 10
109.899151
 20
209.902333
 30
0.0
 10
110.533567
 20
210.032031
 30
0.0
 10
110.533567
 20
210.032031
 30
0.0
 10
111.174231
 20
210.121098
 30
0.0
 10
111.889901
 20
210.152351
 30
0.0
 10
112.607135
 20
210.146086
 30
0.0
 10
113.429062
 20
210.014827
 30
0.0
 10
113.429062
 20
210.014827
 30
0.0
 10
114.240053
 20
209.841379
 30
0.0
 10
114.572886
 20
209.736683
 30
0.0
 10
114.899468
 20
209.613239
 30
0.0
 10
114.899468
 20
209.613239
 30
0.0
 10
115.216678
 20
209.469481
 30
0.0
 10
115.521382
 20
209.300717
 30
0.0
 10
115.849530
 20
209.066329
 30
0.0
 10
115.849530
 20
209.066329
 30
0.0
 10
116.157361
 20
208.805375
 30
0.0
 10
116.449568
 20
208.525670
 30
0.0
 10
116.726146
 20
208.228775
 30
0.0
 10
116.726146
 20
208.228775
 30
0.0
 10
117.094920
 20
207.781871
 30
0.0
 10
117.444943
 20
207.320906
 30
0.0
 10
118.113737
 20
206.370844
 30
0.0
 10
118.113737
 20
206.370844
 30
0.0
 10
119.057544
 20
205.033260
 30
0.0
 10
119.402880
 20
204.572293
 30
0.0
 10
119.777902
 20
204.137891
 30
0.0
 10
120.084173
 20
203.847247
 30
0.0
 10
120.084173
 20
203.847247
 30
0.0
 10
120.406067
 20
203.573793
 30
0.0
 10
120.743591
 20
203.319088
 30
0.0
 10
121.093611
 20
203.084699
 30
0.0
 10
121.093611
 20
203.084699
 30
0.0
 10
121.421756
 20
202.897188
 30
0.0
 10
121.759280
 20
202.728428
 30
0.0
 10
122.104613
 20
202.576857
 30
0.0
 10
122.104613
 20
202.576857
 30
0.0
 10
122.457760
 20
202.445599
 30
0.0
 10
123.028109
 20
202.294026
 30
0.0
 10
123.607833
 20
202.170582
 30
0.0
 10
123.607833
 20
202.170582
 30
0.0
 10
123.093740
 20
199.284459
 30
0.0
 10
122.599958
 20
196.393651
 30
0.0
 10
122.209309
 20
193.790360
 30
0.0
 10
122.209309
 20
193.790360
 30
0.0
 10
121.845222
 20
191.185508
 30
0.0
 10
121.167054
 20
186.030493
 30
0.0
 10
120.876410
 20
184.296009
 30
0.0
 10
119.871659
 20
178.358127
 30
0.0
 10
118.835655
 20
171.559258
 30
0.0
 10
119.070047
 20
170.024785
 30
0.0
 10
111.786772
 20
170.026478
 30
0.0
 10
111.786772
 20
170.026478
 30
0.0
 10
104.501933
 20
170.026478
 30
0.0
 10
104.739448
 20
171.560895
 30
0.0
 10
103.689381
 20
178.358141
 30
0.0
  0
LWPOLYLINE
  5
106
100
AcDbEntity
  8
Layer_1
 62
7
100
AcDbPolyline
 90
150
 70
0
 10
26.315332
 20
112.099636
 30
0.0
 10
23.599533
 20
112.102769
 30
0.0
 10
20.177442
 20
112.113719
 30
0.0
 10
20.177442
 20
112.113719
 30
0.0
 10
18.466396
 20
112.137172
 30
0.0
 10
16.756911
 20
112.191863
 30
0.0
 10
15.030239
 20
112.304368
 30
0.0
 10
15.030239
 20
112.304368
 30
0.0
 10
13.306691
 20
112.445003
 30
0.0
 10
9.861161
 20
112.757524
 30
0.0
 10
10.014295
 20
114.287307
 30
0.0
 10
10.128366
 20
115.607703
 30
0.0
 10
10.128366
 20
115.607703
 30
0.0
 10
10.265873
 20
116.926539
 30
0.0
 10
10.565893
 20
118.868849
 30
0.0
 10
10.908101
 20
120.804910
 30
0.0
 10
11.544080
 20
123.783224
 30
0.0
 10
11.544080
 20
123.783224
 30
0.0
 10
11.830036
 20
125.277069
 30
0.0
 10
11.948793
 20
126.025553
 30
0.0
 10
12.039426
 20
126.778725
 30
0.0
 10
12.039426
 20
126.778725
 30
0.0
 10
12.055061
 20
127.156875
 30
0.0
 10
12.047243
 20
127.535024
 30
0.0
 10
11.998803
 20
128.292887
 30
0.0
 10
11.998803
 20
128.292887
 30
0.0
 10
11.800352
 20
130.441461
 30
0.0
 10
11.526896
 20
132.583785
 30
0.0
 10
11.276881
 20
134.176074
 30
0.0
 10
11.004988
 20
135.763673
 30
0.0
 10
11.004988
 20
135.763673
 30
0.0
 10
10.436203
 20
138.934189
 30
0.0
 10
11.058116
 20
139.021694
 30
0.0
 10
11.364387
 20
139.077947
 30
0.0
 10
11.364387
 20
139.077947
 30
0.0
 10
11.667530
 20
139.154514
 30
0.0
 10
12.033177
 20
139.309211
 30
0.0
 10
12.372262
 20
139.517037
 30
0.0
 10
12.372262
 20
139.517037
 30
0.0
 10
12.648842
 20
139.757679
 30
0.0
 10
12.887921
 20
140.037384
 30
0.0
 10
13.058242
 20
140.293650
 30
0.0
 10
13.058242
 20
140.293650
 30
0.0
 10
13.208252
 20
140.562416
 30
0.0
 10
13.342637
 20
140.840560
 30
0.0
 10
13.459830
 20
141.124953
 30
0.0
 10
13.459830
 20
141.124953
 30
0.0
 10
13.575465
 20
141.467161
 30
0.0
 10
13.672344
 20
141.815621
 30
0.0
 10
13.819229
 20
142.523479
 30
0.0
 10
13.877045
 20
143.109455
 30
0.0
 10
13.980177
 20
144.303280
 30
0.0
 10
13.980177
 20
144.303280
 30
0.0
 10
13.987995
 20
145.300219
 30
0.0
 10
13.953618
 20
146.297155
 30
0.0
 10
13.856736
 20
147.673806
 30
0.0
 10
13.856736
 20
147.673806
 30
0.0
 10
13.716102
 20
149.047328
 30
0.0
 10
13.492650
 20
150.658368
 30
0.0
 10
13.247323
 20
152.267845
 30
0.0
 10
13.247323
 20
152.267845
 30
0.0
 10
21.302521
 20
154.278913
 30
0.0
 10
21.618166
 20
154.036710
 30
0.0
 10
21.946312
 20
153.813257
 30
0.0
 10
21.946312
 20
153.813257
 30
0.0
 10
22.194766
 20
153.694498
 30
0.0
 10
22.454157
 20
153.599180
 30
0.0
 10
22.740113
 20
153.522614
 30
0.0
 10
22.740113
 20
153.522614
 30
0.0
 10
23.030756
 20
153.464798
 30
0.0
 10
23.702674
 20
153.381979
 30
0.0
 10
24.413656
 20
153.355422
 30
0.0
 10
24.413656
 20
153.355422
 30
0.0
 10
25.315277
 20
153.322608
 30
0.0
 10
26.313777
 20
153.319476
 30
0.0
 10
27.312276
 20
153.322608
 30
0.0
 10
28.213897
 20
153.355422
 30
0.0
 10
28.213897
 20
153.355422
 30
0.0
 10
28.924879
 20
153.381979
 30
0.0
 10
29.596797
 20
153.464798
 30
0.0
 10
29.887441
 20
153.522614
 30
0.0
 10
29.887441
 20
153.522614
 30
0.0
 10
30.173397
 20
153.599180
 30
0.0
 10
30.432787
 20
153.694498
 30
0.0
 10
30.681241
 20
153.813257
 30
0.0
 10
30.681241
 20
153.813257
 30
0.0
 10
31.009387
 20
154.036710
 30
0.0
 10
31.325033
 20
154.278913
 30
0.0
 10
39.380231
 20
152.267845
 30
0.0
 10
39.380231
 20
152.267845
 30
0.0
 10
39.134903
 20
150.659932
 30
0.0
 10
38.911451
 20
149.047328
 30
0.0
 10
38.770817
 20
147.673806
 30
0.0
 10
38.770817
 20
147.673806
 30
0.0
 10
38.673936
 20
146.298718
 30
0.0
 10
38.639558
 20
145.300219
 30
0.0
 10
38.647376
 20
144.303280
 30
0.0
 10
38.647376
 20
144.303280
 30
0.0
 10
38.752069
 20
143.109455
 30
0.0
 10
38.808321
 20
142.525040
 30
0.0
 10
38.955207
 20
141.815621
 30
0.0
 10
39.052088
 20
141.468725
 30
0.0
 10
39.167720
 20
141.126516
 30
0.0
 10
39.167720
 20
141.126516
 30
0.0
 10
39.284916
 20
140.840560
 30
0.0
 10
39.419299
 20
140.562416
 30
0.0
 10
39.570872
 20
140.295214
 30
0.0
 10
39.570872
 20
140.295214
 30
0.0
 10
39.739632
 20
140.037384
 30
0.0
 10
39.978708
 20
139.759240
 30
0.0
 10
40.255289
 20
139.517037
 30
0.0
 10
40.255289
 20
139.517037
 30
0.0
 10
40.594373
 20
139.309211
 30
0.0
 10
40.961584
 20
139.154514
 30
0.0
 10
41.263166
 20
139.079510
 30
0.0
 10
41.263166
 20
139.079510
 30
0.0
 10
41.570997
 20
139.023258
 30
0.0
 10
42.191350
 20
138.935752
 30
0.0
 10
41.622562
 20
135.763673
 30
0.0
 10
41.622562
 20
135.763673
 30
0.0
 10
41.352233
 20
134.176074
 30
0.0
 10
41.100654
 20
132.585348
 30
0.0
 10
40.827201
 20
130.443025
 30
0.0
 10
40.628751
 20
128.292887
 30
0.0
 10
40.628751
 20
128.292887
 30
0.0
 10
40.581874
 20
127.536588
 30
0.0
 10
40.574056
 20
127.158438
 30
0.0
 10
40.588111
 20
126.780289
 30
0.0
 10
40.588111
 20
126.780289
 30
0.0
 10
40.680304
 20
126.027116
 30
0.0
 10
40.799063
 20
125.277069
 30
0.0
 10
41.085019
 20
123.784785
 30
0.0
 10
41.085019
 20
123.784785
 30
0.0
 10
41.720996
 20
120.806471
 30
0.0
 10
42.064768
 20
118.870412
 30
0.0
 10
42.363223
 20
116.926539
 30
0.0
 10
42.500733
 20
115.609267
 30
0.0
 10
42.500733
 20
115.609267
 30
0.0
 10
42.614802
 20
114.287307
 30
0.0
 10
42.769499
 20
112.757524
 30
0.0
 10
39.323970
 20
112.445003
 30
0.0
 10
37.598858
 20
112.304368
 30
0.0
 10
37.598858
 20
112.304368
 30
0.0
 10
35.873749
 20
112.191863
 30
0.0
 10
34.162704
 20
112.138735
 30
0.0
 10
32.453219
 20
112.113730
 30
0.0
 10
32.453219
 20
112.113730
 30
0.0
 10
29.029564
 20
112.102780
 30
0.0
 10
26.315332
 20
112.099647
 30
0.0
 10
26.315332
 20
112.099636
 30
0.0
  0
LWPOLYLINE
  5
107
100
AcDbEntity
  8
Layer_1
 62
7
100
AcDbPolyline
 90
150
 70
0
 10
85.727794
 20
112.318835
 30
0.0
 10
79.936800
 20
112.328205
 30
0.0
 10
71.361255
 20
112.478215
 30
0.0
 10
71.361255
 20
112.478215
 30
0.0
 10
69.425193
 20
112.504772
 30
0.0
 10
67.492259
 20
112.478215
 30
0.0
 10
58.915153
 20
112.328205
 30
0.0
 10
58.915153
 20
112.328205
 30
0.0
 10
53.122596
 20
112.318835
 30
0.0
 10
53.120902
 20
113.856433
 30
0.0
 10
53.236535
 20
115.198704
 30
0.0
 10
53.377169
 20
116.539415
 30
0.0
 10
53.377169
 20
116.539415
 30
0.0
 10
53.675624
 20
118.483288
 30
0.0
 10
54.017833
 20
120.419350
 30
0.0
 10
54.655373
 20
123.397663
 30
0.0
 10
54.939768
 20
124.889950
 30
0.0
 10
54.939768
 20
124.889950
 30
0.0
 10
55.058524
 20
125.639995
 30
0.0
 10
55.150718
 20
126.393170
 30
0.0
 10
55.164773
 20
126.771317
 30
0.0
 10
55.164773
 20
126.771317
 30
0.0
 10
55.156955
 20
127.151030
 30
0.0
 10
55.110075
 20
127.907329
 30
0.0
 10
54.911625
 20
130.060588
 30
0.0
 10
54.911625
 20
130.060588
 30
0.0
 10
54.636608
 20
132.204475
 30
0.0
 10
54.386593
 20
133.790514
 30
0.0
 10
54.116264
 20
135.371864
 30
0.0
 10
53.549039
 20
138.533001
 30
0.0
 10
53.549039
 20
138.533001
 30
0.0
 10
54.163141
 20
138.664260
 30
0.0
 10
54.769430
 20
138.818957
 30
0.0
 10
55.225710
 20
138.965843
 30
0.0
 10
55.225710
 20
138.965843
 30
0.0
 10
55.446035
 20
139.058036
 30
0.0
 10
55.656985
 20
139.168980
 30
0.0
 10
55.877313
 20
139.322114
 30
0.0
 10
55.877313
 20
139.322114
 30
0.0
 10
56.080451
 20
139.495562
 30
0.0
 10
56.269526
 20
139.686201
 30
0.0
 10
56.438286
 20
139.894026
 30
0.0
 10
56.438286
 20
139.894026
 30
0.0
 10
56.610171
 20
140.169043
 30
0.0
 10
56.757056
 20
140.458124
 30
0.0
 10
56.882064
 20
140.759706
 30
0.0
 10
56.882064
 20
140.759706
 30
0.0
 10
56.989884
 20
141.067537
 30
0.0
 10
57.083638
 20
141.422248
 30
0.0
 10
57.149269
 20
141.784771
 30
0.0
 10
57.252399
 20
142.680141
 30
0.0
 10
57.252399
 20
142.680141
 30
0.0
 10
57.299279
 20
143.581762
 30
0.0
 10
57.288328
 20
144.864654
 30
0.0
 10
57.207074
 20
146.145985
 30
0.0
 10
57.207074
 20
146.145985
 30
0.0
 10
57.072691
 20
147.346062
 30
0.0
 10
56.885177
 20
148.538324
 30
0.0
 10
56.507030
 20
150.274371
 30
0.0
 10
56.507030
 20
150.274371
 30
0.0
 10
64.629419
 20
152.921415
 30
0.0
 10
64.845060
 20
152.024482
 30
0.0
 10
65.085699
 20
151.133800
 30
0.0
 10
65.085699
 20
151.133800
 30
0.0
 10
65.295086
 20
150.538452
 30
0.0
 10
65.538852
 20
149.955601
 30
0.0
 10
65.813869
 20
149.397752
 30
0.0
 10
65.813869
 20
149.397752
 30
0.0
 10
66.123264
 20
148.857094
 30
0.0
 10
66.465473
 20
148.336749
 30
0.0
 10
66.837374
 20
147.838280
 30
0.0
 10
66.837374
 20
147.838280
 30
0.0
 10
67.248337
 20
147.353874
 30
0.0
 10
67.685864
 20
146.896033
 30
0.0
 10
68.167146
 20
146.450692
 30
0.0
 10
68.167146
 20
146.450692
 30
0.0
 10
68.670303
 20
146.031914
 30
0.0
 10
68.818749
 20
145.927221
 30
0.0
 10
69.423475
 20
145.499070
 30
0.0
 10
70.028201
 20
145.927221
 30
0.0
 10
70.178210
 20
146.031914
 30
0.0
 10
70.178210
 20
146.031914
 30
0.0
 10
70.681367
 20
146.450692
 30
0.0
 10
71.161086
 20
146.896033
 30
0.0
 10
71.600176
 20
147.353874
 30
0.0
 10
71.600176
 20
147.353874
 30
0.0
 10
72.011139
 20
147.838280
 30
0.0
 10
72.383038
 20
148.336749
 30
0.0
 10
72.725246
 20
148.857094
 30
0.0
 10
72.725246
 20
148.857094
 30
0.0
 10
73.034641
 20
149.397752
 30
0.0
 10
73.309658
 20
149.955601
 30
0.0
 10
73.553424
 20
150.538452
 30
0.0
 10
73.553424
 20
150.538452
 30
0.0
 10
73.762814
 20
151.133800
 30
0.0
 10
74.003453
 20
152.024482
 30
0.0
 10
74.219091
 20
152.921415
 30
0.0
 10
74.219091
 20
152.921415
 30
0.0
 10
82.341483
 20
150.275935
 30
0.0
 10
81.961770
 20
148.539887
 30
0.0
 10
81.775822
 20
147.346062
 30
0.0
 10
81.775822
 20
147.346062
 30
0.0
 10
81.641436
 20
146.147546
 30
0.0
 10
81.560182
 20
144.864654
 30
0.0
 10
81.549260
 20
143.581762
 30
0.0
 10
81.549260
 20
143.581762
 30
0.0
 10
81.596137
 20
142.680141
 30
0.0
 10
81.700830
 20
141.784771
 30
0.0
 10
81.764897
 20
141.422248
 30
0.0
 10
81.860215
 20
141.067537
 30
0.0
 10
81.860215
 20
141.067537
 30
0.0
 10
81.966472
 20
140.759706
 30
0.0
 10
82.093043
 20
140.459687
 30
0.0
 10
82.238365
 20
140.169043
 30
0.0
 10
82.238365
 20
140.169043
 30
0.0
 10
82.410249
 20
139.894026
 30
0.0
 10
82.579012
 20
139.686201
 30
0.0
 10
82.768084
 20
139.495562
 30
0.0
 10
82.768084
 20
139.495562
 30
0.0
 10
82.971225
 20
139.322114
 30
0.0
 10
83.191550
 20
139.168980
 30
0.0
 10
83.402500
 20
139.059597
 30
0.0
 10
83.402500
 20
139.059597
 30
0.0
 10
83.622828
 20
138.967406
 30
0.0
 10
84.079105
 20
138.818957
 30
0.0
 10
84.686958
 20
138.665823
 30
0.0
 10
84.686958
 20
138.665823
 30
0.0
 10
85.299496
 20
138.533001
 30
0.0
 10
84.732272
 20
135.373427
 30
0.0
 10
84.461943
 20
133.790514
 30
0.0
 10
84.461943
 20
133.790514
 30
0.0
 10
84.211928
 20
132.206039
 30
0.0
 10
83.938471
 20
130.060588
 30
0.0
 10
83.740024
 20
127.908890
 30
0.0
 10
83.691583
 20
127.151030
 30
0.0
 10
83.691583
 20
127.151030
 30
0.0
 10
83.685318
 20
126.772880
 30
0.0
 10
83.699373
 20
126.394731
 30
0.0
 10
83.790003
 20
125.639995
 30
0.0
 10
83.790003
 20
125.639995
 30
0.0
 10
83.910322
 20
124.891511
 30
0.0
 10
84.194715
 20
123.397663
 30
0.0
 10
84.832258
 20
120.420913
 30
0.0
 10
85.174466
 20
118.483288
 30
0.0
 10
85.174466
 20
118.483288
 30
0.0
 10
85.472922
 20
116.540978
 30
0.0
 10
85.611993
 20
115.200268
 30
0.0
 10
85.729188
 20
113.857996
 30
0.0
 10
85.727495
 20
112.318835
 30
0.0
 10
85.727777
 20
112.318835
 30
0.0
  0
LWPOLYLINE
  5
108
100
AcDbEntity
  8
Layer_1
 62
7
100
AcDbPolyline
 90
78
 70
1
 10
98.448735
 20
124.492776
 30
0.0
 10
97.695563
 20
127.139814
 30
0.0
 10
97.695563
 20
127.139814
 30
0.0
 10
98.351854
 20
127.242947
 30
0.0
 10
98.673751
 20
127.310138
 30
0.0
 10
98.989394
 20
127.403892
 30
0.0
 10
98.989394
 20
127.403892
 30
0.0
 10
99.447237
 20
127.624220
 30
0.0
 10
99.881639
 20
127.889862
 30
0.0
 10
100.295727
 20
128.186754
 30
0.0
 10
100.295727
 20
128.186754
 30
0.0
 10
100.684815
 20
128.516463
 30
0.0
 10
101.095779
 20
128.939929
 30
0.0
 10
101.480177
 20
129.386831
 30
0.0
 10
101.480177
 20
129.386831
 30
0.0
 10
102.198974
 20
130.329078
 30
0.0
 10
102.606811
 20
130.886927
 30
0.0
 10
103.349041
 20
131.916679
 30
0.0
 10
103.742815
 20
132.412024
 30
0.0
 10
104.167844
 20
132.879241
 30
0.0
 10
104.167844
 20
132.879241
 30
0.0
 10
104.681937
 20
133.341769
 30
0.0
 10
105.233535
 20
133.760547
 30
0.0
 10
105.814822
 20
134.135570
 30
0.0
 10
105.814822
 20
134.135570
 30
0.0
 10
106.114842
 20
134.304330
 30
0.0
 10
106.425800
 20
134.455903
 30
0.0
 10
107.025835
 20
134.674665
 30
0.0
 10
107.025835
 20
134.674665
 30
0.0
 10
107.643064
 20
134.841865
 30
0.0
 10
108.272792
 20
134.973123
 30
0.0
 10
108.908768
 20
135.066878
 30
0.0
 10
108.908768
 20
135.066878
 30
0.0
 10
109.454115
 20
135.102819
 30
0.0
 10
109.904143
 20
135.110636
 30
0.0
 10
110.351048
 20
135.093449
 30
0.0
 10
110.874519
 20
135.026257
 30
0.0
 10
110.874519
 20
135.026257
 30
0.0
 10
111.391740
 20
134.930937
 30
0.0
 10
111.991778
 20
134.785615
 30
0.0
 10
112.321487
 20
134.679358
 30
0.0
 10
112.321487
 20
134.679358
 30
0.0
 10
112.644944
 20
134.554351
 30
0.0
 10
112.959027
 20
134.413717
 30
0.0
 10
113.260607
 20
134.249644
 30
0.0
 10
113.260607
 20
134.249644
 30
0.0
 10
113.588755
 20
134.013692
 30
0.0
 10
113.896586
 20
133.752738
 30
0.0
 10
114.188790
 20
133.474597
 30
0.0
 10
114.188790
 20
133.474597
 30
0.0
 10
114.463810
 20
133.177702
 30
0.0
 10
114.831021
 20
132.730800
 30
0.0
 10
115.181041
 20
132.269832
 30
0.0
 10
115.181041
 20
132.269832
 30
0.0
 10
115.848271
 20
131.319774
 30
0.0
 10
116.792076
 20
129.980626
 30
0.0
 10
117.135848
 20
129.521219
 30
0.0
 10
117.509310
 20
129.086817
 30
0.0
 10
117.509310
 20
129.086817
 30
0.0
 10
117.815577
 20
128.796174
 30
0.0
 10
118.137474
 20
128.522720
 30
0.0
 10
118.473432
 20
128.268017
 30
0.0
 10
118.473432
 20
128.268017
 30
0.0
 10
118.825018
 20
128.032063
 30
0.0
 10
119.151600
 20
127.844551
 30
0.0
 10
119.489121
 20
127.675791
 30
0.0
 10
119.489121
 20
127.675791
 30
0.0
 10
119.834457
 20
127.524218
 30
0.0
 10
120.187604
 20
127.391398
 30
0.0
 10
120.775140
 20
127.236701
 30
0.0
 10
120.775140
 20
127.236701
 30
0.0
 10
121.370491
 20
127.110136
 30
0.0
 10
120.617319
 20
124.489657
 30
0.0
 10
120.120407
 20
122.343422
 30
0.0
 10
120.399643
 20
120.858724
 30
0.0
 10
98.672179
 20
120.811418
 30
0.0
 10
98.940168
 20
122.345048
 30
0.0
 10
98.448735
 20
124.492776
 30
0.0
  0
LWPOLYLINE
  5
109
100
AcDbEntity
  8
Layer_1
 62
7
100
AcDbPolyline
 90
150
 70
0
 10
26.315332
 20
51.623447
 30
0.0
 10
23.599533
 20
51.626579
 30
0.0
 10
20.177442
 20
51.637530
 30
0.0
 10
20.177442
 20
51.637530
 30
0.0
 10
18.466396
 20
51.660982
 30
0.0
 10
16.756911
 20
51.715674
 30
0.0
 10
15.030240
 20
51.828179
 30
0.0
 10
15.030240
 20
51.828179
 30
0.0
 10
13.306692
 20
51.968813
 30
0.0
 10
9.861162
 20
52.281335
 30
0.0
 10
10.014296
 20
53.811118
 30
0.0
 10
10.128367
 20
55.131514
 30
0.0
 10
10.128367
 20
55.131514
 30
0.0
 10
10.265875
 20
56.450350
 30
0.0
 10
10.565894
 20
58.392660
 30
0.0
 10
10.908102
 20
60.328721
 30
0.0
 10
11.544082
 20
63.307035
 30
0.0
 10
11.544082
 20
63.307035
 30
0.0
 10
11.830038
 20
64.800879
 30
0.0
 10
11.948794
 20
65.549364
 30
0.0
 10
12.039427
 20
66.302536
 30
0.0
 10
12.039427
 20
66.302536
 30
0.0
 10
12.055062
 20
66.680685
 30
0.0
 10
12.047244
 20
67.058835
 30
0.0
 10
11.998804
 20
67.816695
 30
0.0
 10
11.998804
 20
67.816695
 30
0.0
 10
11.800353
 20
69.965269
 30
0.0
 10
11.526897
 20
72.107593
 30
0.0
 10
11.276882
 20
73.699882
 30
0.0
 10
11.004989
 20
75.287481
 30
0.0
 10
11.004989
 20
75.287481
 30
0.0
 10
10.436204
 20
78.457996
 30
0.0
 10
11.058117
 20
78.545502
 30
0.0
 10
11.364388
 20
78.601755
 30
0.0
 10
11.364388
 20
78.601755
 30
0.0
 10
11.667531
 20
78.678322
 30
0.0
 10
12.033178
 20
78.833019
 30
0.0
 10
12.372263
 20
79.040845
 30
0.0
 10
12.372263
 20
79.040845
 30
0.0
 10
12.648843
 20
79.281487
 30
0.0
 10
12.887922
 20
79.561192
 30
0.0
 10
13.058243
 20
79.817458
 30
0.0
 10
13.058243
 20
79.817458
 30
0.0
 10
13.208253
 20
80.086224
 30
0.0
 10
13.342639
 20
80.364368
 30
0.0
 10
13.459831
 20
80.648761
 30
0.0
 10
13.459831
 20
80.648761
 30
0.0
 10
13.575466
 20
80.990969
 30
0.0
 10
13.672345
 20
81.339429
 30
0.0
 10
13.819230
 20
82.047287
 30
0.0
 10
13.877046
 20
82.633263
 30
0.0
 10
13.980179
 20
83.827088
 30
0.0
 10
13.980179
 20
83.827088
 30
0.0
 10
13.987996
 20
84.824027
 30
0.0
 10
13.953619
 20
85.820963
 30
0.0
 10
13.856737
 20
87.197614
 30
0.0
 10
13.856737
 20
87.197614
 30
0.0
 10
13.716103
 20
88.571136
 30
0.0
 10
13.492651
 20
90.182176
 30
0.0
 10
13.247324
 20
91.791653
 30
0.0
 10
13.247324
 20
91.791653
 30
0.0
 10
21.302521
 20
93.802721
 30
0.0
 10
21.618166
 20
93.560518
 30
0.0
 10
21.946312
 20
93.337065
 30
0.0
 10
21.946312
 20
93.337065
 30
0.0
 10
22.194766
 20
93.218306
 30
0.0
 10
22.454157
 20
93.122988
 30
0.0
 10
22.740113
 20
93.046422
 30
0.0
 10
22.740113
 20
93.046422
 30
0.0
 10
23.030756
 20
92.988605
 30
0.0
 10
23.702674
 20
92.905787
 30
0.0
 10
24.413656
 20
92.879230
 30
0.0
 10
24.413656
 20
92.879230
 30
0.0
 10
25.315277
 20
92.846416
 30
0.0
 10
26.313777
 20
92.843284
 30
0.0
 10
27.312276
 20
92.846416
 30
0.0
 10
28.213896
 20
92.879230
 30
0.0
 10
28.213896
 20
92.879230
 30
0.0
 10
28.924879
 20
92.905787
 30
0.0
 10
29.596797
 20
92.988605
 30
0.0
 10
29.887441
 20
93.046422
 30
0.0
 10
29.887441
 20
93.046422
 30
0.0
 10
30.173397
 20
93.122988
 30
0.0
 10
30.432787
 20
93.218306
 30
0.0
 10
30.681241
 20
93.337065
 30
0.0
 10
30.681241
 20
93.337065
 30
0.0
 10
31.009387
 20
93.560518
 30
0.0
 10
31.325033
 20
93.802721
 30
0.0
 10
39.380231
 20
91.791653
 30
0.0
 10
39.380231
 20
91.791653
 30
0.0
 10
39.134903
 20
90.183740
 30
0.0
 10
38.911451
 20
88.571136
 30
0.0
 10
38.770817
 20
87.197614
 30
0.0
 10
38.770817
 20
87.197614
 30
0.0
 10
38.673936
 20
85.822526
 30
0.0
 10
38.639558
 20
84.824027
 30
0.0
 10
38.647376
 20
83.827088
 30
0.0
 10
38.647376
 20
83.827088
 30
0.0
 10
38.752069
 20
82.633263
 30
0.0
 10
38.808321
 20
82.048848
 30
0.0
 10
38.955207
 20
81.339429
 30
0.0
 10
39.052088
 20
80.992533
 30
0.0
 10
39.167720
 20
80.650324
 30
0.0
 10
39.167720
 20
80.650324
 30
0.0
 10
39.284916
 20
80.364368
 30
0.0
 10
39.419299
 20
80.086224
 30
0.0
 10
39.570872
 20
79.819022
 30
0.0
 10
39.570872
 20
79.819022
 30
0.0
 10
39.739632
 20
79.561192
 30
0.0
 10
39.978708
 20
79.283048
 30
0.0
 10
40.255289
 20
79.040845
 30
0.0
 10
40.255289
 20
79.040845
 30
0.0
 10
40.594373
 20
78.833019
 30
0.0
 10
40.961584
 20
78.678322
 30
0.0
 10
41.263166
 20
78.603318
 30
0.0
 10
41.263166
 20
78.603318
 30
0.0
 10
41.570997
 20
78.547066
 30
0.0
 10
42.191350
 20
78.459560
 30
0.0
 10
41.622562
 20
75.287481
 30
0.0
 10
41.622562
 20
75.287481
 30
0.0
 10
41.352233
 20
73.699882
 30
0.0
 10
41.100654
 20
72.109156
 30
0.0
 10
40.827201
 20
69.966833
 30
0.0
 10
40.628751
 20
67.816695
 30
0.0
 10
40.628751
 20
67.816695
 30
0.0
 10
40.581874
 20
67.060398
 30
0.0
 10
40.574056
 20
66.682249
 30
0.0
 10
40.588111
 20
66.304099
 30
0.0
 10
40.588111
 20
66.304099
 30
0.0
 10
40.680304
 20
65.550927
 30
0.0
 10
40.799063
 20
64.800879
 30
0.0
 10
41.085019
 20
63.308595
 30
0.0
 10
41.085019
 20
63.308595
 30
0.0
 10
41.720996
 20
60.330282
 30
0.0
 10
42.064768
 20
58.394223
 30
0.0
 10
42.363223
 20
56.450350
 30
0.0
 10
42.500733
 20
55.133078
 30
0.0
 10
42.500733
 20
55.133078
 30
0.0
 10
42.614802
 20
53.811118
 30
0.0
 10
42.769499
 20
52.281335
 30
0.0
 10
39.323970
 20
51.968813
 30
0.0
 10
37.598858
 20
51.828179
 30
0.0
 10
37.598858
 20
51.828179
 30
0.0
 10
35.873749
 20
51.715674
 30
0.0
 10
34.162704
 20
51.662546
 30
0.0
 10
32.453219
 20
51.637541
 30
0.0
 10
32.453219
 20
51.637541
 30
0.0
 10
29.029564
 20
51.626591
 30
0.0
 10
26.315332
 20
51.623458
 30
0.0
 10
26.315332
 20
51.623447
 30
0.0
  0
LWPOLYLINE
  5
10a
100
AcDbEntity
  8
Layer_1
 62
7
100
AcDbPolyline
 90
150
 70
0
 10
85.727797
 20
51.842646
 30
0.0
 10
79.936803
 20
51.852016
 30
0.0
 10
71.361258
 20
52.002025
 30
0.0
 10
71.361258
 20
52.002025
 30
0.0
 10
69.425196
 20
52.028582
 30
0.0
 10
67.492262
 20
52.002025
 30
0.0
 10
58.915156
 20
51.852016
 30
0.0
 10
58.915156
 20
51.852016
 30
0.0
 10
53.122599
 20
51.842646
 30
0.0
 10
53.120905
 20
53.380243
 30
0.0
 10
53.236537
 20
54.722515
 30
0.0
 10
53.377171
 20
56.063226
 30
0.0
 10
53.377171
 20
56.063226
 30
0.0
 10
53.675627
 20
58.007099
 30
0.0
 10
54.017836
 20
59.943160
 30
0.0
 10
54.655376
 20
62.921474
 30
0.0
 10
54.939771
 20
64.413758
 30
0.0
 10
54.939771
 20
64.413758
 30
0.0
 10
55.058527
 20
65.163803
 30
0.0
 10
55.150721
 20
65.916978
 30
0.0
 10
55.164776
 20
66.295125
 30
0.0
 10
55.164776
 20
66.295125
 30
0.0
 10
55.156958
 20
66.674838
 30
0.0
 10
55.110078
 20
67.431137
 30
0.0
 10
54.911628
 20
69.584396
 30
0.0
 10
54.911628
 20
69.584396
 30
0.0
 10
54.636611
 20
71.728283
 30
0.0
 10
54.386596
 20
73.314321
 30
0.0
 10
54.116266
 20
74.895672
 30
0.0
 10
53.549042
 20
78.056809
 30
0.0
 10
53.549042
 20
78.056809
 30
0.0
 10
54.163143
 20
78.188068
 30
0.0
 10
54.769433
 20
78.342765
 30
0.0
 10
55.225713
 20
78.489650
 30
0.0
 10
55.225713
 20
78.489650
 30
0.0
 10
55.446038
 20
78.581844
 30
0.0
 10
55.656988
 20
78.692788
 30
0.0
 10
55.877316
 20
78.845922
 30
0.0
 10
55.877316
 20
78.845922
 30
0.0
 10
56.080454
 20
79.019370
 30
0.0
 10
56.269529
 20
79.210009
 30
0.0
 10
56.438289
 20
79.417834
 30
0.0
 10
56.438289
 20
79.417834
 30
0.0
 10
56.610174
 20
79.692851
 30
0.0
 10
56.757059
 20
79.981932
 30
0.0
 10
56.882067
 20
80.283514
 30
0.0
 10
56.882067
 20
80.283514
 30
0.0
 10
56.989887
 20
80.591345
 30
0.0
 10
57.083641
 20
80.946056
 30
0.0
 10
57.149272
 20
81.308579
 30
0.0
 10
57.252402
 20
82.203949
 30
0.0
 10
57.252402
 20
82.203949
 30
0.0
 10
57.299281
 20
83.105570
 30
0.0
 10
57.288331
 20
84.388462
 30
0.0
 10
57.207077
 20
85.669793
 30
0.0
 10
57.207077
 20
85.669793
 30
0.0
 10
57.072694
 20
86.869870
 30
0.0
 10
56.885180
 20
88.062132
 30
0.0
 10
56.507033
 20
89.798179
 30
0.0
 10
56.507033
 20
89.798179
 30
0.0
 10
64.629422
 20
92.445223
 30
0.0
 10
64.845063
 20
91.548290
 30
0.0
 10
65.085702
 20
90.657608
 30
0.0
 10
65.085702
 20
90.657608
 30
0.0
 10
65.295089
 20
90.062260
 30
0.0
 10
65.538855
 20
89.479409
 30
0.0
 10
65.813872
 20
88.921560
 30
0.0
 10
65.813872
 20
88.921560
 30
0.0
 10
66.123267
 20
88.380902
 30
0.0
 10
66.465475
 20
87.860557
 30
0.0
 10
66.837377
 20
87.362088
 30
0.0
 10
66.837377
 20
87.362088
 30
0.0
 10
67.248340
 20
86.877682
 30
0.0
 10
67.685866
 20
86.419841
 30
0.0
 10
68.167148
 20
85.974500
 30
0.0
 10
68.167148
 20
85.974500
 30
0.0
 10
68.670305
 20
85.555722
 30
0.0
 10
68.818752
 20
85.451028
 30
0.0
 10
69.423478
 20
85.022878
 30
0.0
 10
70.028204
 20
85.451028
 30
0.0
 10
70.178213
 20
85.555722
 30
0.0
 10
70.178213
 20
85.555722
 30
0.0
 10
70.681370
 20
85.974500
 30
0.0
 10
71.161089
 20
86.419841
 30
0.0
 10
71.600179
 20
86.877682
 30
0.0
 10
71.600179
 20
86.877682
 30
0.0
 10
72.011142
 20
87.362088
 30
0.0
 10
72.383040
 20
87.860557
 30
0.0
 10
72.725249
 20
88.380902
 30
0.0
 10
72.725249
 20
88.380902
 30
0.0
 10
73.034644
 20
88.921560
 30
0.0
 10
73.309661
 20
89.479409
 30
0.0
 10
73.553427
 20
90.062260
 30
0.0
 10
73.553427
 20
90.062260
 30
0.0
 10
73.762816
 20
90.657608
 30
0.0
 10
74.003456
 20
91.548290
 30
0.0
 10
74.219094
 20
92.445223
 30
0.0
 10
74.219094
 20
92.445223
 30
0.0
 10
82.341486
 20
89.799743
 30
0.0
 10
81.961773
 20
88.063695
 30
0.0
 10
81.775825
 20
86.869870
 30
0.0
 10
81.775825
 20
86.869870
 30
0.0
 10
81.641439
 20
85.671354
 30
0.0
 10
81.560185
 20
84.388462
 30
0.0
 10
81.549263
 20
83.105570
 30
0.0
 10
81.549263
 20
83.105570
 30
0.0
 10
81.596140
 20
82.203949
 30
0.0
 10
81.700833
 20
81.308579
 30
0.0
 10
81.764900
 20
80.946056
 30
0.0
 10
81.860218
 20
80.591345
 30
0.0
 10
81.860218
 20
80.591345
 30
0.0
 10
81.966475
 20
80.283514
 30
0.0
 10
82.093046
 20
79.983495
 30
0.0
 10
82.238367
 20
79.692851
 30
0.0
 10
82.238367
 20
79.692851
 30
0.0
 10
82.410252
 20
79.417834
 30
0.0
 10
82.579015
 20
79.210009
 30
0.0
 10
82.768087
 20
79.019370
 30
0.0
 10
82.768087
 20
79.019370
 30
0.0
 10
82.971228
 20
78.845922
 30
0.0
 10
83.191553
 20
78.692788
 30
0.0
 10
83.402503
 20
78.583405
 30
0.0
 10
83.402503
 20
78.583405
 30
0.0
 10
83.622831
 20
78.491214
 30
0.0
 10
84.079108
 20
78.342765
 30
0.0
 10
84.686961
 20
78.189631
 30
0.0
 10
84.686961
 20
78.189631
 30
0.0
 10
85.299499
 20
78.056809
 30
0.0
 10
84.732275
 20
74.897235
 30
0.0
 10
84.461945
 20
73.314321
 30
0.0
 10
84.461945
 20
73.314321
 30
0.0
 10
84.211930
 20
71.729847
 30
0.0
 10
83.938474
 20
69.584396
 30
0.0
 10
83.740027
 20
67.432697
 30
0.0
 10
83.691586
 20
66.674838
 30
0.0
 10
83.691586
 20
66.674838
 30
0.0
 10
83.685321
 20
66.296688
 30
0.0
 10
83.699375
 20
65.918539
 30
0.0
 10
83.790005
 20
65.163803
 30
0.0
 10
83.790005
 20
65.163803
 30
0.0
 10
83.910325
 20
64.415319
 30
0.0
 10
84.194718
 20
62.921474
 30
0.0
 10
84.832261
 20
59.944724
 30
0.0
 10
85.174469
 20
58.007099
 30
0.0
 10
85.174469
 20
58.007099
 30
0.0
 10
85.472925
 20
56.064789
 30
0.0
 10
85.611995
 20
54.724078
 30
0.0
 10
85.729191
 20
53.381807
 30
0.0
 10
85.727498
 20
51.842646
 30
0.0
 10
85.727780
 20
51.842646
 30
0.0
  0
LWPOLYLINE
  5
10b
100
AcDbEntity
  8
Layer_1
 62
7
100
AcDbPolyline
 90
90
 70
1
 10
102.883033
 20
57.405760
 30
0.0
 10
101.892346
 20
63.345200
 30
0.0
 10
101.617328
 20
65.067184
 30
0.0
 10
100.948535
 20
70.233138
 30
0.0
 10
100.576637
 20
72.989563
 30
0.0
 10
100.170361
 20
75.741300
 30
0.0
 10
100.170361
 20
75.741300
 30
0.0
 10
99.682831
 20
78.494601
 30
0.0
 10
99.165610
 20
81.243211
 30
0.0
 10
99.806275
 20
81.343219
 30
0.0
 10
99.806275
 20
81.343219
 30
0.0
 10
100.120357
 20
81.408847
 30
0.0
 10
100.428191
 20
81.501041
 30
0.0
 10
100.886031
 20
81.721366
 30
0.0
 10
100.886031
 20
81.721366
 30
0.0
 10
101.320433
 20
81.987010
 30
0.0
 10
101.736085
 20
82.283902
 30
0.0
 10
102.125173
 20
82.615172
 30
0.0
 10
102.125173
 20
82.615172
 30
0.0
 10
102.536137
 20
83.037075
 30
0.0
 10
102.920535
 20
83.485540
 30
0.0
 10
103.639332
 20
84.427787
 30
0.0
 10
104.047169
 20
84.985636
 30
0.0
 10
104.790968
 20
86.015388
 30
0.0
 10
104.790968
 20
86.015388
 30
0.0
 10
105.186305
 20
86.509170
 30
0.0
 10
105.609768
 20
86.977949
 30
0.0
 10
106.125428
 20
87.440478
 30
0.0
 10
106.125428
 20
87.440478
 30
0.0
 10
106.678586
 20
87.859256
 30
0.0
 10
107.258310
 20
88.234279
 30
0.0
 10
107.870851
 20
88.554612
 30
0.0
 10
107.870851
 20
88.554612
 30
0.0
 10
108.472450
 20
88.779628
 30
0.0
 10
109.092802
 20
88.949949
 30
0.0
 10
109.727218
 20
89.079647
 30
0.0
 10
109.727218
 20
89.079647
 30
0.0
 10
110.367882
 20
89.168714
 30
0.0
 10
111.083553
 20
89.199967
 30
0.0
 10
111.800787
 20
89.193702
 30
0.0
 10
112.622714
 20
89.062443
 30
0.0
 10
112.622714
 20
89.062443
 30
0.0
 10
113.433705
 20
88.888995
 30
0.0
 10
113.766538
 20
88.784299
 30
0.0
 10
114.093120
 20
88.660855
 30
0.0
 10
114.093120
 20
88.660855
 30
0.0
 10
114.410329
 20
88.517096
 30
0.0
 10
114.715033
 20
88.348333
 30
0.0
 10
115.043181
 20
88.113945
 30
0.0
 10
115.043181
 20
88.113945
 30
0.0
 10
115.351012
 20
87.852991
 30
0.0
 10
115.643220
 20
87.573286
 30
0.0
 10
115.919798
 20
87.276391
 30
0.0
 10
115.919798
 20
87.276391
 30
0.0
 10
116.288572
 20
86.829486
 30
0.0
 10
116.638595
 20
86.368522
 30
0.0
 10
117.307388
 20
85.418460
 30
0.0
 10
117.307388
 20
85.418460
 30
0.0
 10
118.251196
 20
84.080876
 30
0.0
 10
118.596531
 20
83.619909
 30
0.0
 10
118.971554
 20
83.185507
 30
0.0
 10
119.277824
 20
82.894863
 30
0.0
 10
119.277824
 20
82.894863
 30
0.0
 10
119.599718
 20
82.621409
 30
0.0
 10
119.937242
 20
82.366704
 30
0.0
 10
120.287263
 20
82.132315
 30
0.0
 10
120.287263
 20
82.132315
 30
0.0
 10
120.615408
 20
81.944804
 30
0.0
 10
120.952932
 20
81.776044
 30
0.0
 10
121.298264
 20
81.624473
 30
0.0
 10
121.298264
 20
81.624473
 30
0.0
 10
121.651412
 20
81.493215
 30
0.0
 10
122.221760
 20
81.341641
 30
0.0
 10
122.801484
 20
81.218197
 30
0.0
 10
122.801484
 20
81.218197
 30
0.0
 10
122.287391
 20
78.332075
 30
0.0
 10
121.793610
 20
75.441267
 30
0.0
 10
121.402960
 20
72.837975
 30
0.0
 10
121.402960
 20
72.837975
 30
0.0
 10
121.038874
 20
70.233124
 30
0.0
 10
120.360705
 20
65.078109
 30
0.0
 10
120.070062
 20
63.343625
 30
0.0
 10
119.065311
 20
57.405745
 30
0.0
 10
118.029307
 20
50.606877
 30
0.0
 10
118.263698
 20
49.072403
 30
0.0
 10
110.980423
 20
49.074097
 30
0.0
 10
110.980423
 20
49.074097
 30
0.0
 10
103.695585
 20
49.074097
 30
0.0
 10
103.933100
 20
50.608514
 30
0.0
 10
102.883033
 20
57.405760
 30
0.0
  0
ENDSEC
  0
SECTION
  2
OBJECTS
  0
DICTIONARY
  5
C
330
0
100
AcDbDictionary
  3
ACAD_GROUP
350
D
  3
ACAD_MLINESTYLE
350
17
  0
DICTIONARY
  5
D
330
C
100
AcDbDictionary
  0
DICTIONARY
  5
1A
330
C
100
AcDbDictionary
  0
DICTIONARY
  5
17
330
C
100
AcDbDictionary
  3
STANDARD
350
18
  0
DICTIONARY
  5
19
330
C
100
AcDbDictionary
  0
ENDSEC
  0
EOF
