  0
SECTION
  2
HEADER
  9
$ACADVER
  1
AC1014
  9
$HANDSEED
  5
FFFF
  9
$MEASUREMENT
 70
     1
  0
ENDSEC
  0
SECTION
  2
TABLES
  0
TABLE
  2
VPORT
  5
8
330
0
100
AcDbSymbolTable
 70
     4
  0
VPORT
  5
2E
330
8
100
AcDbSymbolTableRecord
100
AcDbViewportTableRecord
  2
*ACTIVE
 70
     0
 10
0.0
 20
0.0
 11
1.0
 21
1.0
 12
210.0
 22
148.5
 13
0.0
 23
0.0
 14
10.0
 24
10.0
 15
10.0
 25
10.0
 16
0.0
 26
0.0
 36
1.0
 17
0.0
 27
0.0
 37
0.0
 40
341.0
 41
1.24
 42
50.0
 43
0.0
 44
0.0
 50
0.0
 51
0.0
 71
     0
 72
   100
 73
     1
 74
     3
 75
     0
 76
     0
 77
     0
 78
     0
  0
ENDTAB
  0
TABLE
  2
LTYPE
  5
5
330
0
100
AcDbSymbolTable
 70
     1
  0
LTYPE
  5
14
330
5
100
AcDbSymbolTableRecord
100
AcDbLinetypeTableRecord
  2
BYBLOCK
 70
     0
  3

 72
    65
 73
     0
 40
0.0
  0
LTYPE
  5
15
330
5
100
AcDbSymbolTableRecord
100
AcDbLinetypeTableRecord
  2
BYLAYER
 70
     0
  3

 72
    65
 73
     0
 40
0.0
  0
LTYPE
  5
16
330
5
100
AcDbSymbolTableRecord
100
AcDbLinetypeTableRecord
  2
CONTINUOUS
 70
     0
  3
Solid line
 72
    65
 73
     0
 40
0.0
  0
ENDTAB
  0
TABLE
  2
LAYER
  5
2
100
AcDbSymbolTable
 70
2
  0
LAYER
  5
50
100
AcDbSymbolTableRecord
100
AcDbLayerTableRecord
  2
0
 70
0
  6
CONTINUOUS
  0
LAYER
  5
51
100
AcDbSymbolTableRecord
100
AcDbLayerTableRecord
  2
Layer_1
 70
0
  6
CONTINUOUS
  0
ENDTAB
  0
TABLE
  2
STYLE
  5
3
330
0
100
AcDbSymbolTable
 70
     1
  0
STYLE
  5
11
330
3
100
AcDbSymbolTableRecord
100
AcDbTextStyleTableRecord
  2
STANDARD
 70
     0
 40
0.0
 41
1.0
 50
0.0
 71
     0
 42
2.5
  3
txt
  4

  0
ENDTAB
  0
TABLE
  2
VIEW
  5
6
330
0
100
AcDbSymbolTable
 70
     0
  0
ENDTAB
  0
TABLE
  2
UCS
  5
7
330
0
100
AcDbSymbolTable
 70
     0
  0
ENDTAB
  0
TABLE
  2
APPID
  5
9
330
0
100
AcDbSymbolTable
 70
     2
  0
APPID
  5
12
330
9
100
AcDbSymbolTableRecord
100
AcDbRegAppTableRecord
  2
ACAD
 70
     0
  0
ENDTAB
  0
TABLE
  2
DIMSTYLE
  5
A
330
0
100
AcDbSymbolTable
 70
     1
  0
DIMSTYLE
105
27
330
A
100
AcDbSymbolTableRecord
100
AcDbDimStyleTableRecord
  2
ISO-25
 70
     0
  3

  4

  5

  6

  7

 40
1.0
 41
2.5
 42
0.625
 43
3.75
 44
1.25
 45
0.0
 46
0.0
 47
0.0
 48
0.0
140
2.5
141
2.5
142
0.0
143
0.03937007874016
144
1.0
145
0.0
146
1.0
147
0.625
 71
     0
 72
     0
 73
     0
 74
     0
 75
     0
 76
     0
 77
     1
 78
     8
170
     0
171
     3
172
     1
173
     0
174
     0
175
     0
176
     0
177
     0
178
     0
270
     2
271
     2
272
     2
273
     2
274
     3
340
11
275
     0
280
     0
281
     0
282
     0
283
     0
284
     8
285
     0
286
     0
287
     3
288
     0
  0
ENDTAB
  0
TABLE
  2
BLOCK_RECORD
  5
1
330
0
100
AcDbSymbolTable
 70
     1
  0
BLOCK_RECORD
  5
1F
330
1
100
AcDbSymbolTableRecord
100
AcDbBlockTableRecord
  2
*MODEL_SPACE
  0
BLOCK_RECORD
  5
1B
330
1
100
AcDbSymbolTableRecord
100
AcDbBlockTableRecord
  2
*PAPER_SPACE
  0
ENDTAB
  0
ENDSEC
  0
SECTION
  2
BLOCKS
  0
BLOCK
  5
20
330
1F
100
AcDbEntity
  8
0
100
AcDbBlockBegin
  2
*MODEL_SPACE
 70
     0
 10
0.0
 20
0.0
 30
0.0
  3
*MODEL_SPACE
  1

  0
ENDBLK
  5
21
330
1F
100
AcDbEntity
  8
0
100
AcDbBlockEnd
  0
BLOCK
  5
1C
330
1B
100
AcDbEntity
 67
     1
  8
0
100
AcDbBlockBegin
  2
*PAPER_SPACE
  1

  0
ENDBLK
  5
1D
330
1B
100
AcDbEntity
 67
     1
  8
0
100
AcDbBlockEnd
  0
ENDSEC
  0
SECTION
  2
ENTITIES
  0
LWPOLYLINE
  5
100
100
AcDbEntity
  8
Layer_1
 62
7
100
AcDbPolyline
 90
144
 70
0
 10
40.534333
 20
224.844730
 30
0.0
 10
37.823222
 20
224.847863
 30
0.0
 10
30.974349
 20
224.897867
 30
0.0
 10
30.974349
 20
224.897867
 30
0.0
 10
24.083287
 20
225.501029
 30
0.0
 10
24.233296
 20
227.030815
 30
0.0
 10
24.348929
 20
228.352775
 30
0.0
 10
24.486437
 20
229.671608
 30
0.0
 10
24.486437
 20
229.671608
 30
0.0
 10
24.784894
 20
231.613917
 30
0.0
 10
25.127103
 20
233.549979
 30
0.0
 10
25.764644
 20
236.528292
 30
0.0
 10
26.047474
 20
238.022137
 30
0.0
 10
26.047474
 20
238.022137
 30
0.0
 10
26.167794
 20
238.770624
 30
0.0
 10
26.259988
 20
239.523796
 30
0.0
 10
26.275614
 20
239.900382
 30
0.0
 10
26.275614
 20
239.900382
 30
0.0
 10
26.269363
 20
240.276968
 30
0.0
 10
26.219360
 20
241.030140
 30
0.0
 10
26.102165
 20
242.092710
 30
0.0
 10
26.102165
 20
242.092710
 30
0.0
 10
25.959968
 20
243.153713
 30
0.0
 10
25.791207
 20
244.210031
 30
0.0
 10
25.602133
 20
245.263223
 30
0.0
 10
25.309927
 20
246.697688
 30
0.0
 10
25.309927
 20
246.697688
 30
0.0
 10
24.998970
 20
248.127468
 30
0.0
 10
24.345803
 20
250.982337
 30
0.0
 10
24.858336
 20
251.163597
 30
0.0
 10
24.858336
 20
251.163597
 30
0.0
 10
25.355242
 20
251.380798
 30
0.0
 10
25.558380
 20
251.515181
 30
0.0
 10
25.752142
 20
251.665191
 30
0.0
 10
25.752142
 20
251.665191
 30
0.0
 10
26.111540
 20
251.996463
 30
0.0
 10
26.492814
 20
252.408990
 30
0.0
 10
26.664700
 20
252.630879
 30
0.0
 10
26.664700
 20
252.630879
 30
0.0
 10
26.820960
 20
252.862143
 30
0.0
 10
26.991284
 20
253.173102
 30
0.0
 10
27.142856
 20
253.493432
 30
0.0
 10
27.142856
 20
253.493432
 30
0.0
 10
27.391309
 20
254.157538
 30
0.0
 10
27.550694
 20
254.727886
 30
0.0
 10
27.667890
 20
255.309174
 30
0.0
 10
27.739769
 20
255.909212
 30
0.0
 10
27.794460
 20
256.621755
 30
0.0
 10
27.794460
 20
256.621755
 30
0.0
 10
27.828837
 20
257.335865
 30
0.0
 10
27.850712
 20
258.210921
 30
0.0
 10
27.841337
 20
259.085976
 30
0.0
 10
27.841337
 20
259.085976
 30
0.0
 10
27.760082
 20
260.453250
 30
0.0
 10
27.625698
 20
261.815835
 30
0.0
 10
27.403809
 20
263.417500
 30
0.0
 10
27.403809
 20
263.417500
 30
0.0
 10
27.155356
 20
265.016041
 30
0.0
 10
35.523074
 20
267.022418
 30
0.0
 10
35.838720
 20
266.781778
 30
0.0
 10
35.838720
 20
266.781778
 30
0.0
 10
36.165302
 20
266.558326
 30
0.0
 10
36.413756
 20
266.439567
 30
0.0
 10
36.673147
 20
266.344249
 30
0.0
 10
36.673147
 20
266.344249
 30
0.0
 10
36.959103
 20
266.267682
 30
0.0
 10
37.251310
 20
266.209866
 30
0.0
 10
37.921664
 20
266.127048
 30
0.0
 10
37.921664
 20
266.127048
 30
0.0
 10
38.632646
 20
266.100491
 30
0.0
 10
39.534267
 20
266.067674
 30
0.0
 10
40.532767
 20
266.064541
 30
0.0
 10
41.532833
 20
266.067674
 30
0.0
 10
41.532833
 20
266.067674
 30
0.0
 10
42.432890
 20
266.100491
 30
0.0
 10
43.145433
 20
266.127048
 30
0.0
 10
43.815787
 20
266.209866
 30
0.0
 10
43.815787
 20
266.209866
 30
0.0
 10
44.106431
 20
266.267682
 30
0.0
 10
44.393948
 20
266.344249
 30
0.0
 10
44.651778
 20
266.439567
 30
0.0
 10
44.651778
 20
266.439567
 30
0.0
 10
44.900232
 20
266.558326
 30
0.0
 10
45.226814
 20
266.781778
 30
0.0
 10
45.542460
 20
267.022418
 30
0.0
 10
45.542460
 20
267.022418
 30
0.0
 10
53.910176
 20
265.017601
 30
0.0
 10
53.661725
 20
263.419064
 30
0.0
 10
53.439839
 20
261.817399
 30
0.0
 10
53.439839
 20
261.817399
 30
0.0
 10
53.307017
 20
260.453250
 30
0.0
 10
53.225759
 20
259.087539
 30
0.0
 10
53.216389
 20
258.210921
 30
0.0
 10
53.216389
 20
258.210921
 30
0.0
 10
53.236709
 20
257.335865
 30
0.0
 10
53.272648
 20
256.621755
 30
0.0
 10
53.327340
 20
255.909212
 30
0.0
 10
53.397655
 20
255.310734
 30
0.0
 10
53.516414
 20
254.729450
 30
0.0
 10
53.516414
 20
254.729450
 30
0.0
 10
53.675799
 20
254.157538
 30
0.0
 10
53.924251
 20
253.493432
 30
0.0
 10
54.074260
 20
253.173102
 30
0.0
 10
54.074260
 20
253.173102
 30
0.0
 10
54.246148
 20
252.863707
 30
0.0
 10
54.402406
 20
252.630879
 30
0.0
 10
54.574290
 20
252.410551
 30
0.0
 10
54.574290
 20
252.410551
 30
0.0
 10
54.954003
 20
251.996463
 30
0.0
 10
55.314963
 20
251.665191
 30
0.0
 10
55.508725
 20
251.515181
 30
0.0
 10
55.508725
 20
251.515181
 30
0.0
 10
55.711863
 20
251.382362
 30
0.0
 10
56.207206
 20
251.163597
 30
0.0
 10
56.721302
 20
250.982337
 30
0.0
 10
56.721302
 20
250.982337
 30
0.0
 10
56.068135
 20
248.129031
 30
0.0
 10
55.757177
 20
246.699251
 30
0.0
 10
55.464972
 20
245.264786
 30
0.0
 10
55.275898
 20
244.211592
 30
0.0
 10
55.275898
 20
244.211592
 30
0.0
 10
55.107137
 20
243.153713
 30
0.0
 10
54.964940
 20
242.094271
 30
0.0
 10
54.849308
 20
241.030140
 30
0.0
 10
54.849308
 20
241.030140
 30
0.0
 10
54.797743
 20
240.278532
 30
0.0
 10
54.793058
 20
239.901946
 30
0.0
 10
54.808693
 20
239.525360
 30
0.0
 10
54.808693
 20
239.525360
 30
0.0
 10
54.900886
 20
238.772185
 30
0.0
 10
55.019643
 20
238.022137
 30
0.0
 10
55.304035
 20
236.529856
 30
0.0
 10
55.304035
 20
236.529856
 30
0.0
 10
55.940015
 20
233.551542
 30
0.0
 10
56.283787
 20
231.615481
 30
0.0
 10
56.582242
 20
229.671608
 30
0.0
 10
56.719749
 20
228.352775
 30
0.0
 10
56.719749
 20
228.352775
 30
0.0
 10
56.835384
 20
227.032378
 30
0.0
 10
56.985394
 20
225.501029
 30
0.0
 10
50.094332
 20
224.899430
 30
0.0
 10
43.245459
 20
224.847863
 30
0.0
 10
43.245459
 20
224.847863
 30
0.0
 10
40.534333
 20
224.844730
 30
0.0
  0
LWPOLYLINE
  5
101
100
AcDbEntity
  8
Layer_1
 62
7
100
AcDbPolyline
 90
164
 70
0
 10
85.497853
 20
225.686971
 30
0.0
 10
83.564925
 20
225.660414
 30
0.0
 10
74.990949
 20
225.510405
 30
0.0
 10
74.990949
 20
225.510405
 30
0.0
 10
69.199960
 20
225.501035
 30
0.0
 10
69.193723
 20
227.038632
 30
0.0
 10
69.310919
 20
228.380907
 30
0.0
 10
69.449990
 20
229.721612
 30
0.0
 10
69.449990
 20
229.721612
 30
0.0
 10
69.748445
 20
231.665485
 30
0.0
 10
70.092212
 20
233.601544
 30
0.0
 10
70.728188
 20
236.579852
 30
0.0
 10
71.012581
 20
238.072135
 30
0.0
 10
71.012581
 20
238.072135
 30
0.0
 10
71.131340
 20
238.822183
 30
0.0
 10
71.223533
 20
239.575355
 30
0.0
 10
71.239168
 20
239.951941
 30
0.0
 10
71.239168
 20
239.951941
 30
0.0
 10
71.234483
 20
240.328528
 30
0.0
 10
71.182916
 20
241.080139
 30
0.0
 10
71.067284
 20
242.144269
 30
0.0
 10
71.067284
 20
242.144269
 30
0.0
 10
70.923525
 20
243.203703
 30
0.0
 10
70.756326
 20
244.261585
 30
0.0
 10
70.565690
 20
245.314776
 30
0.0
 10
70.273483
 20
246.755492
 30
0.0
 10
70.273483
 20
246.755492
 30
0.0
 10
69.959401
 20
248.193084
 30
0.0
 10
69.303115
 20
251.062009
 30
0.0
 10
69.881270
 20
251.215145
 30
0.0
 10
69.881270
 20
251.215145
 30
0.0
 10
70.165666
 20
251.305775
 30
0.0
 10
70.439119
 20
251.418283
 30
0.0
 10
70.682886
 20
251.568293
 30
0.0
 10
70.682886
 20
251.568293
 30
0.0
 10
70.911023
 20
251.740177
 30
0.0
 10
71.334489
 20
252.130827
 30
0.0
 10
71.620445
 20
252.462099
 30
0.0
 10
71.620445
 20
252.462099
 30
0.0
 10
71.868896
 20
252.823058
 30
0.0
 10
72.161104
 20
253.362157
 30
0.0
 10
72.404870
 20
253.924690
 30
0.0
 10
72.404870
 20
253.924690
 30
0.0
 10
72.608008
 20
254.502854
 30
0.0
 10
72.759578
 20
255.096641
 30
0.0
 10
72.828333
 20
255.520107
 30
0.0
 10
72.879898
 20
255.948258
 30
0.0
 10
72.879898
 20
255.948258
 30
0.0
 10
72.936154
 20
256.806117
 30
0.0
 10
72.959606
 20
258.129641
 30
0.0
 10
72.912729
 20
259.451598
 30
0.0
 10
72.912729
 20
259.451598
 30
0.0
 10
72.804909
 20
260.593858
 30
0.0
 10
72.637709
 20
261.728307
 30
0.0
 10
72.458013
 20
262.592423
 30
0.0
 10
72.458013
 20
262.592423
 30
0.0
 10
72.257999
 20
263.453410
 30
0.0
 10
80.788222
 20
266.130141
 30
0.0
 10
80.899167
 20
264.634733
 30
0.0
 10
80.899167
 20
264.634733
 30
0.0
 10
80.978860
 20
263.889376
 30
0.0
 10
81.094493
 20
263.151833
 30
0.0
 10
81.167932
 20
262.856502
 30
0.0
 10
81.167932
 20
262.856502
 30
0.0
 10
81.261689
 20
262.567421
 30
0.0
 10
81.372634
 20
262.283029
 30
0.0
 10
81.500768
 20
262.008012
 30
0.0
 10
81.775785
 20
261.564234
 30
0.0
 10
81.775785
 20
261.564234
 30
0.0
 10
81.936731
 20
261.356406
 30
0.0
 10
82.110182
 20
261.161083
 30
0.0
 10
82.419577
 20
260.887626
 30
0.0
 10
82.419577
 20
260.887626
 30
0.0
 10
82.760222
 20
260.653238
 30
0.0
 10
83.110245
 20
260.457912
 30
0.0
 10
83.475892
 20
260.298527
 30
0.0
 10
83.475892
 20
260.298527
 30
0.0
 10
83.918103
 20
260.154768
 30
0.0
 10
84.369693
 20
260.051636
 30
0.0
 10
85.004108
 20
259.993820
 30
0.0
 10
85.004108
 20
259.993820
 30
0.0
 10
85.497890
 20
259.954755
 30
0.0
 10
85.990108
 20
259.993820
 30
0.0
 10
86.624524
 20
260.050075
 30
0.0
 10
86.624524
 20
260.050075
 30
0.0
 10
87.077677
 20
260.154768
 30
0.0
 10
87.519894
 20
260.298527
 30
0.0
 10
87.885541
 20
260.457912
 30
0.0
 10
87.885541
 20
260.457912
 30
0.0
 10
88.234001
 20
260.653238
 30
0.0
 10
88.574649
 20
260.887626
 30
0.0
 10
88.884043
 20
261.161083
 30
0.0
 10
88.884043
 20
261.161083
 30
0.0
 10
89.059055
 20
261.356406
 30
0.0
 10
89.218440
 20
261.564234
 30
0.0
 10
89.493457
 20
262.008012
 30
0.0
 10
89.493457
 20
262.008012
 30
0.0
 10
89.623152
 20
262.283029
 30
0.0
 10
89.732533
 20
262.567421
 30
0.0
 10
89.826290
 20
262.856502
 30
0.0
 10
89.826290
 20
262.856502
 30
0.0
 10
89.899733
 20
263.151833
 30
0.0
 10
90.016925
 20
263.890936
 30
0.0
 10
90.096619
 20
264.634733
 30
0.0
 10
90.096619
 20
264.634733
 30
0.0
 10
90.206000
 20
266.131705
 30
0.0
 10
98.736218
 20
263.453410
 30
0.0
 10
98.536207
 20
262.593987
 30
0.0
 10
98.536207
 20
262.593987
 30
0.0
 10
98.356507
 20
261.729868
 30
0.0
 10
98.190871
 20
260.593858
 30
0.0
 10
98.083051
 20
259.451598
 30
0.0
 10
98.083051
 20
259.451598
 30
0.0
 10
98.034610
 20
258.129641
 30
0.0
 10
98.059615
 20
256.806117
 30
0.0
 10
98.115868
 20
255.948258
 30
0.0
 10
98.115868
 20
255.948258
 30
0.0
 10
98.165872
 20
255.521667
 30
0.0
 10
98.236191
 20
255.098204
 30
0.0
 10
98.387761
 20
254.504417
 30
0.0
 10
98.589338
 20
253.924690
 30
0.0
 10
98.589338
 20
253.924690
 30
0.0
 10
98.834665
 20
253.362157
 30
0.0
 10
99.126870
 20
252.824622
 30
0.0
 10
99.375324
 20
252.463663
 30
0.0
 10
99.375324
 20
252.463663
 30
0.0
 10
99.661280
 20
252.130827
 30
0.0
 10
100.083183
 20
251.741741
 30
0.0
 10
100.312883
 20
251.568293
 30
0.0
 10
100.312883
 20
251.568293
 30
0.0
 10
100.556650
 20
251.419844
 30
0.0
 10
100.830103
 20
251.305775
 30
0.0
 10
101.114496
 20
251.216706
 30
0.0
 10
101.114496
 20
251.216706
 30
0.0
 10
101.691096
 20
251.063572
 30
0.0
 10
101.034805
 20
248.194645
 30
0.0
 10
100.722286
 20
246.757056
 30
0.0
 10
100.722286
 20
246.757056
 30
0.0
 10
100.430079
 20
245.314776
 30
0.0
 10
100.239441
 20
244.261585
 30
0.0
 10
100.072244
 20
243.205267
 30
0.0
 10
99.930046
 20
242.144269
 30
0.0
 10
99.930046
 20
242.144269
 30
0.0
 10
99.812853
 20
241.081700
 30
0.0
 10
99.761286
 20
240.328528
 30
0.0
 10
99.756601
 20
239.951941
 30
0.0
 10
99.756601
 20
239.951941
 30
0.0
 10
99.772236
 20
239.576919
 30
0.0
 10
99.864429
 20
238.823744
 30
0.0
 10
99.984749
 20
238.073696
 30
0.0
 10
99.984749
 20
238.073696
 30
0.0
 10
100.269142
 20
236.579852
 30
0.0
 10
100.905121
 20
233.601544
 30
0.0
 10
101.247329
 20
231.665485
 30
0.0
 10
101.547349
 20
229.723172
 30
0.0
 10
101.547349
 20
229.723172
 30
0.0
 10
101.686419
 20
228.382470
 30
0.0
 10
101.803615
 20
227.040196
 30
0.0
 10
101.797350
 20
225.501035
 30
0.0
 10
96.006364
 20
225.510405
 30
0.0
 10
96.006364
 20
225.510405
 30
0.0
 10
87.432388
 20
225.660414
 30
0.0
 10
85.497890
 20
225.686971
 30
0.0
 10
85.497853
 20
225.686971
 30
0.0
  0
LWPOLYLINE
  5
102
100
AcDbEntity
  8
Layer_1
 62
7
100
AcDbPolyline
 90
74
 70
0
 10
137.596349
 20
253.506059
 30
0.0
 10
136.033750
 20
248.571369
 30
0.0
 10
136.436902
 20
247.032211
 30
0.0
 10
114.441755
 20
247.033905
 30
0.0
 10
114.441755
 20
247.033905
 30
0.0
 10
114.843343
 20
248.573066
 30
0.0
 10
113.293246
 20
253.507755
 30
0.0
 10
113.937037
 20
253.659325
 30
0.0
 10
114.255807
 20
253.746831
 30
0.0
 10
114.255807
 20
253.746831
 30
0.0
 10
114.566762
 20
253.854651
 30
0.0
 10
115.007415
 20
254.065601
 30
0.0
 10
115.429318
 20
254.309368
 30
0.0
 10
115.429318
 20
254.309368
 30
0.0
 10
115.837157
 20
254.579697
 30
0.0
 10
116.224679
 20
254.876592
 30
0.0
 10
116.741900
 20
255.350059
 30
0.0
 10
116.741900
 20
255.350059
 30
0.0
 10
117.229433
 20
255.851653
 30
0.0
 10
117.696649
 20
256.376685
 30
0.0
 10
118.143553
 20
256.918907
 30
0.0
 10
118.548266
 20
257.454881
 30
0.0
 10
119.295189
 20
258.465880
 30
0.0
 10
119.295189
 20
258.465880
 30
0.0
 10
119.693650
 20
258.948726
 30
0.0
 10
120.120241
 20
259.403442
 30
0.0
 10
120.664024
 20
259.864407
 30
0.0
 10
120.664024
 20
259.864407
 30
0.0
 10
121.246875
 20
260.276934
 30
0.0
 10
121.856288
 20
260.645708
 30
0.0
 10
122.496955
 20
260.958227
 30
0.0
 10
122.496955
 20
260.958227
 30
0.0
 10
123.065740
 20
261.156677
 30
0.0
 10
123.650152
 20
261.308250
 30
0.0
 10
124.243939
 20
261.422319
 30
0.0
 10
124.243939
 20
261.422319
 30
0.0
 10
124.845541
 20
261.495761
 30
0.0
 10
125.547148
 20
261.517634
 30
0.0
 10
126.250316
 20
261.501999
 30
0.0
 10
126.955050
 20
261.437931
 30
0.0
 10
126.955050
 20
261.437931
 30
0.0
 10
127.305071
 20
261.392615
 30
0.0
 10
127.650407
 20
261.325423
 30
0.0
 10
128.050431
 20
261.198852
 30
0.0
 10
128.050431
 20
261.198852
 30
0.0
 10
128.439520
 20
261.041031
 30
0.0
 10
128.817669
 20
260.862895
 30
0.0
 10
129.186440
 20
260.661318
 30
0.0
 10
129.186440
 20
260.661318
 30
0.0
 10
129.492711
 20
260.470682
 30
0.0
 10
129.788042
 20
260.262857
 30
0.0
 10
130.072435
 20
260.040968
 30
0.0
 10
130.072435
 20
260.040968
 30
0.0
 10
130.341203
 20
259.801889
 30
0.0
 10
130.700599
 20
259.431554
 30
0.0
 10
131.039684
 20
259.042466
 30
0.0
 10
131.039684
 20
259.042466
 30
0.0
 10
131.677224
 20
258.229914
 30
0.0
 10
132.792922
 20
256.634501
 30
0.0
 10
133.160132
 20
256.159470
 30
0.0
 10
133.555469
 20
255.707880
 30
0.0
 10
133.555469
 20
255.707880
 30
0.0
 10
133.908617
 20
255.357857
 30
0.0
 10
134.278951
 20
255.026587
 30
0.0
 10
134.664913
 20
254.712502
 30
0.0
 10
134.664913
 20
254.712502
 30
0.0
 10
135.068064
 20
254.423422
 30
0.0
 10
135.333706
 20
254.262476
 30
0.0
 10
135.610287
 20
254.117155
 30
0.0
 10
135.610287
 20
254.117155
 30
0.0
 10
136.180635
 20
253.873388
 30
0.0
 10
136.883806
 20
253.671814
 30
0.0
 10
137.596349
 20
253.506177
 30
0.0
 10
137.596349
 20
253.506059
 30
0.0
  0
ENDSEC
  0
SECTION
  2
OBJECTS
  0
DICTIONARY
  5
C
330
0
100
AcDbDictionary
  3
ACAD_GROUP
350
D
  3
ACAD_MLINESTYLE
350
17
  0
DICTIONARY
  5
D
330
C
100
AcDbDictionary
  0
DICTIONARY
  5
1A
330
C
100
AcDbDictionary
  0
DICTIONARY
  5
17
330
C
100
AcDbDictionary
  3
STANDARD
350
18
  0
DICTIONARY
  5
19
330
C
100
AcDbDictionary
  0
ENDSEC
  0
EOF
