  0
SECTION
  2
HEADER
  9
$ACADVER
  1
AC1014
  9
$HANDSEED
  5
FFFF
  9
$MEASUREMENT
 70
     1
  0
ENDSEC
  0
SECTION
  2
TABLES
  0
TABLE
  2
VPORT
  5
8
330
0
100
AcDbSymbolTable
 70
     4
  0
VPORT
  5
2E
330
8
100
AcDbSymbolTableRecord
100
AcDbViewportTableRecord
  2
*ACTIVE
 70
     0
 10
0.0
 20
0.0
 11
1.0
 21
1.0
 12
210.0
 22
148.5
 13
0.0
 23
0.0
 14
10.0
 24
10.0
 15
10.0
 25
10.0
 16
0.0
 26
0.0
 36
1.0
 17
0.0
 27
0.0
 37
0.0
 40
341.0
 41
1.24
 42
50.0
 43
0.0
 44
0.0
 50
0.0
 51
0.0
 71
     0
 72
   100
 73
     1
 74
     3
 75
     0
 76
     0
 77
     0
 78
     0
  0
ENDTAB
  0
TABLE
  2
LTYPE
  5
5
330
0
100
AcDbSymbolTable
 70
     1
  0
LTYPE
  5
14
330
5
100
AcDbSymbolTableRecord
100
AcDbLinetypeTableRecord
  2
BYBLOCK
 70
     0
  3

 72
    65
 73
     0
 40
0.0
  0
LTYPE
  5
15
330
5
100
AcDbSymbolTableRecord
100
AcDbLinetypeTableRecord
  2
BYLAYER
 70
     0
  3

 72
    65
 73
     0
 40
0.0
  0
LTYPE
  5
16
330
5
100
AcDbSymbolTableRecord
100
AcDbLinetypeTableRecord
  2
CONTINUOUS
 70
     0
  3
Solid line
 72
    65
 73
     0
 40
0.0
  0
ENDTAB
  0
TABLE
  2
LAYER
  5
2
100
AcDbSymbolTable
 70
2
  0
LAYER
  5
50
100
AcDbSymbolTableRecord
100
AcDbLayerTableRecord
  2
0
 70
0
  6
CONTINUOUS
  0
LAYER
  5
51
100
AcDbSymbolTableRecord
100
AcDbLayerTableRecord
  2
Layer_1
 70
0
  6
CONTINUOUS
  0
ENDTAB
  0
TABLE
  2
STYLE
  5
3
330
0
100
AcDbSymbolTable
 70
     1
  0
STYLE
  5
11
330
3
100
AcDbSymbolTableRecord
100
AcDbTextStyleTableRecord
  2
STANDARD
 70
     0
 40
0.0
 41
1.0
 50
0.0
 71
     0
 42
2.5
  3
txt
  4

  0
ENDTAB
  0
TABLE
  2
VIEW
  5
6
330
0
100
AcDbSymbolTable
 70
     0
  0
ENDTAB
  0
TABLE
  2
UCS
  5
7
330
0
100
AcDbSymbolTable
 70
     0
  0
ENDTAB
  0
TABLE
  2
APPID
  5
9
330
0
100
AcDbSymbolTable
 70
     2
  0
APPID
  5
12
330
9
100
AcDbSymbolTableRecord
100
AcDbRegAppTableRecord
  2
ACAD
 70
     0
  0
ENDTAB
  0
TABLE
  2
DIMSTYLE
  5
A
330
0
100
AcDbSymbolTable
 70
     1
  0
DIMSTYLE
105
27
330
A
100
AcDbSymbolTableRecord
100
AcDbDimStyleTableRecord
  2
ISO-25
 70
     0
  3

  4

  5

  6

  7

 40
1.0
 41
2.5
 42
0.625
 43
3.75
 44
1.25
 45
0.0
 46
0.0
 47
0.0
 48
0.0
140
2.5
141
2.5
142
0.0
143
0.03937007874016
144
1.0
145
0.0
146
1.0
147
0.625
 71
     0
 72
     0
 73
     0
 74
     0
 75
     0
 76
     0
 77
     1
 78
     8
170
     0
171
     3
172
     1
173
     0
174
     0
175
     0
176
     0
177
     0
178
     0
270
     2
271
     2
272
     2
273
     2
274
     3
340
11
275
     0
280
     0
281
     0
282
     0
283
     0
284
     8
285
     0
286
     0
287
     3
288
     0
  0
ENDTAB
  0
TABLE
  2
BLOCK_RECORD
  5
1
330
0
100
AcDbSymbolTable
 70
     1
  0
BLOCK_RECORD
  5
1F
330
1
100
AcDbSymbolTableRecord
100
AcDbBlockTableRecord
  2
*MODEL_SPACE
  0
BLOCK_RECORD
  5
1B
330
1
100
AcDbSymbolTableRecord
100
AcDbBlockTableRecord
  2
*PAPER_SPACE
  0
ENDTAB
  0
ENDSEC
  0
SECTION
  2
BLOCKS
  0
BLOCK
  5
20
330
1F
100
AcDbEntity
  8
0
100
AcDbBlockBegin
  2
*MODEL_SPACE
 70
     0
 10
0.0
 20
0.0
 30
0.0
  3
*MODEL_SPACE
  1

  0
ENDBLK
  5
21
330
1F
100
AcDbEntity
  8
0
100
AcDbBlockEnd
  0
BLOCK
  5
1C
330
1B
100
AcDbEntity
 67
     1
  8
0
100
AcDbBlockBegin
  2
*PAPER_SPACE
  1

  0
ENDBLK
  5
1D
330
1B
100
AcDbEntity
 67
     1
  8
0
100
AcDbBlockEnd
  0
ENDSEC
  0
SECTION
  2
ENTITIES
  0
LWPOLYLINE
  5
100
100
AcDbEntity
  8
Layer_1
 62
7
100
AcDbPolyline
 90
176
 70
0
 10
31.707847
 20
226.087679
 30
0.0
 10
29.713973
 20
226.093944
 30
0.0
 10
26.360635
 20
226.131446
 30
0.0
 10
26.360635
 20
226.131446
 30
0.0
 10
24.683967
 20
226.176762
 30
0.0
 10
23.010423
 20
226.258017
 30
0.0
 10
21.871286
 20
226.356459
 30
0.0
 10
21.871286
 20
226.356459
 30
0.0
 10
20.733716
 20
226.479906
 30
0.0
 10
18.464822
 20
226.775237
 30
0.0
 10
16.556887
 20
227.069005
 30
0.0
 10
16.556887
 20
227.069005
 30
0.0
 10
14.653642
 20
227.381524
 30
0.0
 10
14.833341
 20
228.908185
 30
0.0
 10
15.028665
 20
230.573914
 30
0.0
 10
15.428692
 20
233.763181
 30
0.0
 10
15.428692
 20
233.763181
 30
0.0
 10
15.728711
 20
235.772682
 30
0.0
 10
16.045918
 20
237.779062
 30
0.0
 10
16.447506
 20
240.283908
 30
0.0
 10
16.663143
 20
241.762126
 30
0.0
 10
16.663143
 20
241.762126
 30
0.0
 10
16.855345
 20
243.241908
 30
0.0
 10
17.022542
 20
244.726377
 30
0.0
 10
17.091297
 20
245.468613
 30
0.0
 10
17.091297
 20
245.468613
 30
0.0
 10
17.135050
 20
246.213970
 30
0.0
 10
17.130365
 20
246.518677
 30
0.0
 10
17.041296
 20
247.754692
 30
0.0
 10
16.919412
 20
248.989146
 30
0.0
 10
16.919412
 20
248.989146
 30
0.0
 10
16.770966
 20
250.220473
 30
0.0
 10
16.589704
 20
251.447112
 30
0.0
 10
16.394380
 20
252.461241
 30
0.0
 10
16.394380
 20
252.461241
 30
0.0
 10
16.175616
 20
253.470679
 30
0.0
 10
15.711524
 20
255.484868
 30
0.0
 10
16.281872
 20
255.578625
 30
0.0
 10
16.281872
 20
255.578625
 30
0.0
 10
16.845973
 20
255.698945
 30
0.0
 10
17.453823
 20
255.892708
 30
0.0
 10
17.744467
 20
256.019279
 30
0.0
 10
17.744467
 20
256.019279
 30
0.0
 10
18.024171
 20
256.167725
 30
0.0
 10
18.280438
 20
256.345861
 30
0.0
 10
18.519514
 20
256.548999
 30
0.0
 10
18.519514
 20
256.548999
 30
0.0
 10
18.736718
 20
256.772451
 30
0.0
 10
18.928917
 20
257.017778
 30
0.0
 10
19.130491
 20
257.369365
 30
0.0
 10
19.296127
 20
257.741263
 30
0.0
 10
19.296127
 20
257.741263
 30
0.0
 10
19.433634
 20
258.127225
 30
0.0
 10
19.547706
 20
258.521001
 30
0.0
 10
19.678964
 20
259.053845
 30
0.0
 10
19.678964
 20
259.053845
 30
0.0
 10
19.785221
 20
259.591380
 30
0.0
 10
19.864912
 20
260.135165
 30
0.0
 10
19.916480
 20
260.682075
 30
0.0
 10
19.916480
 20
260.682075
 30
0.0
 10
19.952418
 20
261.589945
 30
0.0
 10
19.950725
 20
262.499378
 30
0.0
 10
19.917911
 20
263.408810
 30
0.0
 10
19.917911
 20
263.408810
 30
0.0
 10
19.864782
 20
264.318243
 30
0.0
 10
19.769465
 20
265.685517
 30
0.0
 10
19.696022
 20
266.366810
 30
0.0
 10
19.594453
 20
267.043415
 30
0.0
 10
19.594453
 20
267.043415
 30
0.0
 10
19.378813
 20
267.960663
 30
0.0
 10
19.111610
 20
268.866969
 30
0.0
 10
18.692832
 20
270.088924
 30
0.0
 10
18.692832
 20
270.088924
 30
0.0
 10
26.094866
 20
273.129741
 30
0.0
 10
26.410509
 20
272.654710
 30
0.0
 10
26.751157
 20
272.201558
 30
0.0
 10
26.751157
 20
272.201558
 30
0.0
 10
27.121492
 20
271.839035
 30
0.0
 10
27.530895
 20
271.523389
 30
0.0
 10
28.085617
 20
271.207743
 30
0.0
 10
28.085617
 20
271.207743
 30
0.0
 10
28.668466
 20
270.946789
 30
0.0
 10
29.063803
 20
270.821782
 30
0.0
 10
29.645091
 20
270.695211
 30
0.0
 10
30.282631
 20
270.642082
 30
0.0
 10
30.282631
 20
270.642082
 30
0.0
 10
30.921734
 20
270.623343
 30
0.0
 10
31.709284
 20
270.623343
 30
0.0
 10
32.493709
 20
270.623343
 30
0.0
 10
33.134376
 20
270.642082
 30
0.0
 10
33.134376
 20
270.642082
 30
0.0
 10
33.771916
 20
270.695211
 30
0.0
 10
34.353204
 20
270.821782
 30
0.0
 10
34.748541
 20
270.946789
 30
0.0
 10
35.331389
 20
271.207743
 30
0.0
 10
35.331389
 20
271.207743
 30
0.0
 10
35.884550
 20
271.523389
 30
0.0
 10
36.295513
 20
271.839035
 30
0.0
 10
36.665848
 20
272.201558
 30
0.0
 10
36.665848
 20
272.201558
 30
0.0
 10
37.006496
 20
272.654710
 30
0.0
 10
37.322142
 20
273.129741
 30
0.0
 10
44.722613
 20
270.088924
 30
0.0
 10
44.722613
 20
270.088924
 30
0.0
 10
44.305401
 20
268.866969
 30
0.0
 10
44.038195
 20
267.960663
 30
0.0
 10
43.822558
 20
267.043415
 30
0.0
 10
43.822558
 20
267.043415
 30
0.0
 10
43.720989
 20
266.366810
 30
0.0
 10
43.645983
 20
265.685517
 30
0.0
 10
43.550665
 20
264.318243
 30
0.0
 10
43.499097
 20
263.408810
 30
0.0
 10
43.499097
 20
263.408810
 30
0.0
 10
43.466283
 20
262.499378
 30
0.0
 10
43.464590
 20
261.589945
 30
0.0
 10
43.500528
 20
260.682075
 30
0.0
 10
43.500528
 20
260.682075
 30
0.0
 10
43.552096
 20
260.135165
 30
0.0
 10
43.631787
 20
259.591380
 30
0.0
 10
43.738044
 20
259.053845
 30
0.0
 10
43.738044
 20
259.053845
 30
0.0
 10
43.869302
 20
258.519437
 30
0.0
 10
43.981810
 20
258.127225
 30
0.0
 10
44.119317
 20
257.741263
 30
0.0
 10
44.119317
 20
257.741263
 30
0.0
 10
44.284954
 20
257.369365
 30
0.0
 10
44.486528
 20
257.017778
 30
0.0
 10
44.678730
 20
256.772451
 30
0.0
 10
44.897492
 20
256.548999
 30
0.0
 10
44.897492
 20
256.548999
 30
0.0
 10
45.135007
 20
256.345861
 30
0.0
 10
45.392837
 20
256.167725
 30
0.0
 10
45.670978
 20
256.019279
 30
0.0
 10
45.670978
 20
256.019279
 30
0.0
 10
45.963185
 20
255.892708
 30
0.0
 10
46.569475
 20
255.698945
 30
0.0
 10
47.133572
 20
255.578625
 30
0.0
 10
47.133572
 20
255.578625
 30
0.0
 10
47.705484
 20
255.484868
 30
0.0
 10
47.239829
 20
253.470679
 30
0.0
 10
47.022628
 20
252.461241
 30
0.0
 10
47.022628
 20
252.461241
 30
0.0
 10
46.827302
 20
251.447112
 30
0.0
 10
46.646042
 20
250.220473
 30
0.0
 10
46.497593
 20
248.989146
 30
0.0
 10
46.497593
 20
248.989146
 30
0.0
 10
46.375712
 20
247.754692
 30
0.0
 10
46.286643
 20
246.518677
 30
0.0
 10
46.281958
 20
246.213970
 30
0.0
 10
46.325711
 20
245.468613
 30
0.0
 10
46.325711
 20
245.468613
 30
0.0
 10
46.392902
 20
244.726377
 30
0.0
 10
46.561663
 20
243.241908
 30
0.0
 10
46.753862
 20
241.762126
 30
0.0
 10
46.753862
 20
241.762126
 30
0.0
 10
46.969502
 20
240.283908
 30
0.0
 10
47.369527
 20
237.779062
 30
0.0
 10
47.688297
 20
235.772682
 30
0.0
 10
47.986752
 20
233.763181
 30
0.0
 10
47.986752
 20
233.763181
 30
0.0
 10
48.386780
 20
230.573914
 30
0.0
 10
48.583667
 20
228.908185
 30
0.0
 10
48.763366
 20
227.381524
 30
0.0
 10
46.858558
 20
227.069005
 30
0.0
 10
46.858558
 20
227.069005
 30
0.0
 10
44.952186
 20
226.775237
 30
0.0
 10
42.683289
 20
226.479906
 30
0.0
 10
41.545716
 20
226.356459
 30
0.0
 10
41.545716
 20
226.356459
 30
0.0
 10
40.406582
 20
226.258017
 30
0.0
 10
38.731475
 20
226.176762
 30
0.0
 10
37.056370
 20
226.131446
 30
0.0
 10
37.056370
 20
226.131446
 30
0.0
 10
33.701468
 20
226.093944
 30
0.0
 10
31.707590
 20
226.087679
 30
0.0
 10
31.707847
 20
226.087679
 30
0.0
  0
LWPOLYLINE
  5
101
100
AcDbEntity
  8
Layer_1
 62
7
100
AcDbPolyline
 90
179
 70
0
 10
72.648123
 20
228.295709
 30
0.0
 10
71.565242
 20
228.297403
 30
0.0
 10
68.921325
 20
228.280215
 30
0.0
 10
68.921325
 20
228.280215
 30
0.0
 10
66.557113
 20
228.220836
 30
0.0
 10
64.192901
 20
228.136454
 30
0.0
 10
58.751936
 20
227.861437
 30
0.0
 10
58.751936
 20
227.861437
 30
0.0
 10
55.597044
 20
227.644236
 30
0.0
 10
55.720491
 20
229.199024
 30
0.0
 10
55.815809
 20
230.413163
 30
0.0
 10
56.056448
 20
233.180524
 30
0.0
 10
56.056448
 20
233.180524
 30
0.0
 10
56.265837
 20
235.121274
 30
0.0
 10
56.514292
 20
237.058890
 30
0.0
 10
56.693988
 20
238.177712
 30
0.0
 10
56.995571
 20
240.002829
 30
0.0
 10
56.995571
 20
240.002829
 30
0.0
 10
57.259649
 20
241.831067
 30
0.0
 10
57.394035
 20
243.035832
 30
0.0
 10
57.501852
 20
244.240593
 30
0.0
 10
57.501852
 20
244.240593
 30
0.0
 10
57.586234
 20
245.448485
 30
0.0
 10
57.626862
 20
246.657934
 30
0.0
 10
57.615912
 20
246.909512
 30
0.0
 10
57.428401
 20
249.140905
 30
0.0
 10
57.428401
 20
249.140905
 30
0.0
 10
57.209636
 20
251.369171
 30
0.0
 10
56.722106
 20
256.006960
 30
0.0
 10
57.398711
 20
256.016330
 30
0.0
 10
57.398711
 20
256.016330
 30
0.0
 10
57.736232
 20
256.035069
 30
0.0
 10
58.069065
 20
256.077261
 30
0.0
 10
58.365960
 20
256.147577
 30
0.0
 10
58.365960
 20
256.147577
 30
0.0
 10
58.653480
 20
256.246022
 30
0.0
 10
58.931624
 20
256.366342
 30
0.0
 10
59.192578
 20
256.517915
 30
0.0
 10
59.192578
 20
256.517915
 30
0.0
 10
59.419154
 20
256.700738
 30
0.0
 10
59.623856
 20
256.908564
 30
0.0
 10
59.811367
 20
257.133577
 30
0.0
 10
59.811367
 20
257.133577
 30
0.0
 10
59.978564
 20
257.374216
 30
0.0
 10
60.203580
 20
257.792995
 30
0.0
 10
60.389527
 20
258.233648
 30
0.0
 10
60.567663
 20
258.689925
 30
0.0
 10
60.567663
 20
258.689925
 30
0.0
 10
60.652045
 20
259.021198
 30
0.0
 10
60.716112
 20
259.357155
 30
0.0
 10
60.809866
 20
260.033763
 30
0.0
 10
60.809866
 20
260.033763
 30
0.0
 10
60.859870
 20
260.904131
 30
0.0
 10
60.859870
 20
261.776059
 30
0.0
 10
60.836418
 20
262.858940
 30
0.0
 10
60.836418
 20
262.858940
 30
0.0
 10
60.756724
 20
263.940260
 30
0.0
 10
60.636404
 20
264.812189
 30
0.0
 10
60.487958
 20
265.679432
 30
0.0
 10
60.487958
 20
265.679432
 30
0.0
 10
60.319198
 20
266.543549
 30
0.0
 10
60.126999
 20
267.404541
 30
0.0
 10
59.667594
 20
269.098400
 30
0.0
 10
59.667594
 20
269.098400
 30
0.0
 10
67.230569
 20
272.207966
 30
0.0
 10
67.389954
 20
271.284470
 30
0.0
 10
67.591528
 20
270.370350
 30
0.0
 10
67.591528
 20
270.370350
 30
0.0
 10
67.716535
 20
269.964080
 30
0.0
 10
67.863421
 20
269.564055
 30
0.0
 10
68.029054
 20
269.173406
 30
0.0
 10
68.029054
 20
269.173406
 30
0.0
 10
68.221256
 20
268.795256
 30
0.0
 10
68.371266
 20
268.554616
 30
0.0
 10
68.536899
 20
268.323349
 30
0.0
 10
68.536899
 20
268.323349
 30
0.0
 10
68.907237
 20
267.892074
 30
0.0
 10
69.157252
 20
267.657683
 30
0.0
 10
69.426020
 20
267.445170
 30
0.0
 10
69.426020
 20
267.445170
 30
0.0
 10
69.865110
 20
267.121712
 30
0.0
 10
70.330766
 20
266.835756
 30
0.0
 10
70.647972
 20
266.706061
 30
0.0
 10
70.647972
 20
266.706061
 30
0.0
 10
70.972993
 20
266.591989
 30
0.0
 10
71.254262
 20
266.507610
 30
0.0
 10
71.694912
 20
266.420105
 30
0.0
 10
72.138692
 20
266.354477
 30
0.0
 10
72.138692
 20
266.354477
 30
0.0
 10
72.648098
 20
266.313848
 30
0.0
 10
73.157506
 20
266.354477
 30
0.0
 10
73.601284
 20
266.420105
 30
0.0
 10
74.041937
 20
266.507610
 30
0.0
 10
74.041937
 20
266.507610
 30
0.0
 10
74.321642
 20
266.591989
 30
0.0
 10
74.648227
 20
266.706061
 30
0.0
 10
74.965433
 20
266.837319
 30
0.0
 10
75.429525
 20
267.121712
 30
0.0
 10
75.429525
 20
267.121712
 30
0.0
 10
75.870178
 20
267.445170
 30
0.0
 10
76.138947
 20
267.657683
 30
0.0
 10
76.388962
 20
267.892074
 30
0.0
 10
76.388962
 20
267.892074
 30
0.0
 10
76.759297
 20
268.323349
 30
0.0
 10
76.924933
 20
268.554616
 30
0.0
 10
77.074943
 20
268.795256
 30
0.0
 10
77.074943
 20
268.795256
 30
0.0
 10
77.267141
 20
269.173406
 30
0.0
 10
77.432778
 20
269.564055
 30
0.0
 10
77.579663
 20
269.964080
 30
0.0
 10
77.579663
 20
269.964080
 30
0.0
 10
77.704671
 20
270.370350
 30
0.0
 10
77.904681
 20
271.284470
 30
0.0
 10
78.064066
 20
272.207966
 30
0.0
 10
78.064066
 20
272.207966
 30
0.0
 10
85.627038
 20
269.098400
 30
0.0
 10
85.167634
 20
267.404541
 30
0.0
 10
84.975435
 20
266.543549
 30
0.0
 10
84.975435
 20
266.543549
 30
0.0
 10
84.806674
 20
265.679432
 30
0.0
 10
84.658228
 20
264.812189
 30
0.0
 10
84.537908
 20
263.940260
 30
0.0
 10
84.537908
 20
263.940260
 30
0.0
 10
84.458215
 20
262.858940
 30
0.0
 10
84.434762
 20
261.776059
 30
0.0
 10
84.436455
 20
260.904131
 30
0.0
 10
84.436455
 20
260.904131
 30
0.0
 10
84.486456
 20
260.033763
 30
0.0
 10
84.578650
 20
259.357155
 30
0.0
 10
84.644281
 20
259.021198
 30
0.0
 10
84.644281
 20
259.021198
 30
0.0
 10
84.728660
 20
258.689925
 30
0.0
 10
84.905235
 20
258.233648
 30
0.0
 10
85.092746
 20
257.792995
 30
0.0
 10
85.092746
 20
257.792995
 30
0.0
 10
85.316198
 20
257.374216
 30
0.0
 10
85.484959
 20
257.133577
 30
0.0
 10
85.672470
 20
256.908564
 30
0.0
 10
85.877171
 20
256.700738
 30
0.0
 10
85.877171
 20
256.700738
 30
0.0
 10
86.103748
 20
256.517915
 30
0.0
 10
86.364702
 20
256.366342
 30
0.0
 10
86.642846
 20
256.246022
 30
0.0
 10
86.642846
 20
256.246022
 30
0.0
 10
86.930363
 20
256.147577
 30
0.0
 10
87.225694
 20
256.077261
 30
0.0
 10
87.560091
 20
256.035069
 30
0.0
 10
87.560091
 20
256.035069
 30
0.0
 10
87.896048
 20
256.016330
 30
0.0
 10
88.574217
 20
256.006960
 30
0.0
 10
88.085123
 20
251.369171
 30
0.0
 10
88.085123
 20
251.369171
 30
0.0
 10
87.866358
 20
249.140905
 30
0.0
 10
87.680411
 20
246.909512
 30
0.0
 10
87.667908
 20
246.657934
 30
0.0
 10
87.708537
 20
245.448485
 30
0.0
 10
87.708537
 20
245.448485
 30
0.0
 10
87.792918
 20
244.240593
 30
0.0
 10
87.900736
 20
243.035832
 30
0.0
 10
88.036682
 20
241.831067
 30
0.0
 10
88.036682
 20
241.831067
 30
0.0
 10
88.300763
 20
240.002829
 30
0.0
 10
88.602343
 20
238.177712
 30
0.0
 10
88.782042
 20
237.058890
 30
0.0
 10
89.028933
 20
235.121274
 30
0.0
 10
89.028933
 20
235.121274
 30
0.0
 10
89.239886
 20
233.180524
 30
0.0
 10
89.480525
 20
230.413163
 30
0.0
 10
89.575843
 20
229.199024
 30
0.0
 10
89.697727
 20
227.644236
 30
0.0
 10
89.697727
 20
227.644236
 30
0.0
 10
86.542838
 20
227.861437
 30
0.0
 10
81.103433
 20
228.136454
 30
0.0
 10
78.739227
 20
228.220836
 30
0.0
 10
78.739227
 20
228.220836
 30
0.0
 10
76.373451
 20
228.280215
 30
0.0
 10
73.729534
 20
228.297403
 30
0.0
 10
72.648214
 20
228.295709
 30
0.0
 10
72.648123
 20
228.295709
 30
0.0
  0
LWPOLYLINE
  5
102
100
AcDbEntity
  8
Layer_1
 62
7
100
AcDbPolyline
 90
103
 70
0
 10
129.532307
 20
246.652380
 30
0.0
 10
130.610500
 20
247.249291
 30
0.0
 10
131.691817
 20
247.825891
 30
0.0
 10
132.607502
 20
248.271232
 30
0.0
 10
132.607502
 20
248.271232
 30
0.0
 10
133.537249
 20
248.685319
 30
0.0
 10
134.407616
 20
249.033779
 30
0.0
 10
135.292047
 20
249.346301
 30
0.0
 10
135.292047
 20
249.346301
 30
0.0
 10
136.117099
 20
249.596316
 30
0.0
 10
136.951528
 20
249.808829
 30
0.0
 10
137.745329
 20
249.972902
 30
0.0
 10
137.745329
 20
249.972902
 30
0.0
 10
138.546942
 20
250.097909
 30
0.0
 10
139.904840
 20
250.193230
 30
0.0
 10
140.618947
 20
250.158852
 30
0.0
 10
140.618947
 20
250.158852
 30
0.0
 10
141.328369
 20
250.086970
 30
0.0
 10
141.812775
 20
249.993216
 30
0.0
 10
142.290930
 20
249.869769
 30
0.0
 10
142.290930
 20
249.869769
 30
0.0
 10
142.759709
 20
249.716636
 30
0.0
 10
143.215987
 20
249.530685
 30
0.0
 10
143.694142
 20
249.283797
 30
0.0
 10
143.694142
 20
249.283797
 30
0.0
 10
144.151985
 20
248.999402
 30
0.0
 10
144.580136
 20
248.679071
 30
0.0
 10
144.977036
 20
248.316545
 30
0.0
 10
144.977036
 20
248.316545
 30
0.0
 10
145.262992
 20
247.977464
 30
0.0
 10
145.514571
 20
247.610253
 30
0.0
 10
145.734899
 20
247.222728
 30
0.0
 10
145.734899
 20
247.222728
 30
0.0
 10
145.922410
 20
246.818013
 30
0.0
 10
146.153674
 20
246.214851
 30
0.0
 10
146.336498
 20
245.596061
 30
0.0
 10
146.336498
 20
245.596061
 30
0.0
 10
146.467757
 20
244.964773
 30
0.0
 10
146.509946
 20
244.646003
 30
0.0
 10
146.531818
 20
244.325669
 30
0.0
 10
146.531818
 20
244.325669
 30
0.0
 10
146.520868
 20
243.653752
 30
0.0
 10
146.469303
 20
242.983395
 30
0.0
 10
146.389609
 20
242.314604
 30
0.0
 10
146.389609
 20
242.314604
 30
0.0
 10
146.283353
 20
241.648935
 30
0.0
 10
146.017711
 20
240.320727
 30
0.0
 10
145.694253
 20
239.003458
 30
0.0
 10
145.694253
 20
239.003458
 30
0.0
 10
145.361420
 20
237.798693
 30
0.0
 10
145.003585
 20
236.600180
 30
0.0
 10
144.680127
 20
235.350102
 30
0.0
 10
144.680127
 20
235.350102
 30
0.0
 10
144.387920
 20
234.092209
 30
0.0
 10
144.033209
 20
232.092081
 30
0.0
 10
143.055024
 20
232.276468
 30
0.0
 10
143.055024
 20
232.276468
 30
0.0
 10
142.564366
 20
232.354598
 30
0.0
 10
142.070585
 20
232.409290
 30
0.0
 10
141.539301
 20
232.418660
 30
0.0
 10
141.539301
 20
232.418660
 30
0.0
 10
141.009582
 20
232.398340
 30
0.0
 10
139.950139
 20
232.298334
 30
0.0
 10
139.392290
 20
232.220204
 30
0.0
 10
139.392290
 20
232.220204
 30
0.0
 10
138.846944
 20
232.093633
 30
0.0
 10
138.359413
 20
231.909246
 30
0.0
 10
137.884383
 20
231.698296
 30
0.0
 10
137.884383
 20
231.698296
 30
0.0
 10
136.946823
 20
231.235765
 30
0.0
 10
135.571735
 20
230.546660
 30
0.0
 10
134.495105
 20
229.954434
 30
0.0
 10
134.495105
 20
229.954434
 30
0.0
 10
133.949756
 20
229.674729
 30
0.0
 10
133.388783
 20
229.429402
 30
0.0
 10
132.988758
 20
229.313770
 30
0.0
 10
132.988758
 20
229.313770
 30
0.0
 10
132.580919
 20
229.223137
 30
0.0
 10
131.757431
 20
229.066879
 30
0.0
 10
130.722991
 20
229.041874
 30
0.0
 10
129.461971
 20
229.013736
 30
0.0
 10
129.461971
 20
229.013736
 30
0.0
 10
129.990130
 20
231.252941
 30
0.0
 10
130.230770
 20
232.376451
 30
0.0
 10
130.432347
 20
233.507772
 30
0.0
 10
130.432347
 20
233.507772
 30
0.0
 10
130.533916
 20
234.314073
 30
0.0
 10
130.616734
 20
235.123497
 30
0.0
 10
130.732366
 20
236.747040
 30
0.0
 10
130.732366
 20
236.747040
 30
0.0
 10
130.793307
 20
238.372143
 30
0.0
 10
130.795000
 20
239.998804
 30
0.0
 10
130.755935
 20
241.033248
 30
0.0
 10
130.755935
 20
241.033248
 30
0.0
 10
130.682492
 20
242.066125
 30
0.0
 10
130.571548
 20
243.095877
 30
0.0
 10
130.427789
 20
244.120942
 30
0.0
 10
130.427789
 20
244.120942
 30
0.0
 10
130.359034
 20
244.470966
 30
0.0
 10
130.266841
 20
244.814738
 30
0.0
 10
129.916817
 20
245.739794
 30
0.0
 10
129.916817
 20
245.739794
 30
0.0
 10
129.532307
 20
246.652380
 30
0.0
  0
LWPOLYLINE
  5
103
100
AcDbEntity
  8
Layer_1
 62
7
100
AcDbPolyline
 90
17
 70
0
 10
151.324821
 20
229.434137
 30
0.0
 10
154.535962
 20
229.402884
 30
0.0
 10
154.831294
 20
244.291328
 30
0.0
 10
154.831294
 20
244.291328
 30
0.0
 10
154.982864
 20
251.112075
 30
0.0
 10
155.186002
 20
260.770498
 30
0.0
 10
155.211007
 20
262.001831
 30
0.0
 10
151.321697
 20
262.011201
 30
0.0
 10
151.321697
 20
262.011201
 30
0.0
 10
147.432387
 20
262.000251
 30
0.0
 10
147.458944
 20
260.770481
 30
0.0
 10
147.668333
 20
251.112058
 30
0.0
 10
147.819903
 20
244.291311
 30
0.0
 10
147.819903
 20
244.291311
 30
0.0
 10
148.113674
 20
229.402867
 30
0.0
 10
151.324815
 20
229.434120
 30
0.0
 10
151.324821
 20
229.434137
 30
0.0
  0
LWPOLYLINE
  5
104
100
AcDbEntity
  8
Layer_1
 62
7
100
AcDbPolyline
 90
95
 70
0
 10
96.751129
 20
261.157713
 30
0.0
 10
97.382420
 20
259.556048
 30
0.0
 10
97.991834
 20
257.946571
 30
0.0
 10
97.991834
 20
257.946571
 30
0.0
 10
98.554368
 20
256.301154
 30
0.0
 10
99.093466
 20
254.649488
 30
0.0
 10
100.154469
 20
251.336775
 30
0.0
 10
100.154469
 20
251.336775
 30
0.0
 10
100.407611
 20
250.396091
 30
0.0
 10
100.832638
 20
248.806929
 30
0.0
 10
101.227975
 20
247.211513
 30
0.0
 10
101.535809
 20
245.711420
 30
0.0
 10
101.535809
 20
245.711420
 30
0.0
 10
101.820201
 20
244.208197
 30
0.0
 10
102.362423
 20
241.193948
 30
0.0
 10
102.582749
 20
239.784482
 30
0.0
 10
104.259420
 20
229.024424
 30
0.0
 10
104.326611
 20
227.485263
 30
0.0
 10
104.326611
 20
227.485263
 30
0.0
 10
106.356427
 20
227.679026
 30
0.0
 10
107.390867
 20
227.771219
 30
0.0
 10
108.426871
 20
227.844662
 30
0.0
 10
108.426871
 20
227.844662
 30
0.0
 10
109.792584
 20
227.880603
 30
0.0
 10
111.159857
 20
227.885288
 30
0.0
 10
112.327117
 20
227.886981
 30
0.0
 10
112.327117
 20
227.886981
 30
0.0
 10
113.492816
 20
227.860424
 30
0.0
 10
114.619450
 20
227.786981
 30
0.0
 10
115.746087
 20
227.693224
 30
0.0
 10
115.746087
 20
227.693224
 30
0.0
 10
117.994667
 20
227.486962
 30
0.0
 10
118.050920
 20
229.026123
 30
0.0
 10
119.729151
 20
239.784618
 30
0.0
 10
119.947916
 20
241.192520
 30
0.0
 10
120.491699
 20
244.206772
 30
0.0
 10
120.491699
 20
244.206772
 30
0.0
 10
120.774531
 20
245.711555
 30
0.0
 10
121.082362
 20
247.211648
 30
0.0
 10
121.477699
 20
248.807064
 30
0.0
 10
121.477699
 20
248.807064
 30
0.0
 10
121.902728
 20
250.394663
 30
0.0
 10
122.157431
 20
251.335349
 30
0.0
 10
123.216873
 20
254.648060
 30
0.0
 10
123.757532
 20
256.299726
 30
0.0
 10
123.757532
 20
256.299726
 30
0.0
 10
124.318505
 20
257.945143
 30
0.0
 10
124.932607
 20
259.568683
 30
0.0
 10
125.568586
 20
261.182850
 30
0.0
 10
125.568586
 20
261.182850
 30
0.0
 10
124.795099
 20
261.384425
 30
0.0
 10
124.034113
 20
261.617252
 30
0.0
 10
123.409072
 20
261.903209
 30
0.0
 10
123.409072
 20
261.903209
 30
0.0
 10
122.796534
 20
262.217291
 30
0.0
 10
121.921479
 20
262.790764
 30
0.0
 10
121.296438
 20
263.328298
 30
0.0
 10
119.622895
 20
265.134661
 30
0.0
 10
119.622895
 20
265.134661
 30
0.0
 10
118.916600
 20
265.794079
 30
0.0
 10
118.180615
 20
266.419120
 30
0.0
 10
117.421192
 20
267.012907
 30
0.0
 10
117.421192
 20
267.012907
 30
0.0
 10
116.630518
 20
267.561380
 30
0.0
 10
116.105483
 20
267.866087
 30
0.0
 10
115.561700
 20
268.137977
 30
0.0
 10
115.561700
 20
268.137977
 30
0.0
 10
115.005414
 20
268.384868
 30
0.0
 10
114.436627
 20
268.602072
 30
0.0
 10
113.831901
 20
268.784895
 30
0.0
 10
113.831901
 20
268.784895
 30
0.0
 10
113.219363
 20
268.945841
 30
0.0
 10
111.984909
 20
269.233361
 30
0.0
 10
111.098914
 20
269.167730
 30
0.0
 10
110.405122
 20
269.080227
 30
0.0
 10
110.405122
 20
269.080227
 30
0.0
 10
109.716014
 20
268.964592
 30
0.0
 10
109.033160
 20
268.825521
 30
0.0
 10
108.361243
 20
268.645822
 30
0.0
 10
108.361243
 20
268.645822
 30
0.0
 10
107.848708
 20
268.447372
 30
0.0
 10
107.348678
 20
268.222359
 30
0.0
 10
106.359551
 20
267.737953
 30
0.0
 10
105.795453
 20
267.417619
 30
0.0
 10
105.795453
 20
267.417619
 30
0.0
 10
105.082907
 20
266.909774
 30
0.0
 10
104.393802
 20
266.372240
 30
0.0
 10
103.042153
 20
265.258108
 30
0.0
 10
103.042153
 20
265.258108
 30
0.0
 10
101.629563
 20
264.045532
 30
0.0
 10
100.231039
 20
262.815766
 30
0.0
 10
99.199723
 20
262.121970
 30
0.0
 10
97.898077
 20
261.540686
 30
0.0
 10
97.898077
 20
261.540686
 30
0.0
 10
96.751129
 20
261.157713
 30
0.0
  0
LWPOLYLINE
  5
105
100
AcDbEntity
  8
Layer_1
 62
7
100
AcDbPolyline
 90
103
 70
0
 10
173.547380
 20
245.522294
 30
0.0
 10
172.469186
 20
246.119205
 30
0.0
 10
171.387869
 20
246.695805
 30
0.0
 10
170.472185
 20
247.141146
 30
0.0
 10
170.472185
 20
247.141146
 30
0.0
 10
169.542437
 20
247.555234
 30
0.0
 10
168.672070
 20
247.903694
 30
0.0
 10
167.787639
 20
248.216215
 30
0.0
 10
167.787639
 20
248.216215
 30
0.0
 10
166.962588
 20
248.466230
 30
0.0
 10
166.128158
 20
248.678744
 30
0.0
 10
165.334357
 20
248.842816
 30
0.0
 10
165.334357
 20
248.842816
 30
0.0
 10
164.532745
 20
248.967824
 30
0.0
 10
163.174847
 20
249.063144
 30
0.0
 10
162.460740
 20
249.028767
 30
0.0
 10
162.460740
 20
249.028767
 30
0.0
 10
161.751318
 20
248.956885
 30
0.0
 10
161.266911
 20
248.863131
 30
0.0
 10
160.788756
 20
248.739684
 30
0.0
 10
160.788756
 20
248.739684
 30
0.0
 10
160.319977
 20
248.586550
 30
0.0
 10
159.863700
 20
248.400600
 30
0.0
 10
159.385545
 20
248.153712
 30
0.0
 10
159.385545
 20
248.153712
 30
0.0
 10
158.927701
 20
247.869316
 30
0.0
 10
158.499550
 20
247.548986
 30
0.0
 10
158.102650
 20
247.186463
 30
0.0
 10
158.102650
 20
247.186463
 30
0.0
 10
157.816694
 20
246.847378
 30
0.0
 10
157.565115
 20
246.480168
 30
0.0
 10
157.344787
 20
246.092643
 30
0.0
 10
157.344787
 20
246.092643
 30
0.0
 10
157.157276
 20
245.687928
 30
0.0
 10
156.926012
 20
245.084765
 30
0.0
 10
156.743188
 20
244.465976
 30
0.0
 10
156.743188
 20
244.465976
 30
0.0
 10
156.611930
 20
243.834687
 30
0.0
 10
156.569740
 20
243.515917
 30
0.0
 10
156.547868
 20
243.195584
 30
0.0
 10
156.547868
 20
243.195584
 30
0.0
 10
156.558818
 20
242.523666
 30
0.0
 10
156.610383
 20
241.853309
 30
0.0
 10
156.690077
 20
241.184519
 30
0.0
 10
156.690077
 20
241.184519
 30
0.0
 10
156.796334
 20
240.518850
 30
0.0
 10
157.061975
 20
239.190644
 30
0.0
 10
157.385433
 20
237.873372
 30
0.0
 10
157.385433
 20
237.873372
 30
0.0
 10
157.718266
 20
236.668608
 30
0.0
 10
158.076101
 20
235.470095
 30
0.0
 10
158.399559
 20
234.220017
 30
0.0
 10
158.399559
 20
234.220017
 30
0.0
 10
158.691766
 20
232.962124
 30
0.0
 10
159.046477
 20
230.961995
 30
0.0
 10
160.024662
 20
231.146382
 30
0.0
 10
160.024662
 20
231.146382
 30
0.0
 10
160.515320
 20
231.224513
 30
0.0
 10
161.009101
 20
231.279205
 30
0.0
 10
161.540385
 20
231.288574
 30
0.0
 10
161.540385
 20
231.288574
 30
0.0
 10
162.070105
 20
231.268254
 30
0.0
 10
163.129547
 20
231.168249
 30
0.0
 10
163.687396
 20
231.090119
 30
0.0
 10
163.687396
 20
231.090119
 30
0.0
 10
164.232742
 20
230.963548
 30
0.0
 10
164.720273
 20
230.779160
 30
0.0
 10
165.195304
 20
230.568211
 30
0.0
 10
165.195304
 20
230.568211
 30
0.0
 10
166.132863
 20
230.105679
 30
0.0
 10
167.507951
 20
229.416575
 30
0.0
 10
168.584581
 20
228.824348
 30
0.0
 10
168.584581
 20
228.824348
 30
0.0
 10
169.129930
 20
228.544643
 30
0.0
 10
169.690903
 20
228.299316
 30
0.0
 10
170.090928
 20
228.183684
 30
0.0
 10
170.090928
 20
228.183684
 30
0.0
 10
170.498764
 20
228.093054
 30
0.0
 10
171.322255
 20
227.936793
 30
0.0
 10
172.356695
 20
227.911788
 30
0.0
 10
173.617715
 20
227.883651
 30
0.0
 10
173.617715
 20
227.883651
 30
0.0
 10
173.089556
 20
230.122856
 30
0.0
 10
172.848916
 20
231.246365
 30
0.0
 10
172.647339
 20
232.377687
 30
0.0
 10
172.647339
 20
232.377687
 30
0.0
 10
172.545770
 20
233.183987
 30
0.0
 10
172.462952
 20
233.993415
 30
0.0
 10
172.347320
 20
235.616955
 30
0.0
 10
172.347320
 20
235.616955
 30
0.0
 10
172.286380
 20
237.242058
 30
0.0
 10
172.284686
 20
238.868725
 30
0.0
 10
172.323752
 20
239.903162
 30
0.0
 10
172.323752
 20
239.903162
 30
0.0
 10
172.397194
 20
240.936039
 30
0.0
 10
172.508139
 20
241.965792
 30
0.0
 10
172.651897
 20
242.990857
 30
0.0
 10
172.651897
 20
242.990857
 30
0.0
 10
172.720652
 20
243.340880
 30
0.0
 10
172.812845
 20
243.684652
 30
0.0
 10
173.162869
 20
244.609709
 30
0.0
 10
173.162869
 20
244.609709
 30
0.0
 10
173.547380
 20
245.522294
 30
0.0
  0
ENDSEC
  0
SECTION
  2
OBJECTS
  0
DICTIONARY
  5
C
330
0
100
AcDbDictionary
  3
ACAD_GROUP
350
D
  3
ACAD_MLINESTYLE
350
17
  0
DICTIONARY
  5
D
330
C
100
AcDbDictionary
  0
DICTIONARY
  5
1A
330
C
100
AcDbDictionary
  0
DICTIONARY
  5
17
330
C
100
AcDbDictionary
  3
STANDARD
350
18
  0
DICTIONARY
  5
19
330
C
100
AcDbDictionary
  0
ENDSEC
  0
EOF
