  0
SECTION
  2
HEADER
  9
$ACADVER
  1
AC1014
  9
$HANDSEED
  5
FFFF
  9
$MEASUREMENT
 70
     1
  0
ENDSEC
  0
SECTION
  2
TABLES
  0
TABLE
  2
VPORT
  5
8
330
0
100
AcDbSymbolTable
 70
     4
  0
VPORT
  5
2E
330
8
100
AcDbSymbolTableRecord
100
AcDbViewportTableRecord
  2
*ACTIVE
 70
     0
 10
0.0
 20
0.0
 11
1.0
 21
1.0
 12
210.0
 22
148.5
 13
0.0
 23
0.0
 14
10.0
 24
10.0
 15
10.0
 25
10.0
 16
0.0
 26
0.0
 36
1.0
 17
0.0
 27
0.0
 37
0.0
 40
341.0
 41
1.24
 42
50.0
 43
0.0
 44
0.0
 50
0.0
 51
0.0
 71
     0
 72
   100
 73
     1
 74
     3
 75
     0
 76
     0
 77
     0
 78
     0
  0
ENDTAB
  0
TABLE
  2
LTYPE
  5
5
330
0
100
AcDbSymbolTable
 70
     1
  0
LTYPE
  5
14
330
5
100
AcDbSymbolTableRecord
100
AcDbLinetypeTableRecord
  2
BYBLOCK
 70
     0
  3

 72
    65
 73
     0
 40
0.0
  0
LTYPE
  5
15
330
5
100
AcDbSymbolTableRecord
100
AcDbLinetypeTableRecord
  2
BYLAYER
 70
     0
  3

 72
    65
 73
     0
 40
0.0
  0
LTYPE
  5
16
330
5
100
AcDbSymbolTableRecord
100
AcDbLinetypeTableRecord
  2
CONTINUOUS
 70
     0
  3
Solid line
 72
    65
 73
     0
 40
0.0
  0
ENDTAB
  0
TABLE
  2
LAYER
  5
2
100
AcDbSymbolTable
 70
2
  0
LAYER
  5
50
100
AcDbSymbolTableRecord
100
AcDbLayerTableRecord
  2
0
 70
0
  6
CONTINUOUS
  0
LAYER
  5
51
100
AcDbSymbolTableRecord
100
AcDbLayerTableRecord
  2
Layer_1
 70
0
  6
CONTINUOUS
  0
ENDTAB
  0
TABLE
  2
STYLE
  5
3
330
0
100
AcDbSymbolTable
 70
     1
  0
STYLE
  5
11
330
3
100
AcDbSymbolTableRecord
100
AcDbTextStyleTableRecord
  2
STANDARD
 70
     0
 40
0.0
 41
1.0
 50
0.0
 71
     0
 42
2.5
  3
txt
  4

  0
ENDTAB
  0
TABLE
  2
VIEW
  5
6
330
0
100
AcDbSymbolTable
 70
     0
  0
ENDTAB
  0
TABLE
  2
UCS
  5
7
330
0
100
AcDbSymbolTable
 70
     0
  0
ENDTAB
  0
TABLE
  2
APPID
  5
9
330
0
100
AcDbSymbolTable
 70
     2
  0
APPID
  5
12
330
9
100
AcDbSymbolTableRecord
100
AcDbRegAppTableRecord
  2
ACAD
 70
     0
  0
ENDTAB
  0
TABLE
  2
DIMSTYLE
  5
A
330
0
100
AcDbSymbolTable
 70
     1
  0
DIMSTYLE
105
27
330
A
100
AcDbSymbolTableRecord
100
AcDbDimStyleTableRecord
  2
ISO-25
 70
     0
  3

  4

  5

  6

  7

 40
1.0
 41
2.5
 42
0.625
 43
3.75
 44
1.25
 45
0.0
 46
0.0
 47
0.0
 48
0.0
140
2.5
141
2.5
142
0.0
143
0.03937007874016
144
1.0
145
0.0
146
1.0
147
0.625
 71
     0
 72
     0
 73
     0
 74
     0
 75
     0
 76
     0
 77
     1
 78
     8
170
     0
171
     3
172
     1
173
     0
174
     0
175
     0
176
     0
177
     0
178
     0
270
     2
271
     2
272
     2
273
     2
274
     3
340
11
275
     0
280
     0
281
     0
282
     0
283
     0
284
     8
285
     0
286
     0
287
     3
288
     0
  0
ENDTAB
  0
TABLE
  2
BLOCK_RECORD
  5
1
330
0
100
AcDbSymbolTable
 70
     1
  0
BLOCK_RECORD
  5
1F
330
1
100
AcDbSymbolTableRecord
100
AcDbBlockTableRecord
  2
*MODEL_SPACE
  0
BLOCK_RECORD
  5
1B
330
1
100
AcDbSymbolTableRecord
100
AcDbBlockTableRecord
  2
*PAPER_SPACE
  0
ENDTAB
  0
ENDSEC
  0
SECTION
  2
BLOCKS
  0
BLOCK
  5
20
330
1F
100
AcDbEntity
  8
0
100
AcDbBlockBegin
  2
*MODEL_SPACE
 70
     0
 10
0.0
 20
0.0
 30
0.0
  3
*MODEL_SPACE
  1

  0
ENDBLK
  5
21
330
1F
100
AcDbEntity
  8
0
100
AcDbBlockEnd
  0
BLOCK
  5
1C
330
1B
100
AcDbEntity
 67
     1
  8
0
100
AcDbBlockBegin
  2
*PAPER_SPACE
  1

  0
ENDBLK
  5
1D
330
1B
100
AcDbEntity
 67
     1
  8
0
100
AcDbBlockEnd
  0
ENDSEC
  0
SECTION
  2
ENTITIES
  0
LWPOLYLINE
  5
100
100
AcDbEntity
  8
Layer_1
 62
1
100
AcDbPolyline
 90
65
 70
0
 10
34.515041
 20
266.426810
 30
0.0
 10
38.258406
 20
266.951842
 30
0.0
 10
41.214683
 20
267.531408
 30
0.0
 10
41.214683
 20
267.531408
 30
0.0
 10
43.570771
 20
268.120821
 30
0.0
 10
46.833324
 20
269.085259
 30
0.0
 10
49.842262
 20
269.782960
 30
0.0
 10
49.842262
 20
269.782960
 30
0.0
 10
53.082938
 20
270.403624
 30
0.0
 10
54.042996
 20
264.554655
 30
0.0
 10
54.246139
 20
263.460996
 30
0.0
 10
54.246139
 20
263.460996
 30
0.0
 10
54.496310
 20
262.060593
 30
0.0
 10
55.007434
 20
259.422458
 30
0.0
 10
55.625441
 20
257.112938
 30
0.0
 10
55.625441
 20
257.112938
 30
0.0
 10
56.115317
 20
256.094121
 30
0.0
 10
57.056469
 20
254.673251
 30
0.0
 10
59.395687
 20
251.772907
 30
0.0
 10
59.395687
 20
251.772907
 30
0.0
 10
57.509469
 20
249.090238
 30
0.0
 10
55.724981
 20
246.145520
 30
0.0
 10
54.284730
 20
243.310030
 30
0.0
 10
54.284730
 20
243.310030
 30
0.0
 10
53.797674
 20
242.144639
 30
0.0
 10
52.988557
 20
239.783864
 30
0.0
 10
51.395178
 20
231.583344
 30
0.0
 10
51.395178
 20
231.583344
 30
0.0
 10
50.933584
 20
228.304856
 30
0.0
 10
50.743259
 20
226.718973
 30
0.0
 10
50.066970
 20
220.743906
 30
0.0
 10
50.066970
 20
220.743906
 30
0.0
 10
49.856638
 20
218.723000
 30
0.0
 10
48.876890
 20
209.904001
 30
0.0
 10
49.048154
 20
208.366872
 30
0.0
 10
49.048154
 20
208.366872
 30
0.0
 10
33.641707
 20
208.365743
 30
0.0
 10
33.739836
 20
209.902567
 30
0.0
 10
33.739678
 20
209.903696
 30
0.0
 10
33.739678
 20
209.903696
 30
0.0
 10
33.166202
 20
218.876455
 30
0.0
 10
33.044480
 20
220.813298
 30
0.0
 10
32.615700
 20
226.836643
 30
0.0
 10
32.615700
 20
226.836643
 30
0.0
 10
32.477879
 20
228.597385
 30
0.0
 10
32.176765
 20
231.730083
 30
0.0
 10
31.052635
 20
239.701054
 30
0.0
 10
31.052635
 20
239.701054
 30
0.0
 10
30.334153
 20
242.474669
 30
0.0
 10
29.697231
 20
244.496673
 30
0.0
 10
27.578193
 20
250.244228
 30
0.0
 10
27.578193
 20
250.244228
 30
0.0
 10
26.618760
 20
252.774855
 30
0.0
 10
25.917466
 20
254.624813
 30
0.0
 10
26.854712
 20
254.943115
 30
0.0
 10
26.854712
 20
254.943115
 30
0.0
 10
27.606633
 20
255.355328
 30
0.0
 10
28.115414
 20
255.853645
 30
0.0
 10
28.680142
 20
256.812766
 30
0.0
 10
28.680142
 20
256.812766
 30
0.0
 10
29.138917
 20
259.406682
 30
0.0
 10
29.837245
 20
266.209618
 30
0.0
 10
31.700018
 20
266.255086
 30
0.0
 10
31.700018
 20
266.255086
 30
0.0
 10
34.515041
 20
266.426810
 30
0.0
  0
LWPOLYLINE
  5
101
100
AcDbEntity
  8
Layer_1
 62
7
100
AcDbPolyline
 90
82
 70
0
 10
23.060774
 20
172.066188
 30
0.0
 10
23.742067
 20
172.186528
 30
0.0
 10
24.074900
 20
172.264647
 30
0.0
 10
24.074900
 20
172.264647
 30
0.0
 10
24.399921
 20
172.370904
 30
0.0
 10
24.678065
 20
172.506850
 30
0.0
 10
24.937456
 20
172.672486
 30
0.0
 10
24.937456
 20
172.672486
 30
0.0
 10
25.179659
 20
172.863128
 30
0.0
 10
25.393736
 20
173.081878
 30
0.0
 10
25.637499
 20
173.436603
 30
0.0
 10
25.637499
 20
173.436603
 30
0.0
 10
25.835950
 20
173.819438
 30
0.0
 10
26.001586
 20
174.222586
 30
0.0
 10
26.132844
 20
174.636677
 30
0.0
 10
26.132844
 20
174.636677
 30
0.0
 10
26.296917
 20
175.374222
 30
0.0
 10
26.420361
 20
176.121146
 30
0.0
 10
26.601624
 20
177.627490
 30
0.0
 10
27.423551
 20
191.526810
 30
0.0
 10
27.570436
 20
194.005094
 30
0.0
 10
27.570436
 20
194.005094
 30
0.0
 10
42.157297
 20
195.048910
 30
0.0
 10
57.095748
 20
196.122416
 30
0.0
 10
57.275445
 20
193.664446
 30
0.0
 10
58.003618
 20
183.737254
 30
0.0
 10
58.319264
 20
178.890071
 30
0.0
 10
58.319264
 20
178.890071
 30
0.0
 10
58.420833
 20
177.675931
 30
0.0
 10
58.566154
 20
176.468042
 30
0.0
 10
58.641158
 20
176.016450
 30
0.0
 10
58.736476
 20
175.567985
 30
0.0
 10
58.736476
 20
175.567985
 30
0.0
 10
58.859922
 20
175.130459
 30
0.0
 10
59.017744
 20
174.702305
 30
0.0
 10
59.228696
 20
174.286654
 30
0.0
 10
59.228696
 20
174.286654
 30
0.0
 10
59.478712
 20
173.892880
 30
0.0
 10
59.764668
 20
173.527225
 30
0.0
 10
60.091249
 20
173.197533
 30
0.0
 10
60.091249
 20
173.197533
 30
0.0
 10
60.430334
 20
172.942827
 30
0.0
 10
60.797544
 20
172.728733
 30
0.0
 10
61.186633
 20
172.549042
 30
0.0
 10
61.186633
 20
172.549042
 30
0.0
 10
61.591345
 20
172.414648
 30
0.0
 10
61.958556
 20
172.336529
 30
0.0
 10
62.330454
 20
172.280282
 30
0.0
 10
62.330454
 20
172.280282
 30
0.0
 10
63.080502
 20
172.205268
 30
0.0
 10
64.597785
 20
172.138070
 30
0.0
 10
64.130569
 20
170.428594
 30
0.0
 10
64.130569
 20
170.428594
 30
0.0
 10
63.908680
 20
169.570723
 30
0.0
 10
63.705542
 20
168.708167
 30
0.0
 10
63.493029
 20
167.600304
 30
0.0
 10
63.493029
 20
167.600304
 30
0.0
 10
63.311766
 20
166.486147
 30
0.0
 10
63.153945
 20
165.368914
 30
0.0
 10
63.025810
 20
164.246968
 30
0.0
 10
63.025810
 20
164.246968
 30
0.0
 10
62.947683
 20
163.271890
 30
0.0
 10
62.891427
 20
162.293708
 30
0.0
 10
62.802361
 20
160.335763
 30
0.0
 10
62.905490
 20
158.796608
 30
0.0
 10
62.905490
 20
158.796608
 30
0.0
 10
24.620249
 20
158.796608
 30
0.0
 10
24.642121
 20
159.066948
 30
0.0
 10
24.721815
 20
160.335763
 30
0.0
 10
24.659311
 20
161.810854
 30
0.0
 10
24.659311
 20
161.810854
 30
0.0
 10
24.570242
 20
163.282840
 30
0.0
 10
24.449922
 20
164.651674
 30
0.0
 10
24.299913
 20
166.015824
 30
0.0
 10
24.299913
 20
166.015824
 30
0.0
 10
24.121777
 20
167.376840
 30
0.0
 10
23.899888
 20
168.730040
 30
0.0
 10
23.713938
 20
169.569171
 30
0.0
 10
23.713938
 20
169.569171
 30
0.0
 10
23.506112
 20
170.403589
 30
0.0
 10
23.060771
 20
172.066188
 30
0.0
 10
23.060774
 20
172.066188
 30
0.0
  0
LWPOLYLINE
  5
102
100
AcDbEntity
  8
Layer_1
 62
7
100
AcDbPolyline
 90
82
 70
0
 10
111.644577
 20
171.061164
 30
0.0
 10
110.963284
 20
171.181475
 30
0.0
 10
110.630451
 20
171.259594
 30
0.0
 10
110.630451
 20
171.259594
 30
0.0
 10
110.305429
 20
171.365851
 30
0.0
 10
110.027288
 20
171.501798
 30
0.0
 10
109.767895
 20
171.667434
 30
0.0
 10
109.767895
 20
171.667434
 30
0.0
 10
109.525695
 20
171.858075
 30
0.0
 10
109.311618
 20
172.076854
 30
0.0
 10
109.067851
 20
172.431550
 30
0.0
 10
109.067851
 20
172.431550
 30
0.0
 10
108.869401
 20
172.814393
 30
0.0
 10
108.703765
 20
173.217545
 30
0.0
 10
108.572509
 20
173.631633
 30
0.0
 10
108.572509
 20
173.631633
 30
0.0
 10
108.408436
 20
174.369178
 30
0.0
 10
108.284989
 20
175.116102
 30
0.0
 10
108.103729
 20
176.622449
 30
0.0
 10
107.281799
 20
190.521769
 30
0.0
 10
107.134917
 20
193.000050
 30
0.0
 10
107.134917
 20
193.000050
 30
0.0
 10
92.548052
 20
194.043866
 30
0.0
 10
77.609604
 20
195.117371
 30
0.0
 10
77.429905
 20
192.659405
 30
0.0
 10
76.701735
 20
182.732210
 30
0.0
 10
76.386089
 20
177.885026
 30
0.0
 10
76.386089
 20
177.885026
 30
0.0
 10
76.284520
 20
176.670887
 30
0.0
 10
76.139198
 20
175.462998
 30
0.0
 10
76.064192
 20
175.011409
 30
0.0
 10
75.968874
 20
174.562941
 30
0.0
 10
75.968874
 20
174.562941
 30
0.0
 10
75.845430
 20
174.125414
 30
0.0
 10
75.687606
 20
173.697261
 30
0.0
 10
75.476656
 20
173.281609
 30
0.0
 10
75.476656
 20
173.281609
 30
0.0
 10
75.226641
 20
172.887836
 30
0.0
 10
74.940685
 20
172.522186
 30
0.0
 10
74.614100
 20
172.192480
 30
0.0
 10
74.614100
 20
172.192480
 30
0.0
 10
74.275016
 20
171.937774
 30
0.0
 10
73.907805
 20
171.723709
 30
0.0
 10
73.518720
 20
171.543990
 30
0.0
 10
73.518720
 20
171.543990
 30
0.0
 10
73.114007
 20
171.409624
 30
0.0
 10
72.746794
 20
171.331476
 30
0.0
 10
72.374895
 20
171.275230
 30
0.0
 10
72.374895
 20
171.275230
 30
0.0
 10
71.624848
 20
171.200215
 30
0.0
 10
70.107564
 20
171.133046
 30
0.0
 10
70.574783
 20
169.423541
 30
0.0
 10
70.574783
 20
169.423541
 30
0.0
 10
70.796672
 20
168.565699
 30
0.0
 10
70.999810
 20
167.703143
 30
0.0
 10
71.212323
 20
166.595251
 30
0.0
 10
71.212323
 20
166.595251
 30
0.0
 10
71.393583
 20
165.481123
 30
0.0
 10
71.551408
 20
164.363861
 30
0.0
 10
71.679539
 20
163.241915
 30
0.0
 10
71.679539
 20
163.241915
 30
0.0
 10
71.757670
 20
162.266837
 30
0.0
 10
71.813922
 20
161.288655
 30
0.0
 10
71.902992
 20
159.330710
 30
0.0
 10
71.799859
 20
157.791555
 30
0.0
 10
71.799859
 20
157.791555
 30
0.0
 10
110.085104
 20
157.791555
 30
0.0
 10
110.063232
 20
158.061896
 30
0.0
 10
109.983541
 20
159.330710
 30
0.0
 10
110.046045
 20
160.805829
 30
0.0
 10
110.046045
 20
160.805829
 30
0.0
 10
110.135111
 20
162.277788
 30
0.0
 10
110.255434
 20
163.646622
 30
0.0
 10
110.405443
 20
165.010771
 30
0.0
 10
110.405443
 20
165.010771
 30
0.0
 10
110.583579
 20
166.371788
 30
0.0
 10
110.805468
 20
167.725015
 30
0.0
 10
110.991419
 20
168.564118
 30
0.0
 10
110.991419
 20
168.564118
 30
0.0
 10
111.199241
 20
169.398565
 30
0.0
 10
111.644582
 20
171.061164
 30
0.0
 10
111.644577
 20
171.061164
 30
0.0
  0
LWPOLYLINE
  5
103
100
AcDbEntity
  8
Layer_1
 62
1
100
AcDbPolyline
 90
65
 70
0
 10
92.857080
 20
264.546121
 30
0.0
 10
89.113713
 20
265.071153
 30
0.0
 10
86.157435
 20
265.650719
 30
0.0
 10
86.157435
 20
265.650719
 30
0.0
 10
83.801351
 20
266.240132
 30
0.0
 10
80.538797
 20
267.204570
 30
0.0
 10
77.529857
 20
267.902268
 30
0.0
 10
77.529857
 20
267.902268
 30
0.0
 10
74.289181
 20
268.522934
 30
0.0
 10
73.329123
 20
262.673966
 30
0.0
 10
73.125979
 20
261.580307
 30
0.0
 10
73.125979
 20
261.580307
 30
0.0
 10
72.875809
 20
260.179903
 30
0.0
 10
72.364685
 20
257.541769
 30
0.0
 10
71.746677
 20
255.232248
 30
0.0
 10
71.746677
 20
255.232248
 30
0.0
 10
71.256802
 20
254.213432
 30
0.0
 10
70.315650
 20
252.792562
 30
0.0
 10
67.976434
 20
249.892217
 30
0.0
 10
67.976434
 20
249.892217
 30
0.0
 10
69.862649
 20
247.209548
 30
0.0
 10
71.647137
 20
244.264830
 30
0.0
 10
73.087388
 20
241.429341
 30
0.0
 10
73.087388
 20
241.429341
 30
0.0
 10
73.574444
 20
240.263949
 30
0.0
 10
74.383564
 20
237.903175
 30
0.0
 10
75.976940
 20
229.702655
 30
0.0
 10
75.976940
 20
229.702655
 30
0.0
 10
76.438537
 20
226.424167
 30
0.0
 10
76.628859
 20
224.838284
 30
0.0
 10
77.305151
 20
218.863219
 30
0.0
 10
77.305151
 20
218.863219
 30
0.0
 10
77.515480
 20
216.842310
 30
0.0
 10
78.495229
 20
208.023312
 30
0.0
 10
78.323965
 20
206.486183
 30
0.0
 10
78.323965
 20
206.486183
 30
0.0
 10
93.730414
 20
206.485054
 30
0.0
 10
93.632282
 20
208.021878
 30
0.0
 10
93.632443
 20
208.023007
 30
0.0
 10
93.632443
 20
208.023007
 30
0.0
 10
94.205916
 20
216.995766
 30
0.0
 10
94.327639
 20
218.932609
 30
0.0
 10
94.756419
 20
224.955954
 30
0.0
 10
94.756419
 20
224.955954
 30
0.0
 10
94.894242
 20
226.716696
 30
0.0
 10
95.195356
 20
229.849393
 30
0.0
 10
96.319487
 20
237.820365
 30
0.0
 10
96.319487
 20
237.820365
 30
0.0
 10
97.037968
 20
240.593980
 30
0.0
 10
97.674887
 20
242.615984
 30
0.0
 10
99.793925
 20
248.363538
 30
0.0
 10
99.793925
 20
248.363538
 30
0.0
 10
100.753362
 20
250.894166
 30
0.0
 10
101.454656
 20
252.744124
 30
0.0
 10
100.517410
 20
253.062428
 30
0.0
 10
100.517410
 20
253.062428
 30
0.0
 10
99.765485
 20
253.474639
 30
0.0
 10
99.256706
 20
253.972953
 30
0.0
 10
98.691979
 20
254.932077
 30
0.0
 10
98.691979
 20
254.932077
 30
0.0
 10
98.233202
 20
257.525993
 30
0.0
 10
97.534874
 20
264.328928
 30
0.0
 10
95.672103
 20
264.374397
 30
0.0
 10
95.672103
 20
264.374397
 30
0.0
 10
92.857080
 20
264.546121
 30
0.0
  0
ENDSEC
  0
SECTION
  2
OBJECTS
  0
DICTIONARY
  5
C
330
0
100
AcDbDictionary
  3
ACAD_GROUP
350
D
  3
ACAD_MLINESTYLE
350
17
  0
DICTIONARY
  5
D
330
C
100
AcDbDictionary
  0
DICTIONARY
  5
1A
330
C
100
AcDbDictionary
  0
DICTIONARY
  5
17
330
C
100
AcDbDictionary
  3
STANDARD
350
18
  0
DICTIONARY
  5
19
330
C
100
AcDbDictionary
  0
ENDSEC
  0
EOF
