  0
SECTION
  2
HEADER
  9
$ACADVER
  1
AC1014
  9
$HANDSEED
  5
FFFF
  9
$MEASUREMENT
 70
     1
  0
ENDSEC
  0
SECTION
  2
TABLES
  0
TABLE
  2
VPORT
  5
8
330
0
100
AcDbSymbolTable
 70
     4
  0
VPORT
  5
2E
330
8
100
AcDbSymbolTableRecord
100
AcDbViewportTableRecord
  2
*ACTIVE
 70
     0
 10
0.0
 20
0.0
 11
1.0
 21
1.0
 12
210.0
 22
148.5
 13
0.0
 23
0.0
 14
10.0
 24
10.0
 15
10.0
 25
10.0
 16
0.0
 26
0.0
 36
1.0
 17
0.0
 27
0.0
 37
0.0
 40
341.0
 41
1.24
 42
50.0
 43
0.0
 44
0.0
 50
0.0
 51
0.0
 71
     0
 72
   100
 73
     1
 74
     3
 75
     0
 76
     0
 77
     0
 78
     0
  0
ENDTAB
  0
TABLE
  2
LTYPE
  5
5
330
0
100
AcDbSymbolTable
 70
     1
  0
LTYPE
  5
14
330
5
100
AcDbSymbolTableRecord
100
AcDbLinetypeTableRecord
  2
BYBLOCK
 70
     0
  3

 72
    65
 73
     0
 40
0.0
  0
LTYPE
  5
15
330
5
100
AcDbSymbolTableRecord
100
AcDbLinetypeTableRecord
  2
BYLAYER
 70
     0
  3

 72
    65
 73
     0
 40
0.0
  0
LTYPE
  5
16
330
5
100
AcDbSymbolTableRecord
100
AcDbLinetypeTableRecord
  2
CONTINUOUS
 70
     0
  3
Solid line
 72
    65
 73
     0
 40
0.0
  0
ENDTAB
  0
TABLE
  2
LAYER
  5
2
100
AcDbSymbolTable
 70
2
  0
LAYER
  5
50
100
AcDbSymbolTableRecord
100
AcDbLayerTableRecord
  2
0
 70
0
  6
CONTINUOUS
  0
LAYER
  5
51
100
AcDbSymbolTableRecord
100
AcDbLayerTableRecord
  2
Layer_1
 70
0
  6
CONTINUOUS
  0
ENDTAB
  0
TABLE
  2
STYLE
  5
3
330
0
100
AcDbSymbolTable
 70
     1
  0
STYLE
  5
11
330
3
100
AcDbSymbolTableRecord
100
AcDbTextStyleTableRecord
  2
STANDARD
 70
     0
 40
0.0
 41
1.0
 50
0.0
 71
     0
 42
2.5
  3
txt
  4

  0
ENDTAB
  0
TABLE
  2
VIEW
  5
6
330
0
100
AcDbSymbolTable
 70
     0
  0
ENDTAB
  0
TABLE
  2
UCS
  5
7
330
0
100
AcDbSymbolTable
 70
     0
  0
ENDTAB
  0
TABLE
  2
APPID
  5
9
330
0
100
AcDbSymbolTable
 70
     2
  0
APPID
  5
12
330
9
100
AcDbSymbolTableRecord
100
AcDbRegAppTableRecord
  2
ACAD
 70
     0
  0
ENDTAB
  0
TABLE
  2
DIMSTYLE
  5
A
330
0
100
AcDbSymbolTable
 70
     1
  0
DIMSTYLE
105
27
330
A
100
AcDbSymbolTableRecord
100
AcDbDimStyleTableRecord
  2
ISO-25
 70
     0
  3

  4

  5

  6

  7

 40
1.0
 41
2.5
 42
0.625
 43
3.75
 44
1.25
 45
0.0
 46
0.0
 47
0.0
 48
0.0
140
2.5
141
2.5
142
0.0
143
0.03937007874016
144
1.0
145
0.0
146
1.0
147
0.625
 71
     0
 72
     0
 73
     0
 74
     0
 75
     0
 76
     0
 77
     1
 78
     8
170
     0
171
     3
172
     1
173
     0
174
     0
175
     0
176
     0
177
     0
178
     0
270
     2
271
     2
272
     2
273
     2
274
     3
340
11
275
     0
280
     0
281
     0
282
     0
283
     0
284
     8
285
     0
286
     0
287
     3
288
     0
  0
ENDTAB
  0
TABLE
  2
BLOCK_RECORD
  5
1
330
0
100
AcDbSymbolTable
 70
     1
  0
BLOCK_RECORD
  5
1F
330
1
100
AcDbSymbolTableRecord
100
AcDbBlockTableRecord
  2
*MODEL_SPACE
  0
BLOCK_RECORD
  5
1B
330
1
100
AcDbSymbolTableRecord
100
AcDbBlockTableRecord
  2
*PAPER_SPACE
  0
ENDTAB
  0
ENDSEC
  0
SECTION
  2
BLOCKS
  0
BLOCK
  5
20
330
1F
100
AcDbEntity
  8
0
100
AcDbBlockBegin
  2
*MODEL_SPACE
 70
     0
 10
0.0
 20
0.0
 30
0.0
  3
*MODEL_SPACE
  1

  0
ENDBLK
  5
21
330
1F
100
AcDbEntity
  8
0
100
AcDbBlockEnd
  0
BLOCK
  5
1C
330
1B
100
AcDbEntity
 67
     1
  8
0
100
AcDbBlockBegin
  2
*PAPER_SPACE
  1

  0
ENDBLK
  5
1D
330
1B
100
AcDbEntity
 67
     1
  8
0
100
AcDbBlockEnd
  0
ENDSEC
  0
SECTION
  2
ENTITIES
  0
LWPOLYLINE
  5
100
100
AcDbEntity
  8
Layer_1
 62
7
100
AcDbPolyline
 90
122
 70
0
 10
43.315642
 20
240.590904
 30
0.0
 10
9.808832
 20
240.590904
 30
0.0
 10
9.772892
 20
242.128501
 30
0.0
 10
9.971342
 20
250.599351
 30
0.0
 10
10.046347
 20
253.530787
 30
0.0
 10
10.046347
 20
253.530787
 30
0.0
 10
10.069785
 20
254.996505
 30
0.0
 10
10.074473
 20
256.463787
 30
0.0
 10
10.008844
 20
258.559231
 30
0.0
 10
10.008844
 20
258.559231
 30
0.0
 10
9.904150
 20
260.654677
 30
0.0
 10
9.561941
 20
266.476916
 30
0.0
 10
9.274423
 20
271.135024
 30
0.0
 10
9.947903
 20
271.403790
 30
0.0
 10
9.947903
 20
271.403790
 30
0.0
 10
10.276048
 20
271.553800
 30
0.0
 10
10.591694
 20
271.728811
 30
0.0
 10
10.915152
 20
271.971014
 30
0.0
 10
10.915152
 20
271.971014
 30
0.0
 10
11.215171
 20
272.244468
 30
0.0
 10
11.487063
 20
272.542926
 30
0.0
 10
11.723015
 20
272.869508
 30
0.0
 10
11.723015
 20
272.869508
 30
0.0
 10
11.873025
 20
273.141401
 30
0.0
 10
12.005846
 20
273.422670
 30
0.0
 10
12.229297
 20
274.002394
 30
0.0
 10
12.229297
 20
274.002394
 30
0.0
 10
12.408996
 20
274.602432
 30
0.0
 10
12.544942
 20
275.213406
 30
0.0
 10
12.648074
 20
275.858761
 30
0.0
 10
12.648074
 20
275.858761
 30
0.0
 10
12.719953
 20
276.508801
 30
0.0
 10
12.796521
 20
277.816697
 30
0.0
 10
12.815272
 20
278.574557
 30
0.0
 10
12.815272
 20
279.191786
 30
0.0
 10
12.787145
 20
280.069965
 30
0.0
 10
12.787145
 20
280.069965
 30
0.0
 10
12.738705
 20
280.948148
 30
0.0
 10
12.641824
 20
282.227915
 30
0.0
 10
12.501190
 20
283.504559
 30
0.0
 10
12.501190
 20
283.504559
 30
0.0
 10
12.271488
 20
284.787454
 30
0.0
 10
12.010534
 20
286.065658
 30
0.0
 10
21.250183
 20
288.859587
 30
0.0
 10
21.250183
 20
288.859587
 30
0.0
 10
21.487698
 20
288.576755
 30
0.0
 10
21.743964
 20
288.311114
 30
0.0
 10
21.961166
 20
288.136102
 30
0.0
 10
21.961166
 20
288.136102
 30
0.0
 10
22.192430
 20
287.976717
 30
0.0
 10
22.433071
 20
287.832959
 30
0.0
 10
22.683086
 20
287.707951
 30
0.0
 10
22.683086
 20
287.707951
 30
0.0
 10
22.997169
 20
287.586068
 30
0.0
 10
23.320627
 20
287.484499
 30
0.0
 10
23.648773
 20
287.403244
 30
0.0
 10
23.648773
 20
287.403244
 30
0.0
 10
23.983169
 20
287.340741
 30
0.0
 10
24.801971
 20
287.251671
 30
0.0
 10
25.627024
 20
287.218857
 30
0.0
 10
25.627024
 20
287.218857
 30
0.0
 10
26.561458
 20
287.221990
 30
0.0
 10
27.497455
 20
287.218857
 30
0.0
 10
28.322507
 20
287.251671
 30
0.0
 10
29.141310
 20
287.340741
 30
0.0
 10
29.141310
 20
287.340741
 30
0.0
 10
29.474143
 20
287.403244
 30
0.0
 10
29.803852
 20
287.484499
 30
0.0
 10
30.125746
 20
287.586068
 30
0.0
 10
30.125746
 20
287.586068
 30
0.0
 10
30.441392
 20
287.707951
 30
0.0
 10
30.691407
 20
287.832959
 30
0.0
 10
30.932047
 20
287.976717
 30
0.0
 10
30.932047
 20
287.976717
 30
0.0
 10
31.161750
 20
288.136102
 30
0.0
 10
31.380515
 20
288.311114
 30
0.0
 10
31.635212
 20
288.576755
 30
0.0
 10
31.635212
 20
288.576755
 30
0.0
 10
31.872727
 20
288.859587
 30
0.0
 10
41.113939
 20
286.065658
 30
0.0
 10
40.852985
 20
284.787454
 30
0.0
 10
40.852985
 20
284.787454
 30
0.0
 10
40.623281
 20
283.504559
 30
0.0
 10
40.481086
 20
282.227915
 30
0.0
 10
40.384205
 20
280.948148
 30
0.0
 10
40.384205
 20
280.948148
 30
0.0
 10
40.335764
 20
280.069965
 30
0.0
 10
40.307627
 20
279.191786
 30
0.0
 10
40.307627
 20
278.574557
 30
0.0
 10
40.327947
 20
277.816697
 30
0.0
 10
40.404514
 20
276.508801
 30
0.0
 10
40.404514
 20
276.508801
 30
0.0
 10
40.476393
 20
275.858761
 30
0.0
 10
40.579525
 20
275.213406
 30
0.0
 10
40.715469
 20
274.602432
 30
0.0
 10
40.715469
 20
274.602432
 30
0.0
 10
40.893605
 20
274.002394
 30
0.0
 10
41.117057
 20
273.422670
 30
0.0
 10
41.249879
 20
273.141401
 30
0.0
 10
41.249879
 20
273.141401
 30
0.0
 10
41.399889
 20
272.869508
 30
0.0
 10
41.637404
 20
272.542926
 30
0.0
 10
41.909294
 20
272.244468
 30
0.0
 10
41.909294
 20
272.244468
 30
0.0
 10
42.207753
 20
271.971014
 30
0.0
 10
42.532774
 20
271.728811
 30
0.0
 10
42.846856
 20
271.553800
 30
0.0
 10
42.846856
 20
271.553800
 30
0.0
 10
43.175002
 20
271.403790
 30
0.0
 10
43.850044
 20
271.135024
 30
0.0
 10
43.560963
 20
266.476916
 30
0.0
 10
43.560963
 20
266.476916
 30
0.0
 10
43.220315
 20
260.654677
 30
0.0
 10
43.115622
 20
258.559231
 30
0.0
 10
43.049994
 20
256.463787
 30
0.0
 10
43.053127
 20
254.996505
 30
0.0
 10
43.053127
 20
254.996505
 30
0.0
 10
43.078132
 20
253.530787
 30
0.0
 10
43.153135
 20
250.599351
 30
0.0
 10
43.351585
 20
242.128501
 30
0.0
 10
43.315647
 20
240.590904
 30
0.0
 10
43.315642
 20
240.590904
 30
0.0
  0
LWPOLYLINE
  5
101
100
AcDbEntity
  8
Layer_1
 62
7
100
AcDbPolyline
 90
133
 70
0
 10
87.780611
 20
239.113394
 30
0.0
 10
55.506688
 20
239.113394
 30
0.0
 10
55.470747
 20
240.650995
 30
0.0
 10
55.667636
 20
249.056216
 30
0.0
 10
55.742640
 20
252.004840
 30
0.0
 10
55.742640
 20
252.004840
 30
0.0
 10
55.767645
 20
253.479934
 30
0.0
 10
55.772329
 20
254.953464
 30
0.0
 10
55.705138
 20
257.066097
 30
0.0
 10
55.705138
 20
257.066097
 30
0.0
 10
55.598881
 20
259.178731
 30
0.0
 10
55.255109
 20
265.036917
 30
0.0
 10
54.967590
 20
269.680961
 30
0.0
 10
55.630132
 20
269.890351
 30
0.0
 10
55.630132
 20
269.890351
 30
0.0
 10
55.955153
 20
270.009107
 30
0.0
 10
56.269235
 20
270.149741
 30
0.0
 10
56.697389
 20
270.404444
 30
0.0
 10
56.697389
 20
270.404444
 30
0.0
 10
57.097414
 20
270.698212
 30
0.0
 10
57.469312
 20
271.024796
 30
0.0
 10
57.803709
 20
271.388883
 30
0.0
 10
57.803709
 20
271.388883
 30
0.0
 10
58.055287
 20
271.762342
 30
0.0
 10
58.266237
 20
272.162369
 30
0.0
 10
58.439685
 20
272.581145
 30
0.0
 10
58.439685
 20
272.581145
 30
0.0
 10
58.578758
 20
273.013986
 30
0.0
 10
58.720953
 20
273.621836
 30
0.0
 10
58.819398
 20
274.239062
 30
0.0
 10
58.819398
 20
274.239062
 30
0.0
 10
58.877214
 20
274.860978
 30
0.0
 10
58.899086
 20
275.487579
 30
0.0
 10
58.889717
 20
275.956359
 30
0.0
 10
58.858466
 20
276.425138
 30
0.0
 10
58.858466
 20
276.425138
 30
0.0
 10
58.738146
 20
277.356449
 30
0.0
 10
58.563135
 20
278.254943
 30
0.0
 10
58.347494
 20
279.144062
 30
0.0
 10
58.347494
 20
279.144062
 30
0.0
 10
57.919343
 20
280.739475
 30
0.0
 10
57.056788
 20
283.427145
 30
0.0
 10
66.651147
 20
286.328892
 30
0.0
 10
66.651147
 20
286.328892
 30
0.0
 10
66.604269
 20
285.452276
 30
0.0
 10
66.591767
 20
284.577220
 30
0.0
 10
66.651144
 20
283.819358
 30
0.0
 10
66.651144
 20
283.819358
 30
0.0
 10
66.774591
 20
283.070873
 30
0.0
 10
66.960538
 20
282.370830
 30
0.0
 10
67.210556
 20
281.691097
 30
0.0
 10
67.424633
 20
281.245756
 30
0.0
 10
67.424633
 20
281.245756
 30
0.0
 10
67.685587
 20
280.826981
 30
0.0
 10
67.871535
 20
280.591029
 30
0.0
 10
68.071548
 20
280.367577
 30
0.0
 10
68.071548
 20
280.367577
 30
0.0
 10
68.285622
 20
280.158188
 30
0.0
 10
68.512202
 20
279.961301
 30
0.0
 10
68.945040
 20
279.661282
 30
0.0
 10
68.945040
 20
279.661282
 30
0.0
 10
69.410696
 20
279.414391
 30
0.0
 10
70.010734
 20
279.183127
 30
0.0
 10
70.631087
 20
279.012803
 30
0.0
 10
70.631087
 20
279.012803
 30
0.0
 10
71.135804
 20
278.931548
 30
0.0
 10
71.643649
 20
278.872169
 30
0.0
 10
72.151494
 20
278.931548
 30
0.0
 10
72.151494
 20
278.931548
 30
0.0
 10
72.656215
 20
279.012803
 30
0.0
 10
73.276567
 20
279.183127
 30
0.0
 10
73.876603
 20
279.414391
 30
0.0
 10
73.876603
 20
279.414391
 30
0.0
 10
74.343822
 20
279.661282
 30
0.0
 10
74.776660
 20
279.961301
 30
0.0
 10
75.003237
 20
280.158188
 30
0.0
 10
75.003237
 20
280.158188
 30
0.0
 10
75.215753
 20
280.367577
 30
0.0
 10
75.415764
 20
280.591029
 30
0.0
 10
75.601714
 20
280.826981
 30
0.0
 10
75.601714
 20
280.826981
 30
0.0
 10
75.862668
 20
281.245756
 30
0.0
 10
76.076742
 20
281.691097
 30
0.0
 10
76.326760
 20
282.370830
 30
0.0
 10
76.326760
 20
282.370830
 30
0.0
 10
76.512708
 20
283.070873
 30
0.0
 10
76.636155
 20
283.819358
 30
0.0
 10
76.697095
 20
284.577220
 30
0.0
 10
76.697095
 20
284.577220
 30
0.0
 10
76.683040
 20
285.452276
 30
0.0
 10
76.636163
 20
286.328892
 30
0.0
 10
86.232086
 20
283.427145
 30
0.0
 10
86.232086
 20
283.427145
 30
0.0
 10
85.367966
 20
280.739475
 30
0.0
 10
84.939815
 20
279.144062
 30
0.0
 10
84.725739
 20
278.254943
 30
0.0
 10
84.725739
 20
278.254943
 30
0.0
 10
84.549166
 20
277.356449
 30
0.0
 10
84.428844
 20
276.425138
 30
0.0
 10
84.397593
 20
275.956359
 30
0.0
 10
84.397593
 20
275.956359
 30
0.0
 10
84.388223
 20
275.487579
 30
0.0
 10
84.410096
 20
274.860978
 30
0.0
 10
84.467912
 20
274.239062
 30
0.0
 10
84.566356
 20
273.621836
 30
0.0
 10
84.566356
 20
273.621836
 30
0.0
 10
84.708554
 20
273.013986
 30
0.0
 10
84.847625
 20
272.581145
 30
0.0
 10
85.022636
 20
272.162369
 30
0.0
 10
85.022636
 20
272.162369
 30
0.0
 10
85.232023
 20
271.762342
 30
0.0
 10
85.483601
 20
271.388883
 30
0.0
 10
85.817998
 20
271.024796
 30
0.0
 10
85.817998
 20
271.024796
 30
0.0
 10
86.189896
 20
270.698212
 30
0.0
 10
86.591484
 20
270.404444
 30
0.0
 10
87.018074
 20
270.149741
 30
0.0
 10
87.018074
 20
270.149741
 30
0.0
 10
87.332157
 20
270.009107
 30
0.0
 10
87.657178
 20
269.890351
 30
0.0
 10
88.321284
 20
269.680961
 30
0.0
 10
88.321284
 20
269.680961
 30
0.0
 10
88.033764
 20
265.036917
 30
0.0
 10
87.688428
 20
259.178731
 30
0.0
 10
87.582172
 20
257.066097
 30
0.0
 10
87.516544
 20
254.953464
 30
0.0
 10
87.516544
 20
254.953464
 30
0.0
 10
87.519677
 20
253.479934
 30
0.0
 10
87.544681
 20
252.004840
 30
0.0
 10
87.619688
 20
249.056216
 30
0.0
 10
87.816574
 20
240.650995
 30
0.0
 10
87.780633
 20
239.113394
 30
0.0
 10
87.780611
 20
239.113394
 30
0.0
  0
LWPOLYLINE
  5
102
100
AcDbEntity
  8
Layer_1
 62
7
100
AcDbPolyline
 90
91
 70
1
 10
102.395740
 20
267.487875
 30
0.0
 10
101.900395
 20
269.747393
 30
0.0
 10
101.200351
 20
272.827276
 30
0.0
 10
101.200351
 20
272.827276
 30
0.0
 10
101.751948
 20
273.091354
 30
0.0
 10
102.295731
 20
273.372623
 30
0.0
 10
102.750448
 20
273.649203
 30
0.0
 10
102.750448
 20
273.649203
 30
0.0
 10
103.195789
 20
273.944535
 30
0.0
 10
103.628630
 20
274.255490
 30
0.0
 10
104.045842
 20
274.585199
 30
0.0
 10
104.045842
 20
274.585199
 30
0.0
 10
104.388054
 20
274.889906
 30
0.0
 10
104.717763
 20
275.208676
 30
0.0
 10
105.345927
 20
275.879032
 30
0.0
 10
105.345927
 20
275.879032
 30
0.0
 10
106.110038
 20
276.788465
 30
0.0
 10
106.855398
 20
277.716649
 30
0.0
 10
107.947655
 20
279.029230
 30
0.0
 10
108.350804
 20
279.487074
 30
0.0
 10
109.019597
 20
280.193369
 30
0.0
 10
109.019597
 20
280.193369
 30
0.0
 10
109.368057
 20
280.530889
 30
0.0
 10
109.732143
 20
280.854347
 30
0.0
 10
110.116541
 20
281.155930
 30
0.0
 10
110.116541
 20
281.155930
 30
0.0
 10
110.518129
 20
281.435635
 30
0.0
 10
110.932220
 20
281.695025
 30
0.0
 10
111.361934
 20
281.927853
 30
0.0
 10
111.361934
 20
281.927853
 30
0.0
 10
111.727581
 20
282.090362
 30
0.0
 10
112.104167
 20
282.230996
 30
0.0
 10
112.487004
 20
282.352879
 30
0.0
 10
112.487004
 20
282.352879
 30
0.0
 10
112.876093
 20
282.451324
 30
0.0
 10
113.399562
 20
282.534142
 30
0.0
 10
113.927721
 20
282.591958
 30
0.0
 10
113.927721
 20
282.591958
 30
0.0
 10
114.423066
 20
282.571638
 30
0.0
 10
115.455943
 20
282.506008
 30
0.0
 10
116.001289
 20
282.420065
 30
0.0
 10
116.538824
 20
282.302870
 30
0.0
 10
116.538824
 20
282.302870
 30
0.0
 10
117.013855
 20
282.173174
 30
0.0
 10
117.474822
 20
282.004414
 30
0.0
 10
117.985791
 20
281.760647
 30
0.0
 10
117.985791
 20
281.760647
 30
0.0
 10
118.482697
 20
281.485630
 30
0.0
 10
118.957728
 20
281.179363
 30
0.0
 10
119.407757
 20
280.835591
 30
0.0
 10
119.407757
 20
280.835591
 30
0.0
 10
119.918726
 20
280.330870
 30
0.0
 10
120.392193
 20
279.787087
 30
0.0
 10
120.840661
 20
279.218299
 30
0.0
 10
120.840661
 20
279.218299
 30
0.0
 10
121.267251
 20
278.632324
 30
0.0
 10
122.993923
 20
276.057163
 30
0.0
 10
123.564272
 20
275.319614
 30
0.0
 10
124.179934
 20
274.622695
 30
0.0
 10
124.179934
 20
274.622695
 30
0.0
 10
124.490892
 20
274.319551
 30
0.0
 10
124.815913
 20
274.030471
 30
0.0
 10
125.151871
 20
273.755454
 30
0.0
 10
125.151871
 20
273.755454
 30
0.0
 10
125.500330
 20
273.496061
 30
0.0
 10
126.073806
 20
273.152289
 30
0.0
 10
126.664469
 20
272.833519
 30
0.0
 10
126.664469
 20
272.833519
 30
0.0
 10
125.950359
 20
269.869268
 30
0.0
 10
125.465953
 20
267.487870
 30
0.0
 10
124.979986
 20
265.022089
 30
0.0
 10
124.981679
 20
263.476676
 30
0.0
 10
124.981679
 20
263.476676
 30
0.0
 10
122.111183
 20
263.757945
 30
0.0
 10
119.237562
 20
263.997024
 30
0.0
 10
117.912478
 20
264.068903
 30
0.0
 10
117.912478
 20
264.068903
 30
0.0
 10
116.585833
 20
264.120468
 30
0.0
 10
115.259186
 20
264.153282
 30
0.0
 10
113.930978
 20
264.165784
 30
0.0
 10
113.930978
 20
264.165784
 30
0.0
 10
112.604330
 20
264.153282
 30
0.0
 10
111.276122
 20
264.120468
 30
0.0
 10
109.949474
 20
264.068903
 30
0.0
 10
109.949474
 20
264.068903
 30
0.0
 10
108.624390
 20
263.997024
 30
0.0
 10
105.750769
 20
263.757945
 30
0.0
 10
102.880276
 20
263.476676
 30
0.0
 10
102.880276
 20
263.476676
 30
0.0
 10
102.881687
 20
265.022094
 30
0.0
 10
102.395740
 20
267.487875
 30
0.0
  0
LWPOLYLINE
  5
103
100
AcDbEntity
  8
Layer_1
 62
7
100
AcDbPolyline
 90
122
 70
0
 10
41.830470
 20
176.357126
 30
0.0
 10
8.323662
 20
176.357126
 30
0.0
 10
8.287721
 20
177.894724
 30
0.0
 10
8.486171
 20
186.365573
 30
0.0
 10
8.561174
 20
189.297009
 30
0.0
 10
8.561174
 20
189.297009
 30
0.0
 10
8.584627
 20
190.762728
 30
0.0
 10
8.589312
 20
192.230009
 30
0.0
 10
8.523684
 20
194.325453
 30
0.0
 10
8.523684
 20
194.325453
 30
0.0
 10
8.418991
 20
196.420899
 30
0.0
 10
8.076779
 20
202.243138
 30
0.0
 10
7.789262
 20
206.901247
 30
0.0
 10
8.462743
 20
207.170013
 30
0.0
 10
8.462743
 20
207.170013
 30
0.0
 10
8.790889
 20
207.320022
 30
0.0
 10
9.106532
 20
207.495034
 30
0.0
 10
9.429992
 20
207.737237
 30
0.0
 10
9.429992
 20
207.737237
 30
0.0
 10
9.730012
 20
208.010691
 30
0.0
 10
10.001902
 20
208.309149
 30
0.0
 10
10.237854
 20
208.635731
 30
0.0
 10
10.237854
 20
208.635731
 30
0.0
 10
10.387863
 20
208.907624
 30
0.0
 10
10.520685
 20
209.188892
 30
0.0
 10
10.744138
 20
209.768616
 30
0.0
 10
10.744138
 20
209.768616
 30
0.0
 10
10.923837
 20
210.368655
 30
0.0
 10
11.059783
 20
210.979629
 30
0.0
 10
11.162913
 20
211.624984
 30
0.0
 10
11.162913
 20
211.624984
 30
0.0
 10
11.234792
 20
212.275023
 30
0.0
 10
11.311362
 20
213.582920
 30
0.0
 10
11.330102
 20
214.340780
 30
0.0
 10
11.330102
 20
214.958008
 30
0.0
 10
11.301964
 20
215.836188
 30
0.0
 10
11.301964
 20
215.836188
 30
0.0
 10
11.253523
 20
216.714370
 30
0.0
 10
11.156642
 20
217.994138
 30
0.0
 10
11.016008
 20
219.270782
 30
0.0
 10
11.016008
 20
219.270782
 30
0.0
 10
10.786304
 20
220.553676
 30
0.0
 10
10.525350
 20
221.831881
 30
0.0
 10
19.765001
 20
224.625810
 30
0.0
 10
19.765001
 20
224.625810
 30
0.0
 10
20.002517
 20
224.342978
 30
0.0
 10
20.258783
 20
224.077337
 30
0.0
 10
20.475984
 20
223.902325
 30
0.0
 10
20.475984
 20
223.902325
 30
0.0
 10
20.707248
 20
223.742940
 30
0.0
 10
20.947888
 20
223.599182
 30
0.0
 10
21.197903
 20
223.474174
 30
0.0
 10
21.197903
 20
223.474174
 30
0.0
 10
21.511985
 20
223.352291
 30
0.0
 10
21.835446
 20
223.250722
 30
0.0
 10
22.163591
 20
223.169467
 30
0.0
 10
22.163591
 20
223.169467
 30
0.0
 10
22.497988
 20
223.106963
 30
0.0
 10
23.316788
 20
223.017894
 30
0.0
 10
24.141842
 20
222.985080
 30
0.0
 10
24.141842
 20
222.985080
 30
0.0
 10
25.076274
 20
222.988213
 30
0.0
 10
26.012272
 20
222.985080
 30
0.0
 10
26.837324
 20
223.017894
 30
0.0
 10
27.656126
 20
223.106963
 30
0.0
 10
27.656126
 20
223.106963
 30
0.0
 10
27.988960
 20
223.169467
 30
0.0
 10
28.318669
 20
223.250722
 30
0.0
 10
28.640563
 20
223.352291
 30
0.0
 10
28.640563
 20
223.352291
 30
0.0
 10
28.956209
 20
223.474174
 30
0.0
 10
29.206224
 20
223.599182
 30
0.0
 10
29.446866
 20
223.742940
 30
0.0
 10
29.446866
 20
223.742940
 30
0.0
 10
29.676567
 20
223.902325
 30
0.0
 10
29.895332
 20
224.077337
 30
0.0
 10
30.150029
 20
224.342978
 30
0.0
 10
30.150029
 20
224.342978
 30
0.0
 10
30.387544
 20
224.625810
 30
0.0
 10
39.628755
 20
221.831881
 30
0.0
 10
39.367801
 20
220.553676
 30
0.0
 10
39.367801
 20
220.553676
 30
0.0
 10
39.138098
 20
219.270782
 30
0.0
 10
38.995903
 20
217.994138
 30
0.0
 10
38.899022
 20
216.714370
 30
0.0
 10
38.899022
 20
216.714370
 30
0.0
 10
38.850581
 20
215.836188
 30
0.0
 10
38.822444
 20
214.958008
 30
0.0
 10
38.822444
 20
214.340780
 30
0.0
 10
38.842764
 20
213.582920
 30
0.0
 10
38.919331
 20
212.275023
 30
0.0
 10
38.919331
 20
212.275023
 30
0.0
 10
38.991210
 20
211.624984
 30
0.0
 10
39.094342
 20
210.979629
 30
0.0
 10
39.230286
 20
210.368655
 30
0.0
 10
39.230286
 20
210.368655
 30
0.0
 10
39.408422
 20
209.768616
 30
0.0
 10
39.631874
 20
209.188892
 30
0.0
 10
39.764696
 20
208.907624
 30
0.0
 10
39.764696
 20
208.907624
 30
0.0
 10
39.914706
 20
208.635731
 30
0.0
 10
40.152221
 20
208.309149
 30
0.0
 10
40.424111
 20
208.010691
 30
0.0
 10
40.424111
 20
208.010691
 30
0.0
 10
40.722570
 20
207.737237
 30
0.0
 10
41.047591
 20
207.495034
 30
0.0
 10
41.361673
 20
207.320022
 30
0.0
 10
41.361673
 20
207.320022
 30
0.0
 10
41.689819
 20
207.170013
 30
0.0
 10
42.364860
 20
206.901247
 30
0.0
 10
42.075780
 20
202.243138
 30
0.0
 10
42.075780
 20
202.243138
 30
0.0
 10
41.735132
 20
196.420899
 30
0.0
 10
41.630439
 20
194.325453
 30
0.0
 10
41.564811
 20
192.230009
 30
0.0
 10
41.567944
 20
190.762728
 30
0.0
 10
41.567944
 20
190.762728
 30
0.0
 10
41.592949
 20
189.297009
 30
0.0
 10
41.667952
 20
186.365573
 30
0.0
 10
41.866402
 20
177.894724
 30
0.0
 10
41.830464
 20
176.357126
 30
0.0
 10
41.830470
 20
176.357126
 30
0.0
  0
LWPOLYLINE
  5
104
100
AcDbEntity
  8
Layer_1
 62
7
100
AcDbPolyline
 90
133
 70
0
 10
88.690173
 20
174.081371
 30
0.0
 10
56.416250
 20
174.081371
 30
0.0
 10
56.380309
 20
175.618971
 30
0.0
 10
56.577199
 20
184.024192
 30
0.0
 10
56.652202
 20
186.972816
 30
0.0
 10
56.652202
 20
186.972816
 30
0.0
 10
56.677207
 20
188.447910
 30
0.0
 10
56.681892
 20
189.921440
 30
0.0
 10
56.614701
 20
192.034074
 30
0.0
 10
56.614701
 20
192.034074
 30
0.0
 10
56.508444
 20
194.146708
 30
0.0
 10
56.164672
 20
200.004893
 30
0.0
 10
55.877152
 20
204.648939
 30
0.0
 10
56.539694
 20
204.858328
 30
0.0
 10
56.539694
 20
204.858328
 30
0.0
 10
56.864716
 20
204.977084
 30
0.0
 10
57.178798
 20
205.117718
 30
0.0
 10
57.606952
 20
205.372421
 30
0.0
 10
57.606952
 20
205.372421
 30
0.0
 10
58.006976
 20
205.666189
 30
0.0
 10
58.378875
 20
205.992774
 30
0.0
 10
58.713271
 20
206.356860
 30
0.0
 10
58.713271
 20
206.356860
 30
0.0
 10
58.964850
 20
206.730319
 30
0.0
 10
59.175800
 20
207.130347
 30
0.0
 10
59.349248
 20
207.549122
 30
0.0
 10
59.349248
 20
207.549122
 30
0.0
 10
59.488321
 20
207.981963
 30
0.0
 10
59.630516
 20
208.589814
 30
0.0
 10
59.728961
 20
209.207039
 30
0.0
 10
59.728961
 20
209.207039
 30
0.0
 10
59.786777
 20
209.828955
 30
0.0
 10
59.808649
 20
210.455556
 30
0.0
 10
59.799279
 20
210.924336
 30
0.0
 10
59.768029
 20
211.393116
 30
0.0
 10
59.768029
 20
211.393116
 30
0.0
 10
59.647709
 20
212.324426
 30
0.0
 10
59.472697
 20
213.222920
 30
0.0
 10
59.257057
 20
214.112039
 30
0.0
 10
59.257057
 20
214.112039
 30
0.0
 10
58.828906
 20
215.707452
 30
0.0
 10
57.966350
 20
218.395122
 30
0.0
 10
67.560709
 20
221.296869
 30
0.0
 10
67.560709
 20
221.296869
 30
0.0
 10
67.513832
 20
220.420253
 30
0.0
 10
67.501330
 20
219.545198
 30
0.0
 10
67.560706
 20
218.787335
 30
0.0
 10
67.560706
 20
218.787335
 30
0.0
 10
67.684153
 20
218.038851
 30
0.0
 10
67.870101
 20
217.338807
 30
0.0
 10
68.120119
 20
216.659075
 30
0.0
 10
68.334196
 20
216.213734
 30
0.0
 10
68.334196
 20
216.213734
 30
0.0
 10
68.595150
 20
215.794958
 30
0.0
 10
68.781097
 20
215.559006
 30
0.0
 10
68.981111
 20
215.335554
 30
0.0
 10
68.981111
 20
215.335554
 30
0.0
 10
69.195185
 20
215.126165
 30
0.0
 10
69.421764
 20
214.929278
 30
0.0
 10
69.854603
 20
214.629259
 30
0.0
 10
69.854603
 20
214.629259
 30
0.0
 10
70.320258
 20
214.382368
 30
0.0
 10
70.920297
 20
214.151104
 30
0.0
 10
71.540649
 20
213.980780
 30
0.0
 10
71.540649
 20
213.980780
 30
0.0
 10
72.045367
 20
213.899526
 30
0.0
 10
72.553212
 20
213.840146
 30
0.0
 10
73.061057
 20
213.899526
 30
0.0
 10
73.061057
 20
213.899526
 30
0.0
 10
73.565777
 20
213.980780
 30
0.0
 10
74.186130
 20
214.151104
 30
0.0
 10
74.786165
 20
214.382368
 30
0.0
 10
74.786165
 20
214.382368
 30
0.0
 10
75.253384
 20
214.629259
 30
0.0
 10
75.686223
 20
214.929278
 30
0.0
 10
75.912799
 20
215.126165
 30
0.0
 10
75.912799
 20
215.126165
 30
0.0
 10
76.125316
 20
215.335554
 30
0.0
 10
76.325326
 20
215.559006
 30
0.0
 10
76.511277
 20
215.794958
 30
0.0
 10
76.511277
 20
215.794958
 30
0.0
 10
76.772231
 20
216.213734
 30
0.0
 10
76.986305
 20
216.659075
 30
0.0
 10
77.236323
 20
217.338807
 30
0.0
 10
77.236323
 20
217.338807
 30
0.0
 10
77.422271
 20
218.038851
 30
0.0
 10
77.545717
 20
218.787335
 30
0.0
 10
77.606658
 20
219.545198
 30
0.0
 10
77.606658
 20
219.545198
 30
0.0
 10
77.592603
 20
220.420253
 30
0.0
 10
77.545726
 20
221.296869
 30
0.0
 10
87.141648
 20
218.395122
 30
0.0
 10
87.141648
 20
218.395122
 30
0.0
 10
86.277529
 20
215.707452
 30
0.0
 10
85.849378
 20
214.112039
 30
0.0
 10
85.635301
 20
213.222920
 30
0.0
 10
85.635301
 20
213.222920
 30
0.0
 10
85.458729
 20
212.324426
 30
0.0
 10
85.338406
 20
211.393116
 30
0.0
 10
85.307156
 20
210.924336
 30
0.0
 10
85.307156
 20
210.924336
 30
0.0
 10
85.297786
 20
210.455556
 30
0.0
 10
85.319658
 20
209.828955
 30
0.0
 10
85.377474
 20
209.207039
 30
0.0
 10
85.475919
 20
208.589814
 30
0.0
 10
85.475919
 20
208.589814
 30
0.0
 10
85.618117
 20
207.981963
 30
0.0
 10
85.757187
 20
207.549122
 30
0.0
 10
85.932199
 20
207.130347
 30
0.0
 10
85.932199
 20
207.130347
 30
0.0
 10
86.141585
 20
206.730319
 30
0.0
 10
86.393164
 20
206.356860
 30
0.0
 10
86.727561
 20
205.992774
 30
0.0
 10
86.727561
 20
205.992774
 30
0.0
 10
87.099459
 20
205.666189
 30
0.0
 10
87.501047
 20
205.372421
 30
0.0
 10
87.927637
 20
205.117718
 30
0.0
 10
87.927637
 20
205.117718
 30
0.0
 10
88.241719
 20
204.977084
 30
0.0
 10
88.566741
 20
204.858328
 30
0.0
 10
89.230846
 20
204.648939
 30
0.0
 10
89.230846
 20
204.648939
 30
0.0
 10
88.943327
 20
200.004893
 30
0.0
 10
88.597991
 20
194.146708
 30
0.0
 10
88.491735
 20
192.034074
 30
0.0
 10
88.426107
 20
189.921440
 30
0.0
 10
88.426107
 20
189.921440
 30
0.0
 10
88.429239
 20
188.447910
 30
0.0
 10
88.454244
 20
186.972816
 30
0.0
 10
88.529250
 20
184.024192
 30
0.0
 10
88.726137
 20
175.618971
 30
0.0
 10
88.690196
 20
174.081371
 30
0.0
 10
88.690173
 20
174.081371
 30
0.0
  0
LWPOLYLINE
  5
105
100
AcDbEntity
  8
Layer_1
 62
7
100
AcDbPolyline
 90
109
 70
1
 10
126.868369
 20
206.411498
 30
0.0
 10
126.498034
 20
204.328554
 30
0.0
 10
126.498034
 20
204.328554
 30
0.0
 10
126.299584
 20
202.948778
 30
0.0
 10
126.121445
 20
201.565878
 30
0.0
 10
125.793300
 20
198.796951
 30
0.0
 10
125.793300
 20
198.796951
 30
0.0
 10
125.701106
 20
197.971900
 30
0.0
 10
125.518283
 20
196.315546
 30
0.0
 10
125.313581
 20
194.660753
 30
0.0
 10
125.046379
 20
192.920017
 30
0.0
 10
125.046379
 20
192.920017
 30
0.0
 10
124.757299
 20
191.182406
 30
0.0
 10
124.160384
 20
187.710311
 30
0.0
 10
123.894743
 20
186.108646
 30
0.0
 10
123.719731
 20
184.764811
 30
0.0
 10
123.719731
 20
184.764811
 30
0.0
 10
123.565034
 20
183.419413
 30
0.0
 10
123.282202
 20
180.722367
 30
0.0
 10
122.974371
 20
177.495599
 30
0.0
 10
123.121256
 20
175.956438
 30
0.0
 10
123.121256
 20
175.956438
 30
0.0
 10
105.706088
 20
175.956438
 30
0.0
 10
105.807657
 20
177.495599
 30
0.0
 10
105.596704
 20
180.708304
 30
0.0
 10
105.431071
 20
182.953757
 30
0.0
 10
105.431071
 20
182.953757
 30
0.0
 10
105.218557
 20
185.194526
 30
0.0
 10
105.040419
 20
186.457106
 30
0.0
 10
104.838844
 20
187.718123
 30
0.0
 10
104.307561
 20
191.058959
 30
0.0
 10
104.307561
 20
191.058959
 30
0.0
 10
104.091921
 20
192.863762
 30
0.0
 10
103.895034
 20
194.673252
 30
0.0
 10
103.523136
 20
197.985963
 30
0.0
 10
103.235619
 20
200.412679
 30
0.0
 10
103.235619
 20
200.412679
 30
0.0
 10
103.077795
 20
201.623694
 30
0.0
 10
102.901222
 20
202.831583
 30
0.0
 10
102.654331
 20
204.247297
 30
0.0
 10
102.654331
 20
204.247297
 30
0.0
 10
102.384002
 20
205.659887
 30
0.0
 10
101.824590
 20
208.480379
 30
0.0
 10
102.374627
 20
208.742897
 30
0.0
 10
102.374627
 20
208.742897
 30
0.0
 10
102.912158
 20
209.022601
 30
0.0
 10
103.368438
 20
209.299182
 30
0.0
 10
103.812216
 20
209.594513
 30
0.0
 10
103.812216
 20
209.594513
 30
0.0
 10
104.245057
 20
209.903908
 30
0.0
 10
104.663833
 20
210.233617
 30
0.0
 10
105.006041
 20
210.538324
 30
0.0
 10
105.006041
 20
210.538324
 30
0.0
 10
105.334189
 20
210.858654
 30
0.0
 10
105.962354
 20
211.527448
 30
0.0
 10
106.728029
 20
212.436881
 30
0.0
 10
106.728029
 20
212.436881
 30
0.0
 10
107.471825
 20
213.365064
 30
0.0
 10
108.564082
 20
214.679210
 30
0.0
 10
108.967230
 20
215.135490
 30
0.0
 10
109.636024
 20
215.841785
 30
0.0
 10
109.986047
 20
216.180869
 30
0.0
 10
109.986047
 20
216.180869
 30
0.0
 10
110.348570
 20
216.502763
 30
0.0
 10
110.732968
 20
216.804346
 30
0.0
 10
111.134556
 20
217.085614
 30
0.0
 10
111.134556
 20
217.085614
 30
0.0
 10
111.548647
 20
217.343441
 30
0.0
 10
111.978361
 20
217.577832
 30
0.0
 10
112.345572
 20
217.740341
 30
0.0
 10
112.345572
 20
217.740341
 30
0.0
 10
112.720594
 20
217.880976
 30
0.0
 10
113.104995
 20
218.001295
 30
0.0
 10
113.494081
 20
218.099740
 30
0.0
 10
113.494081
 20
218.099740
 30
0.0
 10
114.017552
 20
218.182558
 30
0.0
 10
114.544148
 20
218.240374
 30
0.0
 10
115.041056
 20
218.220054
 30
0.0
 10
116.073933
 20
218.155987
 30
0.0
 10
116.073933
 20
218.155987
 30
0.0
 10
116.617716
 20
218.070045
 30
0.0
 10
117.156814
 20
217.951288
 30
0.0
 10
117.630281
 20
217.823154
 30
0.0
 10
117.630281
 20
217.823154
 30
0.0
 10
118.091249
 20
217.652830
 30
0.0
 10
118.603782
 20
217.410630
 30
0.0
 10
119.099124
 20
217.134049
 30
0.0
 10
119.099124
 20
217.134049
 30
0.0
 10
119.575718
 20
216.829342
 30
0.0
 10
120.024184
 20
216.485570
 30
0.0
 10
120.536716
 20
215.980850
 30
0.0
 10
120.536716
 20
215.980850
 30
0.0
 10
121.010183
 20
215.437067
 30
0.0
 10
121.458649
 20
214.868279
 30
0.0
 10
121.883678
 20
214.282304
 30
0.0
 10
123.610350
 20
211.707141
 30
0.0
 10
123.610350
 20
211.707141
 30
0.0
 10
124.180699
 20
210.969593
 30
0.0
 10
124.797924
 20
210.272674
 30
0.0
 10
125.108883
 20
209.969530
 30
0.0
 10
125.108883
 20
209.969530
 30
0.0
 10
125.432340
 20
209.680450
 30
0.0
 10
125.768298
 20
209.403869
 30
0.0
 10
126.118321
 20
209.146043
 30
0.0
 10
126.118321
 20
209.146043
 30
0.0
 10
126.683982
 20
208.805395
 30
0.0
 10
127.266833
 20
208.489749
 30
0.0
 10
127.266833
 20
208.489755
 30
0.0
 10
126.868369
 20
206.411498
 30
0.0
  0
LWPOLYLINE
  5
106
100
AcDbEntity
  8
Layer_1
 62
7
100
AcDbPolyline
 90
126
 70
0
 10
87.458666
 20
108.558080
 30
0.0
 10
71.329516
 20
108.598706
 30
0.0
 10
55.200367
 20
108.558080
 30
0.0
 10
55.200367
 20
108.558080
 30
0.0
 10
55.156614
 20
110.095678
 30
0.0
 10
55.353503
 20
118.500899
 30
0.0
 10
55.428507
 20
121.451086
 30
0.0
 10
55.453511
 20
122.924616
 30
0.0
 10
55.458196
 20
124.399710
 30
0.0
 10
55.458196
 20
124.399710
 30
0.0
 10
55.391005
 20
126.512344
 30
0.0
 10
55.284748
 20
128.623417
 30
0.0
 10
54.940976
 20
134.481600
 30
0.0
 10
54.653457
 20
139.125645
 30
0.0
 10
54.653457
 20
139.125645
 30
0.0
 10
55.315999
 20
139.335034
 30
0.0
 10
55.641020
 20
139.455354
 30
0.0
 10
55.956666
 20
139.595988
 30
0.0
 10
55.956666
 20
139.595988
 30
0.0
 10
56.383256
 20
139.850691
 30
0.0
 10
56.783280
 20
140.144462
 30
0.0
 10
57.156742
 20
140.469480
 30
0.0
 10
57.156742
 20
140.469480
 30
0.0
 10
57.489575
 20
140.833567
 30
0.0
 10
57.741154
 20
141.208592
 30
0.0
 10
57.952104
 20
141.608617
 30
0.0
 10
57.952104
 20
141.608617
 30
0.0
 10
58.127115
 20
142.027392
 30
0.0
 10
58.264625
 20
142.460233
 30
0.0
 10
58.406820
 20
143.066520
 30
0.0
 10
58.406820
 20
143.066520
 30
0.0
 10
58.505265
 20
143.683749
 30
0.0
 10
58.563081
 20
144.307225
 30
0.0
 10
58.586534
 20
144.932266
 30
0.0
 10
58.575583
 20
145.402606
 30
0.0
 10
58.575583
 20
145.402606
 30
0.0
 10
58.544333
 20
145.869825
 30
0.0
 10
58.424013
 20
146.802696
 30
0.0
 10
58.249002
 20
147.699627
 30
0.0
 10
58.249002
 20
147.699627
 30
0.0
 10
58.033364
 20
148.590309
 30
0.0
 10
57.605210
 20
150.184162
 30
0.0
 10
56.742655
 20
152.873392
 30
0.0
 10
56.742655
 20
152.873392
 30
0.0
 10
66.197943
 20
155.731386
 30
0.0
 10
66.376079
 20
154.886021
 30
0.0
 10
66.576092
 20
154.046906
 30
0.0
 10
66.576092
 20
154.046906
 30
0.0
 10
66.757355
 20
153.473431
 30
0.0
 10
66.971429
 20
152.909333
 30
0.0
 10
67.213632
 20
152.370235
 30
0.0
 10
67.213632
 20
152.370235
 30
0.0
 10
67.487089
 20
151.846767
 30
0.0
 10
67.791796
 20
151.340483
 30
0.0
 10
68.126192
 20
150.852952
 30
0.0
 10
68.126192
 20
150.852952
 30
0.0
 10
68.494964
 20
150.379485
 30
0.0
 10
68.888740
 20
149.927896
 30
0.0
 10
69.321578
 20
149.488803
 30
0.0
 10
69.321578
 20
149.488803
 30
0.0
 10
69.777858
 20
149.071591
 30
0.0
 10
70.229451
 20
148.701253
 30
0.0
 10
70.699794
 20
148.352794
 30
0.0
 10
71.329519
 20
147.948081
 30
0.0
 10
71.960811
 20
148.352794
 30
0.0
 10
72.429590
 20
148.701253
 30
0.0
 10
72.429590
 20
148.701253
 30
0.0
 10
72.882743
 20
149.071591
 30
0.0
 10
73.339023
 20
149.488803
 30
0.0
 10
73.771862
 20
149.927896
 30
0.0
 10
73.771862
 20
149.927896
 30
0.0
 10
74.165638
 20
150.379485
 30
0.0
 10
74.534412
 20
150.852952
 30
0.0
 10
74.867245
 20
151.340483
 30
0.0
 10
74.867245
 20
151.340483
 30
0.0
 10
75.171952
 20
151.846767
 30
0.0
 10
75.446969
 20
152.370235
 30
0.0
 10
75.689172
 20
152.909333
 30
0.0
 10
75.689172
 20
152.909333
 30
0.0
 10
75.901685
 20
153.473431
 30
0.0
 10
76.082946
 20
154.046906
 30
0.0
 10
76.284523
 20
154.886021
 30
0.0
 10
76.284523
 20
154.886021
 30
0.0
 10
76.461095
 20
155.731386
 30
0.0
 10
85.917947
 20
152.873392
 30
0.0
 10
85.053828
 20
150.184162
 30
0.0
 10
85.053828
 20
150.184162
 30
0.0
 10
84.625677
 20
148.590309
 30
0.0
 10
84.411600
 20
147.699627
 30
0.0
 10
84.235028
 20
146.802696
 30
0.0
 10
84.235028
 20
146.802696
 30
0.0
 10
84.114708
 20
145.869825
 30
0.0
 10
84.083454
 20
145.402606
 30
0.0
 10
84.074085
 20
144.932266
 30
0.0
 10
84.095957
 20
144.307225
 30
0.0
 10
84.095957
 20
144.307225
 30
0.0
 10
84.155334
 20
143.683749
 30
0.0
 10
84.252215
 20
143.066520
 30
0.0
 10
84.394413
 20
142.460233
 30
0.0
 10
84.394413
 20
142.460233
 30
0.0
 10
84.533483
 20
142.027392
 30
0.0
 10
84.708495
 20
141.608617
 30
0.0
 10
84.917881
 20
141.208592
 30
0.0
 10
84.917881
 20
141.208592
 30
0.0
 10
85.169460
 20
140.833567
 30
0.0
 10
85.503856
 20
140.469480
 30
0.0
 10
85.875757
 20
140.144462
 30
0.0
 10
85.875757
 20
140.144462
 30
0.0
 10
86.277343
 20
139.850691
 30
0.0
 10
86.703933
 20
139.595988
 30
0.0
 10
87.019579
 20
139.455354
 30
0.0
 10
87.019579
 20
139.455354
 30
0.0
 10
87.343036
 20
139.335034
 30
0.0
 10
88.007142
 20
139.125645
 30
0.0
 10
87.719622
 20
134.481600
 30
0.0
 10
87.719622
 20
134.481600
 30
0.0
 10
87.374290
 20
128.623417
 30
0.0
 10
87.268033
 20
126.512344
 30
0.0
 10
87.202402
 20
124.399710
 30
0.0
 10
87.205535
 20
122.924616
 30
0.0
 10
87.205535
 20
122.924616
 30
0.0
 10
87.230540
 20
121.451086
 30
0.0
 10
87.305546
 20
118.500899
 30
0.0
 10
87.503996
 20
110.095678
 30
0.0
 10
87.458680
 20
108.558080
 30
0.0
 10
87.458666
 20
108.558080
 30
0.0
  0
LWPOLYLINE
  5
107
100
AcDbEntity
  8
Layer_1
 62
7
100
AcDbPolyline
 90
122
 70
0
 10
43.095483
 20
109.167347
 30
0.0
 10
9.588675
 20
109.167347
 30
0.0
 10
9.552734
 20
110.704945
 30
0.0
 10
9.751184
 20
119.175794
 30
0.0
 10
9.826188
 20
122.107230
 30
0.0
 10
9.826188
 20
122.107230
 30
0.0
 10
9.849640
 20
123.572949
 30
0.0
 10
9.854325
 20
125.040230
 30
0.0
 10
9.788697
 20
127.135674
 30
0.0
 10
9.788697
 20
127.135674
 30
0.0
 10
9.684004
 20
129.231120
 30
0.0
 10
9.341793
 20
135.053359
 30
0.0
 10
9.054276
 20
139.711468
 30
0.0
 10
9.727757
 20
139.980234
 30
0.0
 10
9.727757
 20
139.980234
 30
0.0
 10
10.055902
 20
140.130243
 30
0.0
 10
10.371545
 20
140.305255
 30
0.0
 10
10.695006
 20
140.547458
 30
0.0
 10
10.695006
 20
140.547458
 30
0.0
 10
10.995025
 20
140.820912
 30
0.0
 10
11.266915
 20
141.119370
 30
0.0
 10
11.502867
 20
141.445952
 30
0.0
 10
11.502867
 20
141.445952
 30
0.0
 10
11.652877
 20
141.717845
 30
0.0
 10
11.785699
 20
141.999113
 30
0.0
 10
12.009151
 20
142.578837
 30
0.0
 10
12.009151
 20
142.578837
 30
0.0
 10
12.188850
 20
143.178876
 30
0.0
 10
12.324797
 20
143.789850
 30
0.0
 10
12.427926
 20
144.435205
 30
0.0
 10
12.427926
 20
144.435205
 30
0.0
 10
12.499806
 20
145.085244
 30
0.0
 10
12.576375
 20
146.393141
 30
0.0
 10
12.595115
 20
147.151001
 30
0.0
 10
12.595115
 20
147.768229
 30
0.0
 10
12.566977
 20
148.646409
 30
0.0
 10
12.566977
 20
148.646409
 30
0.0
 10
12.518537
 20
149.524592
 30
0.0
 10
12.421656
 20
150.804359
 30
0.0
 10
12.281021
 20
152.081003
 30
0.0
 10
12.281021
 20
152.081003
 30
0.0
 10
12.051318
 20
153.363897
 30
0.0
 10
11.790364
 20
154.642102
 30
0.0
 10
21.030015
 20
157.436031
 30
0.0
 10
21.030015
 20
157.436031
 30
0.0
 10
21.267530
 20
157.153199
 30
0.0
 10
21.523796
 20
156.887558
 30
0.0
 10
21.740997
 20
156.712546
 30
0.0
 10
21.740997
 20
156.712546
 30
0.0
 10
21.972262
 20
156.553161
 30
0.0
 10
22.212901
 20
156.409403
 30
0.0
 10
22.462916
 20
156.284395
 30
0.0
 10
22.462916
 20
156.284395
 30
0.0
 10
22.776998
 20
156.162512
 30
0.0
 10
23.100459
 20
156.060943
 30
0.0
 10
23.428604
 20
155.979688
 30
0.0
 10
23.428604
 20
155.979688
 30
0.0
 10
23.763001
 20
155.917184
 30
0.0
 10
24.581801
 20
155.828115
 30
0.0
 10
25.406855
 20
155.795301
 30
0.0
 10
25.406855
 20
155.795301
 30
0.0
 10
26.341287
 20
155.798434
 30
0.0
 10
27.277286
 20
155.795301
 30
0.0
 10
28.102337
 20
155.828115
 30
0.0
 10
28.921140
 20
155.917184
 30
0.0
 10
28.921140
 20
155.917184
 30
0.0
 10
29.253973
 20
155.979688
 30
0.0
 10
29.583682
 20
156.060943
 30
0.0
 10
29.905576
 20
156.162512
 30
0.0
 10
29.905576
 20
156.162512
 30
0.0
 10
30.221222
 20
156.284395
 30
0.0
 10
30.471237
 20
156.409403
 30
0.0
 10
30.711879
 20
156.553161
 30
0.0
 10
30.711879
 20
156.553161
 30
0.0
 10
30.941580
 20
156.712546
 30
0.0
 10
31.160345
 20
156.887558
 30
0.0
 10
31.415042
 20
157.153199
 30
0.0
 10
31.415042
 20
157.153199
 30
0.0
 10
31.652557
 20
157.436031
 30
0.0
 10
40.893769
 20
154.642102
 30
0.0
 10
40.632815
 20
153.363897
 30
0.0
 10
40.632815
 20
153.363897
 30
0.0
 10
40.403111
 20
152.081003
 30
0.0
 10
40.260916
 20
150.804359
 30
0.0
 10
40.164035
 20
149.524592
 30
0.0
 10
40.164035
 20
149.524592
 30
0.0
 10
40.115594
 20
148.646409
 30
0.0
 10
40.087457
 20
147.768229
 30
0.0
 10
40.087457
 20
147.151001
 30
0.0
 10
40.107777
 20
146.393141
 30
0.0
 10
40.184344
 20
145.085244
 30
0.0
 10
40.184344
 20
145.085244
 30
0.0
 10
40.256223
 20
144.435205
 30
0.0
 10
40.359355
 20
143.789850
 30
0.0
 10
40.495299
 20
143.178876
 30
0.0
 10
40.495299
 20
143.178876
 30
0.0
 10
40.673435
 20
142.578837
 30
0.0
 10
40.896887
 20
141.999113
 30
0.0
 10
41.029709
 20
141.717845
 30
0.0
 10
41.029709
 20
141.717845
 30
0.0
 10
41.179719
 20
141.445952
 30
0.0
 10
41.417234
 20
141.119370
 30
0.0
 10
41.689124
 20
140.820912
 30
0.0
 10
41.689124
 20
140.820912
 30
0.0
 10
41.987583
 20
140.547458
 30
0.0
 10
42.312604
 20
140.305255
 30
0.0
 10
42.626686
 20
140.130243
 30
0.0
 10
42.626686
 20
140.130243
 30
0.0
 10
42.954832
 20
139.980234
 30
0.0
 10
43.629874
 20
139.711468
 30
0.0
 10
43.340793
 20
135.053359
 30
0.0
 10
43.340793
 20
135.053359
 30
0.0
 10
43.000145
 20
129.231120
 30
0.0
 10
42.895452
 20
127.135674
 30
0.0
 10
42.829824
 20
125.040230
 30
0.0
 10
42.832957
 20
123.572949
 30
0.0
 10
42.832957
 20
123.572949
 30
0.0
 10
42.857962
 20
122.107230
 30
0.0
 10
42.932965
 20
119.175794
 30
0.0
 10
43.131415
 20
110.704945
 30
0.0
 10
43.095477
 20
109.167347
 30
0.0
 10
43.095483
 20
109.167347
 30
0.0
  0
LWPOLYLINE
  5
108
100
AcDbEntity
  8
Layer_1
 62
7
100
AcDbPolyline
 90
122
 70
0
 10
44.691972
 20
38.921790
 30
0.0
 10
11.185165
 20
38.921790
 30
0.0
 10
11.149224
 20
40.459388
 30
0.0
 10
11.347674
 20
48.930237
 30
0.0
 10
11.422677
 20
51.861673
 30
0.0
 10
11.422677
 20
51.861673
 30
0.0
 10
11.446130
 20
53.327392
 30
0.0
 10
11.450815
 20
54.794673
 30
0.0
 10
11.385187
 20
56.890117
 30
0.0
 10
11.385187
 20
56.890117
 30
0.0
 10
11.280494
 20
58.985563
 30
0.0
 10
10.938283
 20
64.807802
 30
0.0
 10
10.650766
 20
69.465911
 30
0.0
 10
11.324247
 20
69.734677
 30
0.0
 10
11.324247
 20
69.734677
 30
0.0
 10
11.652392
 20
69.884686
 30
0.0
 10
11.968035
 20
70.059698
 30
0.0
 10
12.291496
 20
70.301901
 30
0.0
 10
12.291496
 20
70.301901
 30
0.0
 10
12.591515
 20
70.575355
 30
0.0
 10
12.863405
 20
70.873813
 30
0.0
 10
13.099357
 20
71.200395
 30
0.0
 10
13.099357
 20
71.200395
 30
0.0
 10
13.249366
 20
71.472288
 30
0.0
 10
13.382189
 20
71.753556
 30
0.0
 10
13.605641
 20
72.333280
 30
0.0
 10
13.605641
 20
72.333280
 30
0.0
 10
13.785340
 20
72.933319
 30
0.0
 10
13.921287
 20
73.544293
 30
0.0
 10
14.024416
 20
74.189648
 30
0.0
 10
14.024416
 20
74.189648
 30
0.0
 10
14.096296
 20
74.839687
 30
0.0
 10
14.172865
 20
76.147584
 30
0.0
 10
14.191605
 20
76.905444
 30
0.0
 10
14.191605
 20
77.522672
 30
0.0
 10
14.163467
 20
78.400852
 30
0.0
 10
14.163467
 20
78.400852
 30
0.0
 10
14.115027
 20
79.279034
 30
0.0
 10
14.018145
 20
80.558802
 30
0.0
 10
13.877511
 20
81.835446
 30
0.0
 10
13.877511
 20
81.835446
 30
0.0
 10
13.647808
 20
83.118340
 30
0.0
 10
13.386854
 20
84.396545
 30
0.0
 10
22.626505
 20
87.190474
 30
0.0
 10
22.626505
 20
87.190474
 30
0.0
 10
22.864020
 20
86.907642
 30
0.0
 10
23.120286
 20
86.642001
 30
0.0
 10
23.337487
 20
86.466989
 30
0.0
 10
23.337487
 20
86.466989
 30
0.0
 10
23.568751
 20
86.307604
 30
0.0
 10
23.809391
 20
86.163846
 30
0.0
 10
24.059406
 20
86.038838
 30
0.0
 10
24.059406
 20
86.038838
 30
0.0
 10
24.373488
 20
85.916955
 30
0.0
 10
24.696949
 20
85.815386
 30
0.0
 10
25.025094
 20
85.734131
 30
0.0
 10
25.025094
 20
85.734131
 30
0.0
 10
25.359491
 20
85.671627
 30
0.0
 10
26.178291
 20
85.582558
 30
0.0
 10
27.003345
 20
85.549744
 30
0.0
 10
27.003345
 20
85.549744
 30
0.0
 10
27.937777
 20
85.552877
 30
0.0
 10
28.873775
 20
85.549744
 30
0.0
 10
29.698826
 20
85.582558
 30
0.0
 10
30.517629
 20
85.671627
 30
0.0
 10
30.517629
 20
85.671627
 30
0.0
 10
30.850462
 20
85.734131
 30
0.0
 10
31.180171
 20
85.815386
 30
0.0
 10
31.502065
 20
85.916955
 30
0.0
 10
31.502065
 20
85.916955
 30
0.0
 10
31.817711
 20
86.038838
 30
0.0
 10
32.067726
 20
86.163846
 30
0.0
 10
32.308368
 20
86.307604
 30
0.0
 10
32.308368
 20
86.307604
 30
0.0
 10
32.538069
 20
86.466989
 30
0.0
 10
32.756833
 20
86.642001
 30
0.0
 10
33.011531
 20
86.907642
 30
0.0
 10
33.011531
 20
86.907642
 30
0.0
 10
33.249046
 20
87.190474
 30
0.0
 10
42.490257
 20
84.396545
 30
0.0
 10
42.229303
 20
83.118340
 30
0.0
 10
42.229303
 20
83.118340
 30
0.0
 10
41.999600
 20
81.835446
 30
0.0
 10
41.857405
 20
80.558802
 30
0.0
 10
41.760524
 20
79.279034
 30
0.0
 10
41.760524
 20
79.279034
 30
0.0
 10
41.712083
 20
78.400852
 30
0.0
 10
41.683946
 20
77.522672
 30
0.0
 10
41.683946
 20
76.905444
 30
0.0
 10
41.704266
 20
76.147584
 30
0.0
 10
41.780833
 20
74.839687
 30
0.0
 10
41.780833
 20
74.839687
 30
0.0
 10
41.852712
 20
74.189648
 30
0.0
 10
41.955844
 20
73.544293
 30
0.0
 10
42.091788
 20
72.933319
 30
0.0
 10
42.091788
 20
72.933319
 30
0.0
 10
42.269924
 20
72.333280
 30
0.0
 10
42.493376
 20
71.753556
 30
0.0
 10
42.626198
 20
71.472288
 30
0.0
 10
42.626198
 20
71.472288
 30
0.0
 10
42.776208
 20
71.200395
 30
0.0
 10
43.013723
 20
70.873813
 30
0.0
 10
43.285613
 20
70.575355
 30
0.0
 10
43.285613
 20
70.575355
 30
0.0
 10
43.584072
 20
70.301901
 30
0.0
 10
43.909093
 20
70.059698
 30
0.0
 10
44.223175
 20
69.884686
 30
0.0
 10
44.223175
 20
69.884686
 30
0.0
 10
44.551321
 20
69.734677
 30
0.0
 10
45.226362
 20
69.465911
 30
0.0
 10
44.937282
 20
64.807802
 30
0.0
 10
44.937282
 20
64.807802
 30
0.0
 10
44.596634
 20
58.985563
 30
0.0
 10
44.491941
 20
56.890117
 30
0.0
 10
44.426313
 20
54.794673
 30
0.0
 10
44.429446
 20
53.327392
 30
0.0
 10
44.429446
 20
53.327392
 30
0.0
 10
44.454451
 20
51.861673
 30
0.0
 10
44.529454
 20
48.930237
 30
0.0
 10
44.727904
 20
40.459388
 30
0.0
 10
44.691966
 20
38.921790
 30
0.0
 10
44.691972
 20
38.921790
 30
0.0
  0
LWPOLYLINE
  5
109
100
AcDbEntity
  8
Layer_1
 62
7
100
AcDbPolyline
 90
91
 70
1
 10
101.913269
 20
128.814512
 30
0.0
 10
101.417924
 20
131.074032
 30
0.0
 10
100.717881
 20
134.153914
 30
0.0
 10
100.717881
 20
134.153914
 30
0.0
 10
101.269478
 20
134.417992
 30
0.0
 10
101.813261
 20
134.699261
 30
0.0
 10
102.267978
 20
134.975841
 30
0.0
 10
102.267978
 20
134.975841
 30
0.0
 10
102.713319
 20
135.271173
 30
0.0
 10
103.146160
 20
135.582128
 30
0.0
 10
103.563372
 20
135.911837
 30
0.0
 10
103.563372
 20
135.911837
 30
0.0
 10
103.905583
 20
136.216544
 30
0.0
 10
104.235292
 20
136.535314
 30
0.0
 10
104.863457
 20
137.205671
 30
0.0
 10
104.863457
 20
137.205671
 30
0.0
 10
105.627568
 20
138.115101
 30
0.0
 10
106.372928
 20
139.043284
 30
0.0
 10
107.465185
 20
140.355866
 30
0.0
 10
107.868333
 20
140.813709
 30
0.0
 10
108.537127
 20
141.520004
 30
0.0
 10
108.537127
 20
141.520004
 30
0.0
 10
108.885586
 20
141.857525
 30
0.0
 10
109.249673
 20
142.180983
 30
0.0
 10
109.634071
 20
142.482566
 30
0.0
 10
109.634071
 20
142.482566
 30
0.0
 10
110.035659
 20
142.762270
 30
0.0
 10
110.449749
 20
143.021661
 30
0.0
 10
110.879464
 20
143.254489
 30
0.0
 10
110.879464
 20
143.254489
 30
0.0
 10
111.245111
 20
143.416998
 30
0.0
 10
111.621697
 20
143.557632
 30
0.0
 10
112.004534
 20
143.679515
 30
0.0
 10
112.004534
 20
143.679515
 30
0.0
 10
112.393623
 20
143.777960
 30
0.0
 10
112.917091
 20
143.860778
 30
0.0
 10
113.445250
 20
143.918594
 30
0.0
 10
113.445250
 20
143.918594
 30
0.0
 10
113.940596
 20
143.898274
 30
0.0
 10
114.973473
 20
143.832643
 30
0.0
 10
115.518819
 20
143.746701
 30
0.0
 10
116.056354
 20
143.629506
 30
0.0
 10
116.056354
 20
143.629506
 30
0.0
 10
116.531384
 20
143.499810
 30
0.0
 10
116.992352
 20
143.331050
 30
0.0
 10
117.503321
 20
143.087283
 30
0.0
 10
117.503321
 20
143.087283
 30
0.0
 10
118.000227
 20
142.812266
 30
0.0
 10
118.475258
 20
142.505999
 30
0.0
 10
118.925286
 20
142.162227
 30
0.0
 10
118.925286
 20
142.162227
 30
0.0
 10
119.436255
 20
141.657506
 30
0.0
 10
119.909723
 20
141.113723
 30
0.0
 10
120.358191
 20
140.544935
 30
0.0
 10
120.358191
 20
140.544935
 30
0.0
 10
120.784781
 20
139.958960
 30
0.0
 10
122.511453
 20
137.383801
 30
0.0
 10
123.081802
 20
136.646252
 30
0.0
 10
123.697464
 20
135.949333
 30
0.0
 10
123.697464
 20
135.949333
 30
0.0
 10
124.008422
 20
135.646190
 30
0.0
 10
124.333443
 20
135.357109
 30
0.0
 10
124.669400
 20
135.082092
 30
0.0
 10
124.669400
 20
135.082092
 30
0.0
 10
125.017860
 20
134.822699
 30
0.0
 10
125.591336
 20
134.478927
 30
0.0
 10
126.181999
 20
134.160157
 30
0.0
 10
126.181999
 20
134.160157
 30
0.0
 10
125.467889
 20
131.195906
 30
0.0
 10
124.983483
 20
128.814507
 30
0.0
 10
124.497516
 20
126.348726
 30
0.0
 10
124.499209
 20
124.803313
 30
0.0
 10
124.499209
 20
124.803313
 30
0.0
 10
121.628713
 20
125.084582
 30
0.0
 10
118.755092
 20
125.323661
 30
0.0
 10
117.430008
 20
125.395540
 30
0.0
 10
117.430008
 20
125.395540
 30
0.0
 10
116.103363
 20
125.447105
 30
0.0
 10
114.776716
 20
125.479919
 30
0.0
 10
113.448507
 20
125.492421
 30
0.0
 10
113.448507
 20
125.492421
 30
0.0
 10
112.121860
 20
125.479919
 30
0.0
 10
110.793651
 20
125.447105
 30
0.0
 10
109.467004
 20
125.395540
 30
0.0
 10
109.467004
 20
125.395540
 30
0.0
 10
108.141920
 20
125.323661
 30
0.0
 10
105.268299
 20
125.084582
 30
0.0
 10
102.397806
 20
124.803313
 30
0.0
 10
102.397806
 20
124.803313
 30
0.0
 10
102.399217
 20
126.348731
 30
0.0
 10
101.913269
 20
128.814512
 30
0.0
  0
LWPOLYLINE
  5
10a
100
AcDbEntity
  8
Layer_1
 62
7
100
AcDbPolyline
 90
109
 70
1
 10
125.587656
 20
70.132870
 30
0.0
 10
125.217321
 20
68.049926
 30
0.0
 10
125.217321
 20
68.049926
 30
0.0
 10
125.018871
 20
66.670150
 30
0.0
 10
124.840732
 20
65.287250
 30
0.0
 10
124.512586
 20
62.518322
 30
0.0
 10
124.512586
 20
62.518322
 30
0.0
 10
124.420393
 20
61.693271
 30
0.0
 10
124.237569
 20
60.036917
 30
0.0
 10
124.032868
 20
58.382124
 30
0.0
 10
123.765666
 20
56.641389
 30
0.0
 10
123.765666
 20
56.641389
 30
0.0
 10
123.476585
 20
54.903778
 30
0.0
 10
122.879671
 20
51.431682
 30
0.0
 10
122.614030
 20
49.830018
 30
0.0
 10
122.439018
 20
48.486183
 30
0.0
 10
122.439018
 20
48.486183
 30
0.0
 10
122.284321
 20
47.140784
 30
0.0
 10
122.001489
 20
44.443739
 30
0.0
 10
121.693658
 20
41.216971
 30
0.0
 10
121.840543
 20
39.677810
 30
0.0
 10
121.840543
 20
39.677810
 30
0.0
 10
104.425375
 20
39.677810
 30
0.0
 10
104.526944
 20
41.216971
 30
0.0
 10
104.315991
 20
44.429676
 30
0.0
 10
104.150358
 20
46.675129
 30
0.0
 10
104.150358
 20
46.675129
 30
0.0
 10
103.937844
 20
48.915897
 30
0.0
 10
103.759706
 20
50.178477
 30
0.0
 10
103.558131
 20
51.439494
 30
0.0
 10
103.026848
 20
54.780331
 30
0.0
 10
103.026848
 20
54.780331
 30
0.0
 10
102.811207
 20
56.585134
 30
0.0
 10
102.614321
 20
58.394624
 30
0.0
 10
102.242422
 20
61.707334
 30
0.0
 10
101.954906
 20
64.134050
 30
0.0
 10
101.954906
 20
64.134050
 30
0.0
 10
101.797081
 20
65.345066
 30
0.0
 10
101.620509
 20
66.552954
 30
0.0
 10
101.373618
 20
67.968668
 30
0.0
 10
101.373618
 20
67.968668
 30
0.0
 10
101.103289
 20
69.381258
 30
0.0
 10
100.543876
 20
72.201751
 30
0.0
 10
101.093913
 20
72.464268
 30
0.0
 10
101.093913
 20
72.464268
 30
0.0
 10
101.631445
 20
72.743973
 30
0.0
 10
102.087725
 20
73.020554
 30
0.0
 10
102.531503
 20
73.315885
 30
0.0
 10
102.531503
 20
73.315885
 30
0.0
 10
102.964344
 20
73.625280
 30
0.0
 10
103.383120
 20
73.954988
 30
0.0
 10
103.725328
 20
74.259695
 30
0.0
 10
103.725328
 20
74.259695
 30
0.0
 10
104.053476
 20
74.580026
 30
0.0
 10
104.681641
 20
75.248819
 30
0.0
 10
105.447315
 20
76.158252
 30
0.0
 10
105.447315
 20
76.158252
 30
0.0
 10
106.191112
 20
77.086436
 30
0.0
 10
107.283369
 20
78.400581
 30
0.0
 10
107.686517
 20
78.856861
 30
0.0
 10
108.355311
 20
79.563156
 30
0.0
 10
108.705334
 20
79.902240
 30
0.0
 10
108.705334
 20
79.902240
 30
0.0
 10
109.067857
 20
80.224135
 30
0.0
 10
109.452255
 20
80.525717
 30
0.0
 10
109.853843
 20
80.806986
 30
0.0
 10
109.853843
 20
80.806986
 30
0.0
 10
110.267933
 20
81.064813
 30
0.0
 10
110.697648
 20
81.299204
 30
0.0
 10
111.064858
 20
81.461713
 30
0.0
 10
111.064858
 20
81.461713
 30
0.0
 10
111.439881
 20
81.602347
 30
0.0
 10
111.824282
 20
81.722667
 30
0.0
 10
112.213367
 20
81.821112
 30
0.0
 10
112.213367
 20
81.821112
 30
0.0
 10
112.736839
 20
81.903930
 30
0.0
 10
113.263434
 20
81.961746
 30
0.0
 10
113.760343
 20
81.941426
 30
0.0
 10
114.793220
 20
81.877359
 30
0.0
 10
114.793220
 20
81.877359
 30
0.0
 10
115.337003
 20
81.791416
 30
0.0
 10
115.876101
 20
81.672660
 30
0.0
 10
116.349568
 20
81.544525
 30
0.0
 10
116.349568
 20
81.544525
 30
0.0
 10
116.810536
 20
81.374201
 30
0.0
 10
117.323068
 20
81.132001
 30
0.0
 10
117.818411
 20
80.855421
 30
0.0
 10
117.818411
 20
80.855421
 30
0.0
 10
118.295005
 20
80.550714
 30
0.0
 10
118.743470
 20
80.206942
 30
0.0
 10
119.256003
 20
79.702221
 30
0.0
 10
119.256003
 20
79.702221
 30
0.0
 10
119.729470
 20
79.158438
 30
0.0
 10
120.177935
 20
78.589650
 30
0.0
 10
120.602965
 20
78.003675
 30
0.0
 10
122.329637
 20
75.428513
 30
0.0
 10
122.329637
 20
75.428513
 30
0.0
 10
122.899986
 20
74.690965
 30
0.0
 10
123.517211
 20
73.994045
 30
0.0
 10
123.828169
 20
73.690902
 30
0.0
 10
123.828169
 20
73.690902
 30
0.0
 10
124.151627
 20
73.401822
 30
0.0
 10
124.487584
 20
73.125241
 30
0.0
 10
124.837608
 20
72.867414
 30
0.0
 10
124.837608
 20
72.867414
 30
0.0
 10
125.403269
 20
72.526766
 30
0.0
 10
125.986119
 20
72.211120
 30
0.0
 10
125.986119
 20
72.211126
 30
0.0
 10
125.587656
 20
70.132870
 30
0.0
  0
LWPOLYLINE
  5
10b
100
AcDbEntity
  8
Layer_1
 62
7
100
AcDbPolyline
 90
126
 70
0
 10
88.373500
 20
38.492603
 30
0.0
 10
72.244351
 20
38.533229
 30
0.0
 10
56.115201
 20
38.492603
 30
0.0
 10
56.115201
 20
38.492603
 30
0.0
 10
56.071448
 20
40.030201
 30
0.0
 10
56.268338
 20
48.435422
 30
0.0
 10
56.343341
 20
51.385610
 30
0.0
 10
56.368346
 20
52.859140
 30
0.0
 10
56.373031
 20
54.334234
 30
0.0
 10
56.373031
 20
54.334234
 30
0.0
 10
56.305839
 20
56.446867
 30
0.0
 10
56.199583
 20
58.557940
 30
0.0
 10
55.855811
 20
64.416123
 30
0.0
 10
55.568291
 20
69.060169
 30
0.0
 10
55.568291
 20
69.060169
 30
0.0
 10
56.230833
 20
69.269558
 30
0.0
 10
56.555854
 20
69.389878
 30
0.0
 10
56.871500
 20
69.530512
 30
0.0
 10
56.871500
 20
69.530512
 30
0.0
 10
57.298090
 20
69.785214
 30
0.0
 10
57.698115
 20
70.078985
 30
0.0
 10
58.071577
 20
70.404004
 30
0.0
 10
58.071577
 20
70.404004
 30
0.0
 10
58.404410
 20
70.768090
 30
0.0
 10
58.655989
 20
71.143115
 30
0.0
 10
58.866938
 20
71.543140
 30
0.0
 10
58.866938
 20
71.543140
 30
0.0
 10
59.041950
 20
71.961915
 30
0.0
 10
59.179460
 20
72.394757
 30
0.0
 10
59.321655
 20
73.001043
 30
0.0
 10
59.321655
 20
73.001043
 30
0.0
 10
59.420100
 20
73.618272
 30
0.0
 10
59.477916
 20
74.241749
 30
0.0
 10
59.501368
 20
74.866789
 30
0.0
 10
59.490418
 20
75.337129
 30
0.0
 10
59.490418
 20
75.337129
 30
0.0
 10
59.459168
 20
75.804348
 30
0.0
 10
59.338848
 20
76.737220
 30
0.0
 10
59.163836
 20
77.634150
 30
0.0
 10
59.163836
 20
77.634150
 30
0.0
 10
58.948199
 20
78.524832
 30
0.0
 10
58.520045
 20
80.118685
 30
0.0
 10
57.657489
 20
82.807916
 30
0.0
 10
57.657489
 20
82.807916
 30
0.0
 10
67.112777
 20
85.665910
 30
0.0
 10
67.290913
 20
84.820544
 30
0.0
 10
67.490927
 20
83.981430
 30
0.0
 10
67.490927
 20
83.981430
 30
0.0
 10
67.672190
 20
83.407954
 30
0.0
 10
67.886264
 20
82.843857
 30
0.0
 10
68.128467
 20
82.304759
 30
0.0
 10
68.128467
 20
82.304759
 30
0.0
 10
68.401923
 20
81.781290
 30
0.0
 10
68.706630
 20
81.275006
 30
0.0
 10
69.041027
 20
80.787476
 30
0.0
 10
69.041027
 20
80.787476
 30
0.0
 10
69.409798
 20
80.314008
 30
0.0
 10
69.803574
 20
79.862419
 30
0.0
 10
70.236413
 20
79.423326
 30
0.0
 10
70.236413
 20
79.423326
 30
0.0
 10
70.692693
 20
79.006114
 30
0.0
 10
71.144285
 20
78.635777
 30
0.0
 10
71.614628
 20
78.287317
 30
0.0
 10
72.244354
 20
77.882605
 30
0.0
 10
72.875645
 20
78.287317
 30
0.0
 10
73.344425
 20
78.635777
 30
0.0
 10
73.344425
 20
78.635777
 30
0.0
 10
73.797578
 20
79.006114
 30
0.0
 10
74.253858
 20
79.423326
 30
0.0
 10
74.686696
 20
79.862419
 30
0.0
 10
74.686696
 20
79.862419
 30
0.0
 10
75.080472
 20
80.314008
 30
0.0
 10
75.449247
 20
80.787476
 30
0.0
 10
75.782080
 20
81.275006
 30
0.0
 10
75.782080
 20
81.275006
 30
0.0
 10
76.086787
 20
81.781290
 30
0.0
 10
76.361804
 20
82.304759
 30
0.0
 10
76.604007
 20
82.843857
 30
0.0
 10
76.604007
 20
82.843857
 30
0.0
 10
76.816520
 20
83.407954
 30
0.0
 10
76.997780
 20
83.981430
 30
0.0
 10
77.199357
 20
84.820544
 30
0.0
 10
77.199357
 20
84.820544
 30
0.0
 10
77.375930
 20
85.665910
 30
0.0
 10
86.832781
 20
82.807916
 30
0.0
 10
85.968662
 20
80.118685
 30
0.0
 10
85.968662
 20
80.118685
 30
0.0
 10
85.540511
 20
78.524832
 30
0.0
 10
85.326434
 20
77.634150
 30
0.0
 10
85.149862
 20
76.737220
 30
0.0
 10
85.149862
 20
76.737220
 30
0.0
 10
85.029542
 20
75.804348
 30
0.0
 10
84.998289
 20
75.337129
 30
0.0
 10
84.988919
 20
74.866789
 30
0.0
 10
85.010792
 20
74.241749
 30
0.0
 10
85.010792
 20
74.241749
 30
0.0
 10
85.070168
 20
73.618272
 30
0.0
 10
85.167049
 20
73.001043
 30
0.0
 10
85.309247
 20
72.394757
 30
0.0
 10
85.309247
 20
72.394757
 30
0.0
 10
85.448318
 20
71.961915
 30
0.0
 10
85.623329
 20
71.543140
 30
0.0
 10
85.832716
 20
71.143115
 30
0.0
 10
85.832716
 20
71.143115
 30
0.0
 10
86.084294
 20
70.768090
 30
0.0
 10
86.418691
 20
70.404004
 30
0.0
 10
86.790592
 20
70.078985
 30
0.0
 10
86.790592
 20
70.078985
 30
0.0
 10
87.192177
 20
69.785214
 30
0.0
 10
87.618768
 20
69.530512
 30
0.0
 10
87.934413
 20
69.389878
 30
0.0
 10
87.934413
 20
69.389878
 30
0.0
 10
88.257871
 20
69.269558
 30
0.0
 10
88.921977
 20
69.060169
 30
0.0
 10
88.634457
 20
64.416123
 30
0.0
 10
88.634457
 20
64.416123
 30
0.0
 10
88.289124
 20
58.557940
 30
0.0
 10
88.182868
 20
56.446867
 30
0.0
 10
88.117237
 20
54.334234
 30
0.0
 10
88.120370
 20
52.859140
 30
0.0
 10
88.120370
 20
52.859140
 30
0.0
 10
88.145374
 20
51.385610
 30
0.0
 10
88.220381
 20
48.435422
 30
0.0
 10
88.418831
 20
40.030201
 30
0.0
 10
88.373514
 20
38.492603
 30
0.0
 10
88.373500
 20
38.492603
 30
0.0
  0
ENDSEC
  0
SECTION
  2
OBJECTS
  0
DICTIONARY
  5
C
330
0
100
AcDbDictionary
  3
ACAD_GROUP
350
D
  3
ACAD_MLINESTYLE
350
17
  0
DICTIONARY
  5
D
330
C
100
AcDbDictionary
  0
DICTIONARY
  5
1A
330
C
100
AcDbDictionary
  0
DICTIONARY
  5
17
330
C
100
AcDbDictionary
  3
STANDARD
350
18
  0
DICTIONARY
  5
19
330
C
100
AcDbDictionary
  0
ENDSEC
  0
EOF
