  0
SECTION
  2
HEADER
  9
$ACADVER
  1
AC1014
  9
$HANDSEED
  5
FFFF
  9
$MEASUREMENT
 70
     1
  0
ENDSEC
  0
SECTION
  2
TABLES
  0
TABLE
  2
VPORT
  5
8
330
0
100
AcDbSymbolTable
 70
     4
  0
VPORT
  5
2E
330
8
100
AcDbSymbolTableRecord
100
AcDbViewportTableRecord
  2
*ACTIVE
 70
     0
 10
0.0
 20
0.0
 11
1.0
 21
1.0
 12
210.0
 22
148.5
 13
0.0
 23
0.0
 14
10.0
 24
10.0
 15
10.0
 25
10.0
 16
0.0
 26
0.0
 36
1.0
 17
0.0
 27
0.0
 37
0.0
 40
341.0
 41
1.24
 42
50.0
 43
0.0
 44
0.0
 50
0.0
 51
0.0
 71
     0
 72
   100
 73
     1
 74
     3
 75
     0
 76
     0
 77
     0
 78
     0
  0
ENDTAB
  0
TABLE
  2
LTYPE
  5
5
330
0
100
AcDbSymbolTable
 70
     1
  0
LTYPE
  5
14
330
5
100
AcDbSymbolTableRecord
100
AcDbLinetypeTableRecord
  2
BYBLOCK
 70
     0
  3

 72
    65
 73
     0
 40
0.0
  0
LTYPE
  5
15
330
5
100
AcDbSymbolTableRecord
100
AcDbLinetypeTableRecord
  2
BYLAYER
 70
     0
  3

 72
    65
 73
     0
 40
0.0
  0
LTYPE
  5
16
330
5
100
AcDbSymbolTableRecord
100
AcDbLinetypeTableRecord
  2
CONTINUOUS
 70
     0
  3
Solid line
 72
    65
 73
     0
 40
0.0
  0
ENDTAB
  0
TABLE
  2
LAYER
  5
2
100
AcDbSymbolTable
 70
2
  0
LAYER
  5
50
100
AcDbSymbolTableRecord
100
AcDbLayerTableRecord
  2
0
 70
0
  6
CONTINUOUS
  0
LAYER
  5
51
100
AcDbSymbolTableRecord
100
AcDbLayerTableRecord
  2
Layer_1
 70
0
  6
CONTINUOUS
  0
ENDTAB
  0
TABLE
  2
STYLE
  5
3
330
0
100
AcDbSymbolTable
 70
     1
  0
STYLE
  5
11
330
3
100
AcDbSymbolTableRecord
100
AcDbTextStyleTableRecord
  2
STANDARD
 70
     0
 40
0.0
 41
1.0
 50
0.0
 71
     0
 42
2.5
  3
txt
  4

  0
ENDTAB
  0
TABLE
  2
VIEW
  5
6
330
0
100
AcDbSymbolTable
 70
     0
  0
ENDTAB
  0
TABLE
  2
UCS
  5
7
330
0
100
AcDbSymbolTable
 70
     0
  0
ENDTAB
  0
TABLE
  2
APPID
  5
9
330
0
100
AcDbSymbolTable
 70
     2
  0
APPID
  5
12
330
9
100
AcDbSymbolTableRecord
100
AcDbRegAppTableRecord
  2
ACAD
 70
     0
  0
ENDTAB
  0
TABLE
  2
DIMSTYLE
  5
A
330
0
100
AcDbSymbolTable
 70
     1
  0
DIMSTYLE
105
27
330
A
100
AcDbSymbolTableRecord
100
AcDbDimStyleTableRecord
  2
ISO-25
 70
     0
  3

  4

  5

  6

  7

 40
1.0
 41
2.5
 42
0.625
 43
3.75
 44
1.25
 45
0.0
 46
0.0
 47
0.0
 48
0.0
140
2.5
141
2.5
142
0.0
143
0.03937007874016
144
1.0
145
0.0
146
1.0
147
0.625
 71
     0
 72
     0
 73
     0
 74
     0
 75
     0
 76
     0
 77
     1
 78
     8
170
     0
171
     3
172
     1
173
     0
174
     0
175
     0
176
     0
177
     0
178
     0
270
     2
271
     2
272
     2
273
     2
274
     3
340
11
275
     0
280
     0
281
     0
282
     0
283
     0
284
     8
285
     0
286
     0
287
     3
288
     0
  0
ENDTAB
  0
TABLE
  2
BLOCK_RECORD
  5
1
330
0
100
AcDbSymbolTable
 70
     1
  0
BLOCK_RECORD
  5
1F
330
1
100
AcDbSymbolTableRecord
100
AcDbBlockTableRecord
  2
*MODEL_SPACE
  0
BLOCK_RECORD
  5
1B
330
1
100
AcDbSymbolTableRecord
100
AcDbBlockTableRecord
  2
*PAPER_SPACE
  0
ENDTAB
  0
ENDSEC
  0
SECTION
  2
BLOCKS
  0
BLOCK
  5
20
330
1F
100
AcDbEntity
  8
0
100
AcDbBlockBegin
  2
*MODEL_SPACE
 70
     0
 10
0.0
 20
0.0
 30
0.0
  3
*MODEL_SPACE
  1

  0
ENDBLK
  5
21
330
1F
100
AcDbEntity
  8
0
100
AcDbBlockEnd
  0
BLOCK
  5
1C
330
1B
100
AcDbEntity
 67
     1
  8
0
100
AcDbBlockBegin
  2
*PAPER_SPACE
  1

  0
ENDBLK
  5
1D
330
1B
100
AcDbEntity
 67
     1
  8
0
100
AcDbBlockEnd
  0
ENDSEC
  0
SECTION
  2
ENTITIES
  0
LWPOLYLINE
  5
100
100
AcDbEntity
  8
Layer_1
 62
7
100
AcDbPolyline
 90
131
 70
0
 10
55.780658
 20
226.265499
 30
0.0
 10
39.137412
 20
226.243626
 30
0.0
 10
22.495732
 20
226.265499
 30
0.0
 10
22.495732
 20
226.265499
 30
0.0
 10
22.508231
 20
227.803096
 30
0.0
 10
22.541046
 20
231.820538
 30
0.0
 10
22.561360
 20
237.375577
 30
0.0
 10
22.545733
 20
241.486776
 30
0.0
 10
22.519168
 20
243.541594
 30
0.0
 10
22.519168
 20
243.541594
 30
0.0
 10
22.467602
 20
245.596414
 30
0.0
 10
22.433225
 20
246.223015
 30
0.0
 10
22.050388
 20
251.567105
 30
0.0
 10
21.767558
 20
256.267403
 30
0.0
 10
21.767558
 20
256.267403
 30
0.0
 10
22.455101
 20
256.500231
 30
0.0
 10
22.791060
 20
256.631489
 30
0.0
 10
23.116081
 20
256.786187
 30
0.0
 10
23.116081
 20
256.786187
 30
0.0
 10
23.425475
 20
256.978386
 30
0.0
 10
23.714556
 20
257.200274
 30
0.0
 10
23.984886
 20
257.444041
 30
0.0
 10
23.984886
 20
257.444041
 30
0.0
 10
24.225526
 20
257.715934
 30
0.0
 10
24.503669
 20
258.148772
 30
0.0
 10
24.736496
 20
258.609740
 30
0.0
 10
24.736496
 20
258.609740
 30
0.0
 10
24.934946
 20
259.091019
 30
0.0
 10
25.099019
 20
259.584801
 30
0.0
 10
25.244341
 20
260.170776
 30
0.0
 10
25.244341
 20
260.170776
 30
0.0
 10
25.338097
 20
260.769251
 30
0.0
 10
25.422477
 20
261.503672
 30
0.0
 10
25.463105
 20
262.241220
 30
0.0
 10
25.463105
 20
263.006892
 30
0.0
 10
25.463105
 20
263.006892
 30
0.0
 10
25.439666
 20
263.774130
 30
0.0
 10
25.397476
 20
264.539805
 30
0.0
 10
25.338097
 20
265.305476
 30
0.0
 10
25.338097
 20
265.305476
 30
0.0
 10
25.245904
 20
266.052400
 30
0.0
 10
25.106833
 20
267.033712
 30
0.0
 10
24.939635
 20
268.008773
 30
0.0
 10
24.675555
 20
269.144783
 30
0.0
 10
24.675555
 20
269.144783
 30
0.0
 10
24.386474
 20
270.274544
 30
0.0
 10
33.666752
 20
273.576315
 30
0.0
 10
33.832388
 20
271.924649
 30
0.0
 10
33.832388
 20
271.924649
 30
0.0
 10
33.963644
 20
271.082408
 30
0.0
 10
34.148031
 20
270.249542
 30
0.0
 10
34.324606
 20
269.699507
 30
0.0
 10
34.324606
 20
269.699507
 30
0.0
 10
34.548058
 20
269.165097
 30
0.0
 10
34.826200
 20
268.632250
 30
0.0
 10
35.157472
 20
268.130656
 30
0.0
 10
35.512180
 20
267.719693
 30
0.0
 10
35.512180
 20
267.719693
 30
0.0
 10
35.909081
 20
267.350919
 30
0.0
 10
36.432552
 20
266.963394
 30
0.0
 10
36.993525
 20
266.633688
 30
0.0
 10
36.993525
 20
266.633688
 30
0.0
 10
37.546686
 20
266.389921
 30
0.0
 10
38.121723
 20
266.203973
 30
0.0
 10
38.628004
 20
266.108653
 30
0.0
 10
38.628004
 20
266.108653
 30
0.0
 10
39.137412
 20
266.038337
 30
0.0
 10
39.648381
 20
266.108653
 30
0.0
 10
40.153102
 20
266.203973
 30
0.0
 10
40.153102
 20
266.203973
 30
0.0
 10
40.728138
 20
266.389921
 30
0.0
 10
41.281296
 20
266.633688
 30
0.0
 10
41.843833
 20
266.963394
 30
0.0
 10
41.843833
 20
266.963394
 30
0.0
 10
42.365741
 20
267.350919
 30
0.0
 10
42.764205
 20
267.719693
 30
0.0
 10
43.117352
 20
268.130656
 30
0.0
 10
43.117352
 20
268.130656
 30
0.0
 10
43.448622
 20
268.632250
 30
0.0
 10
43.726766
 20
269.165097
 30
0.0
 10
43.950218
 20
269.699507
 30
0.0
 10
43.950218
 20
269.699507
 30
0.0
 10
44.128354
 20
270.249542
 30
0.0
 10
44.311178
 20
271.082408
 30
0.0
 10
44.442436
 20
271.924649
 30
0.0
 10
44.442436
 20
271.924649
 30
0.0
 10
44.608070
 20
273.576315
 30
0.0
 10
53.888346
 20
270.274544
 30
0.0
 10
53.600827
 20
269.144783
 30
0.0
 10
53.600827
 20
269.144783
 30
0.0
 10
53.335185
 20
268.008773
 30
0.0
 10
53.167988
 20
267.033712
 30
0.0
 10
53.028918
 20
266.052400
 30
0.0
 10
52.938288
 20
265.305476
 30
0.0
 10
52.938288
 20
265.305476
 30
0.0
 10
52.877345
 20
264.539805
 30
0.0
 10
52.836716
 20
263.774130
 30
0.0
 10
52.813263
 20
263.006892
 30
0.0
 10
52.813263
 20
263.006892
 30
0.0
 10
52.811570
 20
262.241220
 30
0.0
 10
52.852196
 20
261.503672
 30
0.0
 10
52.936577
 20
260.769251
 30
0.0
 10
53.031895
 20
260.170776
 30
0.0
 10
53.031895
 20
260.170776
 30
0.0
 10
53.175654
 20
259.584801
 30
0.0
 10
53.339726
 20
259.091019
 30
0.0
 10
53.538176
 20
258.609740
 30
0.0
 10
53.538176
 20
258.609740
 30
0.0
 10
53.771004
 20
258.148772
 30
0.0
 10
54.050709
 20
257.715934
 30
0.0
 10
54.291351
 20
257.444041
 30
0.0
 10
54.291351
 20
257.444041
 30
0.0
 10
54.560117
 20
257.200274
 30
0.0
 10
54.849197
 20
256.978386
 30
0.0
 10
55.158592
 20
256.786187
 30
0.0
 10
55.158592
 20
256.786187
 30
0.0
 10
55.485177
 20
256.631489
 30
0.0
 10
55.821134
 20
256.500231
 30
0.0
 10
56.507115
 20
256.267403
 30
0.0
 10
56.507115
 20
256.267403
 30
0.0
 10
56.224286
 20
251.567105
 30
0.0
 10
55.841448
 20
246.223015
 30
0.0
 10
55.807071
 20
245.596414
 30
0.0
 10
55.755506
 20
243.541594
 30
0.0
 10
55.755506
 20
243.541594
 30
0.0
 10
55.730501
 20
241.486776
 30
0.0
 10
55.713314
 20
237.375577
 30
0.0
 10
55.735186
 20
231.820538
 30
0.0
 10
55.768000
 20
227.803096
 30
0.0
 10
55.780503
 20
226.265499
 30
0.0
 10
55.780658
 20
226.265499
 30
0.0
  0
LWPOLYLINE
  5
101
100
AcDbEntity
  8
Layer_1
 62
7
100
AcDbPolyline
 90
120
 70
0
 10
101.641989
 20
226.604583
 30
0.0
 10
96.686985
 20
226.420196
 30
0.0
 10
91.730421
 20
226.273311
 30
0.0
 10
91.730421
 20
226.273311
 30
0.0
 10
88.058312
 20
226.245173
 30
0.0
 10
84.384642
 20
226.243480
 30
0.0
 10
80.710972
 20
226.245173
 30
0.0
 10
80.710972
 20
226.245173
 30
0.0
 10
77.037303
 20
226.273311
 30
0.0
 10
72.082302
 20
226.420196
 30
0.0
 10
67.127298
 20
226.604583
 30
0.0
 10
67.127298
 20
226.604583
 30
0.0
 10
67.139800
 20
228.142180
 30
0.0
 10
67.171051
 20
232.148683
 30
0.0
 10
67.192923
 20
237.694347
 30
0.0
 10
67.177288
 20
241.793046
 30
0.0
 10
67.150731
 20
243.841613
 30
0.0
 10
67.150731
 20
243.841613
 30
0.0
 10
67.099163
 20
245.890182
 30
0.0
 10
67.066349
 20
246.502720
 30
0.0
 10
66.683512
 20
251.842122
 30
0.0
 10
66.400683
 20
256.536172
 30
0.0
 10
66.400683
 20
256.536172
 30
0.0
 10
67.042911
 20
256.765872
 30
0.0
 10
67.675763
 20
257.020575
 30
0.0
 10
68.166420
 20
257.264342
 30
0.0
 10
68.166420
 20
257.264342
 30
0.0
 10
68.397684
 20
257.406539
 30
0.0
 10
68.618010
 20
257.567485
 30
0.0
 10
68.944594
 20
257.872192
 30
0.0
 10
68.944594
 20
257.872192
 30
0.0
 10
69.241487
 20
258.205025
 30
0.0
 10
69.508692
 20
258.562860
 30
0.0
 10
69.739956
 20
258.944137
 30
0.0
 10
69.739956
 20
258.944137
 30
0.0
 10
69.904029
 20
259.320723
 30
0.0
 10
70.035287
 20
259.711372
 30
0.0
 10
70.235301
 20
260.514548
 30
0.0
 10
70.302493
 20
260.875508
 30
0.0
 10
70.302493
 20
260.875508
 30
0.0
 10
70.444687
 20
262.058397
 30
0.0
 10
70.525945
 20
263.245971
 30
0.0
 10
70.524251
 20
264.127278
 30
0.0
 10
70.524251
 20
264.127278
 30
0.0
 10
70.489874
 20
265.007021
 30
0.0
 10
70.435182
 20
265.903951
 30
0.0
 10
70.285173
 20
267.219660
 30
0.0
 10
70.088286
 20
268.529120
 30
0.0
 10
69.877336
 20
269.565124
 30
0.0
 10
69.877336
 20
269.565124
 30
0.0
 10
69.646072
 20
270.598001
 30
0.0
 10
78.662265
 20
273.806019
 30
0.0
 10
79.237301
 20
273.185666
 30
0.0
 10
79.237301
 20
273.185666
 30
0.0
 10
79.445127
 20
273.010654
 30
0.0
 10
79.668579
 20
272.857520
 30
0.0
 10
80.246742
 20
272.554374
 30
0.0
 10
80.246742
 20
272.554374
 30
0.0
 10
80.856156
 20
272.316859
 30
0.0
 10
81.240554
 20
272.207478
 30
0.0
 10
81.631203
 20
272.118409
 30
0.0
 10
81.631203
 20
272.118409
 30
0.0
 10
82.423443
 20
271.991840
 30
0.0
 10
83.401628
 20
271.923085
 30
0.0
 10
84.384504
 20
271.891832
 30
0.0
 10
85.365816
 20
271.923085
 30
0.0
 10
85.365816
 20
271.923085
 30
0.0
 10
86.345567
 20
271.991840
 30
0.0
 10
87.136241
 20
272.118409
 30
0.0
 10
87.526890
 20
272.207478
 30
0.0
 10
87.526890
 20
272.207478
 30
0.0
 10
87.911291
 20
272.316859
 30
0.0
 10
88.520705
 20
272.554374
 30
0.0
 10
89.100429
 20
272.857520
 30
0.0
 10
89.100429
 20
272.857520
 30
0.0
 10
89.323881
 20
273.010654
 30
0.0
 10
89.530143
 20
273.185666
 30
0.0
 10
90.105179
 20
273.806019
 30
0.0
 10
90.105179
 20
273.806019
 30
0.0
 10
99.121378
 20
270.598001
 30
0.0
 10
98.890114
 20
269.565124
 30
0.0
 10
98.679161
 20
268.529120
 30
0.0
 10
98.679161
 20
268.529120
 30
0.0
 10
98.482274
 20
267.219660
 30
0.0
 10
98.333828
 20
265.903951
 30
0.0
 10
98.277573
 20
265.007021
 30
0.0
 10
98.243195
 20
264.127278
 30
0.0
 10
98.241502
 20
263.245971
 30
0.0
 10
98.241502
 20
263.245971
 30
0.0
 10
98.324320
 20
262.058397
 30
0.0
 10
98.464954
 20
260.875508
 30
0.0
 10
98.532146
 20
260.514548
 30
0.0
 10
98.733720
 20
259.711372
 30
0.0
 10
98.733720
 20
259.711372
 30
0.0
 10
98.864979
 20
259.320723
 30
0.0
 10
99.027488
 20
258.944137
 30
0.0
 10
99.258755
 20
258.562860
 30
0.0
 10
99.258755
 20
258.562860
 30
0.0
 10
99.527521
 20
258.205025
 30
0.0
 10
99.822852
 20
257.872192
 30
0.0
 10
100.149434
 20
257.567485
 30
0.0
 10
100.149434
 20
257.567485
 30
0.0
 10
100.369762
 20
257.406539
 30
0.0
 10
100.602590
 20
257.264342
 30
0.0
 10
101.093245
 20
257.020575
 30
0.0
 10
101.093245
 20
257.020575
 30
0.0
 10
101.724536
 20
256.765872
 30
0.0
 10
102.366764
 20
256.536172
 30
0.0
 10
102.083932
 20
251.842122
 30
0.0
 10
102.083932
 20
251.842122
 30
0.0
 10
101.702658
 20
246.502720
 30
0.0
 10
101.668281
 20
245.890182
 30
0.0
 10
101.616716
 20
243.841613
 30
0.0
 10
101.591711
 20
241.793046
 30
0.0
 10
101.591711
 20
241.793046
 30
0.0
 10
101.574524
 20
237.694347
 30
0.0
 10
101.596396
 20
232.148683
 30
0.0
 10
101.629210
 20
228.142180
 30
0.0
 10
101.641712
 20
226.604583
 30
0.0
 10
101.641989
 20
226.604583
 30
0.0
  0
LWPOLYLINE
  5
102
100
AcDbEntity
  8
Layer_1
 62
7
100
AcDbPolyline
 90
81
 70
1
 10
118.682742
 20
245.522190
 30
0.0
 10
117.826437
 20
249.625574
 30
0.0
 10
118.523357
 20
249.902154
 30
0.0
 10
118.523357
 20
249.902154
 30
0.0
 10
118.865565
 20
250.053728
 30
0.0
 10
119.198398
 20
250.222488
 30
0.0
 10
119.476543
 20
250.409999
 30
0.0
 10
119.476543
 20
250.409999
 30
0.0
 10
119.742184
 20
250.616264
 30
0.0
 10
120.248466
 20
251.061602
 30
0.0
 10
120.743805
 20
251.538197
 30
0.0
 10
120.743805
 20
251.538197
 30
0.0
 10
121.204770
 20
252.047605
 30
0.0
 10
121.876687
 20
252.953911
 30
0.0
 10
122.532981
 20
253.872719
 30
0.0
 10
123.004885
 20
254.477445
 30
0.0
 10
123.004885
 20
254.477445
 30
0.0
 10
123.497103
 20
255.068102
 30
0.0
 10
124.011199
 20
255.636887
 30
0.0
 10
124.553421
 20
256.177549
 30
0.0
 10
124.553421
 20
256.177549
 30
0.0
 10
125.040952
 20
256.597888
 30
0.0
 10
125.555048
 20
256.983849
 30
0.0
 10
126.092582
 20
257.335433
 30
0.0
 10
126.092582
 20
257.335433
 30
0.0
 10
126.656679
 20
257.640140
 30
0.0
 10
127.372350
 20
257.924533
 30
0.0
 10
128.108335
 20
258.152673
 30
0.0
 10
128.859943
 20
258.335496
 30
0.0
 10
128.859943
 20
258.335496
 30
0.0
 10
129.622494
 20
258.474570
 30
0.0
 10
130.150644
 20
258.527695
 30
0.0
 10
130.681930
 20
258.555833
 30
0.0
 10
131.467916
 20
258.540198
 30
0.0
 10
131.467916
 20
258.540198
 30
0.0
 10
131.858566
 20
258.519878
 30
0.0
 10
132.247654
 20
258.476125
 30
0.0
 10
132.672681
 20
258.377680
 30
0.0
 10
132.672681
 20
258.377680
 30
0.0
 10
133.089896
 20
258.249548
 30
0.0
 10
133.500859
 20
258.102663
 30
0.0
 10
133.905571
 20
257.937030
 30
0.0
 10
133.905571
 20
257.937030
 30
0.0
 10
134.519673
 20
257.646386
 30
0.0
 10
135.113460
 20
257.315113
 30
0.0
 10
135.522863
 20
257.057286
 30
0.0
 10
135.918200
 20
256.776018
 30
0.0
 10
136.561991
 20
256.265046
 30
0.0
 10
136.561991
 20
256.265046
 30
0.0
 10
137.174529
 20
255.719700
 30
0.0
 10
137.699561
 20
255.169666
 30
0.0
 10
138.202718
 20
254.599323
 30
0.0
 10
138.202718
 20
254.599323
 30
0.0
 10
139.243410
 20
253.383620
 30
0.0
 10
139.880944
 20
252.674200
 30
0.0
 10
140.541925
 20
251.986656
 30
0.0
 10
141.176338
 20
251.375682
 30
0.0
 10
141.176338
 20
251.375682
 30
0.0
 10
141.507611
 20
251.085038
 30
0.0
 10
141.851383
 20
250.811582
 30
0.0
 10
142.410792
 20
250.449059
 30
0.0
 10
142.410792
 20
250.449059
 30
0.0
 10
142.993643
 20
250.122477
 30
0.0
 10
144.032772
 20
249.597442
 30
0.0
 10
143.218656
 20
245.648755
 30
0.0
 10
143.218656
 20
245.648755
 30
0.0
 10
142.729562
 20
243.039218
 30
0.0
 10
142.893635
 20
241.493809
 30
0.0
 10
137.882387
 20
241.693823
 30
0.0
 10
135.765063
 20
241.770390
 30
0.0
 10
135.765063
 20
241.770390
 30
0.0
 10
133.646181
 20
241.826642
 30
0.0
 10
130.933509
 20
241.826642
 30
0.0
 10
128.219279
 20
241.826642
 30
0.0
 10
128.219279
 20
241.826642
 30
0.0
 10
126.100394
 20
241.770390
 30
0.0
 10
123.983073
 20
241.693823
 30
0.0
 10
118.979637
 20
241.493809
 30
0.0
 10
118.979637
 20
241.493809
 30
0.0
 10
119.135895
 20
243.039224
 30
0.0
 10
118.682742
 20
245.522190
 30
0.0
  0
LWPOLYLINE
  5
103
100
AcDbEntity
  8
Layer_1
 62
7
100
AcDbPolyline
 90
131
 70
0
 10
56.290190
 20
144.775562
 30
0.0
 10
39.646945
 20
144.753690
 30
0.0
 10
23.005264
 20
144.775562
 30
0.0
 10
23.005264
 20
144.775562
 30
0.0
 10
23.017766
 20
146.313159
 30
0.0
 10
23.050580
 20
150.330601
 30
0.0
 10
23.070900
 20
155.885641
 30
0.0
 10
23.055265
 20
159.996839
 30
0.0
 10
23.028708
 20
162.051657
 30
0.0
 10
23.028708
 20
162.051657
 30
0.0
 10
22.977143
 20
164.106478
 30
0.0
 10
22.942766
 20
164.733081
 30
0.0
 10
22.559928
 20
170.077171
 30
0.0
 10
22.277099
 20
174.777469
 30
0.0
 10
22.277099
 20
174.777469
 30
0.0
 10
22.964643
 20
175.010297
 30
0.0
 10
23.300601
 20
175.141555
 30
0.0
 10
23.625622
 20
175.296253
 30
0.0
 10
23.625622
 20
175.296253
 30
0.0
 10
23.935017
 20
175.488452
 30
0.0
 10
24.224097
 20
175.710341
 30
0.0
 10
24.494426
 20
175.954107
 30
0.0
 10
24.494426
 20
175.954107
 30
0.0
 10
24.735069
 20
176.226000
 30
0.0
 10
25.013210
 20
176.658839
 30
0.0
 10
25.246038
 20
177.119806
 30
0.0
 10
25.246038
 20
177.119806
 30
0.0
 10
25.444488
 20
177.601085
 30
0.0
 10
25.608561
 20
178.094867
 30
0.0
 10
25.753882
 20
178.680842
 30
0.0
 10
25.753882
 20
178.680842
 30
0.0
 10
25.847639
 20
179.279317
 30
0.0
 10
25.932018
 20
180.013738
 30
0.0
 10
25.972647
 20
180.751287
 30
0.0
 10
25.972647
 20
181.516958
 30
0.0
 10
25.972647
 20
181.516958
 30
0.0
 10
25.949194
 20
182.284196
 30
0.0
 10
25.907002
 20
183.049871
 30
0.0
 10
25.847625
 20
183.815543
 30
0.0
 10
25.847625
 20
183.815543
 30
0.0
 10
25.755432
 20
184.562466
 30
0.0
 10
25.616358
 20
185.543778
 30
0.0
 10
25.449161
 20
186.518839
 30
0.0
 10
25.185083
 20
187.654849
 30
0.0
 10
25.185083
 20
187.654849
 30
0.0
 10
24.896000
 20
188.784610
 30
0.0
 10
34.176279
 20
192.086381
 30
0.0
 10
34.341915
 20
190.434715
 30
0.0
 10
34.341915
 20
190.434715
 30
0.0
 10
34.473171
 20
189.592473
 30
0.0
 10
34.657558
 20
188.759607
 30
0.0
 10
34.834133
 20
188.209573
 30
0.0
 10
34.834133
 20
188.209573
 30
0.0
 10
35.057585
 20
187.675163
 30
0.0
 10
35.335726
 20
187.142316
 30
0.0
 10
35.666999
 20
186.640723
 30
0.0
 10
36.021707
 20
186.229759
 30
0.0
 10
36.021707
 20
186.229759
 30
0.0
 10
36.418607
 20
185.860985
 30
0.0
 10
36.942079
 20
185.473460
 30
0.0
 10
37.503052
 20
185.143754
 30
0.0
 10
37.503052
 20
185.143754
 30
0.0
 10
38.056213
 20
184.899987
 30
0.0
 10
38.631249
 20
184.714039
 30
0.0
 10
39.137531
 20
184.618719
 30
0.0
 10
39.137531
 20
184.618719
 30
0.0
 10
39.646939
 20
184.548403
 30
0.0
 10
40.157908
 20
184.618719
 30
0.0
 10
40.662629
 20
184.714039
 30
0.0
 10
40.662629
 20
184.714039
 30
0.0
 10
41.237665
 20
184.899987
 30
0.0
 10
41.790823
 20
185.143754
 30
0.0
 10
42.353360
 20
185.473460
 30
0.0
 10
42.353360
 20
185.473460
 30
0.0
 10
42.875268
 20
185.860985
 30
0.0
 10
43.273732
 20
186.229759
 30
0.0
 10
43.626879
 20
186.640723
 30
0.0
 10
43.626879
 20
186.640723
 30
0.0
 10
43.958149
 20
187.142316
 30
0.0
 10
44.236293
 20
187.675163
 30
0.0
 10
44.459745
 20
188.209573
 30
0.0
 10
44.459745
 20
188.209573
 30
0.0
 10
44.637881
 20
188.759607
 30
0.0
 10
44.820705
 20
189.592473
 30
0.0
 10
44.951963
 20
190.434715
 30
0.0
 10
44.951963
 20
190.434715
 30
0.0
 10
45.117597
 20
192.086381
 30
0.0
 10
54.397873
 20
188.784610
 30
0.0
 10
54.110354
 20
187.654849
 30
0.0
 10
54.110354
 20
187.654849
 30
0.0
 10
53.844712
 20
186.518839
 30
0.0
 10
53.677515
 20
185.543778
 30
0.0
 10
53.538445
 20
184.562466
 30
0.0
 10
53.447815
 20
183.815543
 30
0.0
 10
53.447815
 20
183.815543
 30
0.0
 10
53.386871
 20
183.049871
 30
0.0
 10
53.346243
 20
182.284196
 30
0.0
 10
53.322790
 20
181.516958
 30
0.0
 10
53.322790
 20
181.516958
 30
0.0
 10
53.321097
 20
180.751287
 30
0.0
 10
53.361723
 20
180.013738
 30
0.0
 10
53.446104
 20
179.279317
 30
0.0
 10
53.541422
 20
178.680842
 30
0.0
 10
53.541422
 20
178.680842
 30
0.0
 10
53.685180
 20
178.094867
 30
0.0
 10
53.849253
 20
177.601085
 30
0.0
 10
54.047703
 20
177.119806
 30
0.0
 10
54.047703
 20
177.119806
 30
0.0
 10
54.280531
 20
176.658839
 30
0.0
 10
54.560236
 20
176.226000
 30
0.0
 10
54.800878
 20
175.954107
 30
0.0
 10
54.800878
 20
175.954107
 30
0.0
 10
55.069644
 20
175.710341
 30
0.0
 10
55.358724
 20
175.488452
 30
0.0
 10
55.668119
 20
175.296253
 30
0.0
 10
55.668119
 20
175.296253
 30
0.0
 10
55.994704
 20
175.141555
 30
0.0
 10
56.330661
 20
175.010297
 30
0.0
 10
57.016642
 20
174.777469
 30
0.0
 10
57.016642
 20
174.777469
 30
0.0
 10
56.733813
 20
170.077171
 30
0.0
 10
56.350975
 20
164.733081
 30
0.0
 10
56.316598
 20
164.106478
 30
0.0
 10
56.265033
 20
162.051657
 30
0.0
 10
56.265033
 20
162.051657
 30
0.0
 10
56.240028
 20
159.996839
 30
0.0
 10
56.222841
 20
155.885641
 30
0.0
 10
56.244713
 20
150.330601
 30
0.0
 10
56.277527
 20
146.313159
 30
0.0
 10
56.290029
 20
144.775562
 30
0.0
 10
56.290185
 20
144.775562
 30
0.0
  0
LWPOLYLINE
  5
104
100
AcDbEntity
  8
Layer_1
 62
7
100
AcDbPolyline
 90
120
 70
0
 10
102.151519
 20
145.114646
 30
0.0
 10
97.196515
 20
144.930259
 30
0.0
 10
92.239950
 20
144.783374
 30
0.0
 10
92.239950
 20
144.783374
 30
0.0
 10
88.567841
 20
144.755236
 30
0.0
 10
84.894174
 20
144.753543
 30
0.0
 10
81.220505
 20
144.755236
 30
0.0
 10
81.220505
 20
144.755236
 30
0.0
 10
77.546835
 20
144.783374
 30
0.0
 10
72.591834
 20
144.930259
 30
0.0
 10
67.636830
 20
145.114646
 30
0.0
 10
67.636830
 20
145.114646
 30
0.0
 10
67.649333
 20
146.652244
 30
0.0
 10
67.680583
 20
150.658747
 30
0.0
 10
67.702455
 20
156.204411
 30
0.0
 10
67.686820
 20
160.303110
 30
0.0
 10
67.660263
 20
162.351676
 30
0.0
 10
67.660263
 20
162.351676
 30
0.0
 10
67.608696
 20
164.400248
 30
0.0
 10
67.575882
 20
165.012786
 30
0.0
 10
67.193044
 20
170.352188
 30
0.0
 10
66.910215
 20
175.046238
 30
0.0
 10
66.910215
 20
175.046238
 30
0.0
 10
67.552443
 20
175.275938
 30
0.0
 10
68.185295
 20
175.530641
 30
0.0
 10
68.675953
 20
175.774408
 30
0.0
 10
68.675953
 20
175.774408
 30
0.0
 10
68.907217
 20
175.916605
 30
0.0
 10
69.127542
 20
176.077551
 30
0.0
 10
69.454127
 20
176.382258
 30
0.0
 10
69.454127
 20
176.382258
 30
0.0
 10
69.751019
 20
176.715091
 30
0.0
 10
70.018224
 20
177.072926
 30
0.0
 10
70.249488
 20
177.454203
 30
0.0
 10
70.249488
 20
177.454203
 30
0.0
 10
70.413561
 20
177.830789
 30
0.0
 10
70.544820
 20
178.221438
 30
0.0
 10
70.744834
 20
179.024614
 30
0.0
 10
70.812025
 20
179.385574
 30
0.0
 10
70.812025
 20
179.385574
 30
0.0
 10
70.954220
 20
180.568463
 30
0.0
 10
71.035477
 20
181.756037
 30
0.0
 10
71.033784
 20
182.637344
 30
0.0
 10
71.033784
 20
182.637344
 30
0.0
 10
70.999406
 20
183.517087
 30
0.0
 10
70.944715
 20
184.414017
 30
0.0
 10
70.794705
 20
185.729726
 30
0.0
 10
70.597818
 20
187.039186
 30
0.0
 10
70.386869
 20
188.075190
 30
0.0
 10
70.386869
 20
188.075190
 30
0.0
 10
70.155604
 20
189.108067
 30
0.0
 10
79.171797
 20
192.316084
 30
0.0
 10
79.746833
 20
191.695732
 30
0.0
 10
79.746833
 20
191.695732
 30
0.0
 10
79.954659
 20
191.520720
 30
0.0
 10
80.178111
 20
191.367586
 30
0.0
 10
80.756275
 20
191.064440
 30
0.0
 10
80.756275
 20
191.064440
 30
0.0
 10
81.365688
 20
190.826925
 30
0.0
 10
81.750086
 20
190.717544
 30
0.0
 10
82.140735
 20
190.628475
 30
0.0
 10
82.140735
 20
190.628475
 30
0.0
 10
82.932976
 20
190.501906
 30
0.0
 10
83.911161
 20
190.433151
 30
0.0
 10
84.894036
 20
190.401898
 30
0.0
 10
85.875348
 20
190.433151
 30
0.0
 10
85.875348
 20
190.433151
 30
0.0
 10
86.855100
 20
190.501906
 30
0.0
 10
87.645773
 20
190.628475
 30
0.0
 10
88.036423
 20
190.717544
 30
0.0
 10
88.036423
 20
190.717544
 30
0.0
 10
88.420821
 20
190.826925
 30
0.0
 10
89.030234
 20
191.064440
 30
0.0
 10
89.609958
 20
191.367586
 30
0.0
 10
89.609958
 20
191.367586
 30
0.0
 10
89.833410
 20
191.520720
 30
0.0
 10
90.039673
 20
191.695732
 30
0.0
 10
90.614709
 20
192.316084
 30
0.0
 10
90.614709
 20
192.316084
 30
0.0
 10
99.630907
 20
189.108067
 30
0.0
 10
99.399643
 20
188.075190
 30
0.0
 10
99.188691
 20
187.039186
 30
0.0
 10
99.188691
 20
187.039186
 30
0.0
 10
98.991804
 20
185.729726
 30
0.0
 10
98.843358
 20
184.414017
 30
0.0
 10
98.787102
 20
183.517087
 30
0.0
 10
98.752725
 20
182.637344
 30
0.0
 10
98.751032
 20
181.756037
 30
0.0
 10
98.751032
 20
181.756037
 30
0.0
 10
98.833850
 20
180.568463
 30
0.0
 10
98.974484
 20
179.385574
 30
0.0
 10
99.041675
 20
179.024614
 30
0.0
 10
99.243250
 20
178.221438
 30
0.0
 10
99.243250
 20
178.221438
 30
0.0
 10
99.374508
 20
177.830789
 30
0.0
 10
99.537018
 20
177.454203
 30
0.0
 10
99.768285
 20
177.072926
 30
0.0
 10
99.768285
 20
177.072926
 30
0.0
 10
100.037051
 20
176.715091
 30
0.0
 10
100.332382
 20
176.382258
 30
0.0
 10
100.658964
 20
176.077551
 30
0.0
 10
100.658964
 20
176.077551
 30
0.0
 10
100.879292
 20
175.916605
 30
0.0
 10
101.112120
 20
175.774408
 30
0.0
 10
101.602774
 20
175.530641
 30
0.0
 10
101.602774
 20
175.530641
 30
0.0
 10
102.234066
 20
175.275938
 30
0.0
 10
102.876294
 20
175.046238
 30
0.0
 10
102.593462
 20
170.352188
 30
0.0
 10
102.593462
 20
170.352188
 30
0.0
 10
102.212188
 20
165.012786
 30
0.0
 10
102.177810
 20
164.400248
 30
0.0
 10
102.126246
 20
162.351676
 30
0.0
 10
102.101241
 20
160.303110
 30
0.0
 10
102.101241
 20
160.303110
 30
0.0
 10
102.084053
 20
156.204411
 30
0.0
 10
102.105926
 20
150.658747
 30
0.0
 10
102.138740
 20
146.652244
 30
0.0
 10
102.151242
 20
145.114646
 30
0.0
 10
102.151519
 20
145.114646
 30
0.0
  0
LWPOLYLINE
  5
105
100
AcDbEntity
  8
Layer_1
 62
7
100
AcDbPolyline
 90
97
 70
0
 10
143.069951
 20
177.475663
 30
0.0
 10
142.383970
 20
174.169204
 30
0.0
 10
141.727679
 20
170.856499
 30
0.0
 10
141.727679
 20
170.856499
 30
0.0
 10
141.318279
 20
168.525101
 30
0.0
 10
140.957317
 20
166.185891
 30
0.0
 10
140.569792
 20
162.877865
 30
0.0
 10
140.365093
 20
161.069939
 30
0.0
 10
140.365093
 20
161.069939
 30
0.0
 10
140.140078
 20
159.265133
 30
0.0
 10
139.593168
 20
155.933672
 30
0.0
 10
139.361903
 20
154.180437
 30
0.0
 10
139.155641
 20
152.425638
 30
0.0
 10
139.155641
 20
152.425638
 30
0.0
 10
138.966567
 20
150.667719
 30
0.0
 10
138.799367
 20
148.909796
 30
0.0
 10
138.572790
 20
145.703342
 30
0.0
 10
138.680611
 20
144.165745
 30
0.0
 10
138.680611
 20
144.165745
 30
0.0
 10
121.559216
 20
144.165745
 30
0.0
 10
121.712352
 20
145.703342
 30
0.0
 10
121.390455
 20
148.926983
 30
0.0
 10
120.962304
 20
152.430326
 30
0.0
 10
120.962304
 20
152.430326
 30
0.0
 10
120.729477
 20
154.178873
 30
0.0
 10
120.474774
 20
155.925860
 30
0.0
 10
119.871609
 20
159.394831
 30
0.0
 10
119.288760
 20
162.866929
 30
0.0
 10
119.288760
 20
162.866929
 30
0.0
 10
118.885609
 20
166.171825
 30
0.0
 10
118.555900
 20
168.520413
 30
0.0
 10
118.184001
 20
170.861187
 30
0.0
 10
117.543337
 20
174.186391
 30
0.0
 10
117.543337
 20
174.186391
 30
0.0
 10
116.865169
 20
177.503789
 30
0.0
 10
117.560525
 20
177.780370
 30
0.0
 10
117.902733
 20
177.930380
 30
0.0
 10
117.902733
 20
177.930380
 30
0.0
 10
118.234006
 20
178.100703
 30
0.0
 10
118.534025
 20
178.305402
 30
0.0
 10
118.819981
 20
178.530418
 30
0.0
 10
118.819981
 20
178.530418
 30
0.0
 10
119.363764
 20
179.014824
 30
0.0
 10
119.816920
 20
179.455475
 30
0.0
 10
120.241946
 20
179.925818
 30
0.0
 10
120.241946
 20
179.925818
 30
0.0
 10
120.913864
 20
180.832126
 30
0.0
 10
121.570155
 20
181.750935
 30
0.0
 10
122.042061
 20
182.357221
 30
0.0
 10
122.534279
 20
182.946324
 30
0.0
 10
122.534279
 20
182.946324
 30
0.0
 10
123.048372
 20
183.515109
 30
0.0
 10
123.590595
 20
184.055767
 30
0.0
 10
124.078128
 20
184.476106
 30
0.0
 10
124.078128
 20
184.476106
 30
0.0
 10
124.592221
 20
184.862071
 30
0.0
 10
125.129756
 20
185.213655
 30
0.0
 10
125.692287
 20
185.518361
 30
0.0
 10
126.407957
 20
185.802754
 30
0.0
 10
126.407957
 20
185.802754
 30
0.0
 10
127.145502
 20
186.030894
 30
0.0
 10
127.897114
 20
186.213717
 30
0.0
 10
128.658098
 20
186.352788
 30
0.0
 10
128.658098
 20
186.352788
 30
0.0
 10
129.186257
 20
186.405916
 30
0.0
 10
129.719104
 20
186.434054
 30
0.0
 10
130.505090
 20
186.419999
 30
0.0
 10
130.895742
 20
186.398127
 30
0.0
 10
130.895742
 20
186.398127
 30
0.0
 10
131.284828
 20
186.354374
 30
0.0
 10
131.709854
 20
186.255929
 30
0.0
 10
132.127069
 20
186.127798
 30
0.0
 10
132.127069
 20
186.127798
 30
0.0
 10
132.538033
 20
185.980912
 30
0.0
 10
132.942745
 20
185.815279
 30
0.0
 10
133.556846
 20
185.524635
 30
0.0
 10
133.556846
 20
185.524635
 30
0.0
 10
134.150636
 20
185.194926
 30
0.0
 10
134.560036
 20
184.935533
 30
0.0
 10
134.955373
 20
184.654265
 30
0.0
 10
135.597604
 20
184.144859
 30
0.0
 10
136.210142
 20
183.597949
 30
0.0
 10
136.210142
 20
183.597949
 30
0.0
 10
136.736737
 20
183.049476
 30
0.0
 10
137.239894
 20
182.479127
 30
0.0
 10
138.280586
 20
181.261863
 30
0.0
 10
138.918126
 20
180.552444
 30
0.0
 10
138.918126
 20
180.552444
 30
0.0
 10
139.579104
 20
179.864900
 30
0.0
 10
140.213520
 20
179.253923
 30
0.0
 10
140.544793
 20
178.963279
 30
0.0
 10
140.544793
 20
178.963279
 30
0.0
 10
140.888562
 20
178.689825
 30
0.0
 10
141.447974
 20
178.327303
 30
0.0
 10
142.030823
 20
178.000718
 30
0.0
 10
142.030823
 20
178.000718
 30
0.0
 10
143.069951
 20
177.475663
 30
0.0
  0
ENDSEC
  0
SECTION
  2
OBJECTS
  0
DICTIONARY
  5
C
330
0
100
AcDbDictionary
  3
ACAD_GROUP
350
D
  3
ACAD_MLINESTYLE
350
17
  0
DICTIONARY
  5
D
330
C
100
AcDbDictionary
  0
DICTIONARY
  5
1A
330
C
100
AcDbDictionary
  0
DICTIONARY
  5
17
330
C
100
AcDbDictionary
  3
STANDARD
350
18
  0
DICTIONARY
  5
19
330
C
100
AcDbDictionary
  0
ENDSEC
  0
EOF
