  0
SECTION
  2
HEADER
  9
$ACADVER
  1
AC1014
  9
$HANDSEED
  5
FFFF
  9
$MEASUREMENT
 70
     1
  0
ENDSEC
  0
SECTION
  2
TABLES
  0
TABLE
  2
VPORT
  5
8
330
0
100
AcDbSymbolTable
 70
     4
  0
VPORT
  5
2E
330
8
100
AcDbSymbolTableRecord
100
AcDbViewportTableRecord
  2
*ACTIVE
 70
     0
 10
0.0
 20
0.0
 11
1.0
 21
1.0
 12
210.0
 22
148.5
 13
0.0
 23
0.0
 14
10.0
 24
10.0
 15
10.0
 25
10.0
 16
0.0
 26
0.0
 36
1.0
 17
0.0
 27
0.0
 37
0.0
 40
341.0
 41
1.24
 42
50.0
 43
0.0
 44
0.0
 50
0.0
 51
0.0
 71
     0
 72
   100
 73
     1
 74
     3
 75
     0
 76
     0
 77
     0
 78
     0
  0
ENDTAB
  0
TABLE
  2
LTYPE
  5
5
330
0
100
AcDbSymbolTable
 70
     1
  0
LTYPE
  5
14
330
5
100
AcDbSymbolTableRecord
100
AcDbLinetypeTableRecord
  2
BYBLOCK
 70
     0
  3

 72
    65
 73
     0
 40
0.0
  0
LTYPE
  5
15
330
5
100
AcDbSymbolTableRecord
100
AcDbLinetypeTableRecord
  2
BYLAYER
 70
     0
  3

 72
    65
 73
     0
 40
0.0
  0
LTYPE
  5
16
330
5
100
AcDbSymbolTableRecord
100
AcDbLinetypeTableRecord
  2
CONTINUOUS
 70
     0
  3
Solid line
 72
    65
 73
     0
 40
0.0
  0
ENDTAB
  0
TABLE
  2
LAYER
  5
2
100
AcDbSymbolTable
 70
2
  0
LAYER
  5
50
100
AcDbSymbolTableRecord
100
AcDbLayerTableRecord
  2
0
 70
0
  6
CONTINUOUS
  0
LAYER
  5
51
100
AcDbSymbolTableRecord
100
AcDbLayerTableRecord
  2
Layer_1
 70
0
  6
CONTINUOUS
  0
ENDTAB
  0
TABLE
  2
STYLE
  5
3
330
0
100
AcDbSymbolTable
 70
     1
  0
STYLE
  5
11
330
3
100
AcDbSymbolTableRecord
100
AcDbTextStyleTableRecord
  2
STANDARD
 70
     0
 40
0.0
 41
1.0
 50
0.0
 71
     0
 42
2.5
  3
txt
  4

  0
ENDTAB
  0
TABLE
  2
VIEW
  5
6
330
0
100
AcDbSymbolTable
 70
     0
  0
ENDTAB
  0
TABLE
  2
UCS
  5
7
330
0
100
AcDbSymbolTable
 70
     0
  0
ENDTAB
  0
TABLE
  2
APPID
  5
9
330
0
100
AcDbSymbolTable
 70
     2
  0
APPID
  5
12
330
9
100
AcDbSymbolTableRecord
100
AcDbRegAppTableRecord
  2
ACAD
 70
     0
  0
ENDTAB
  0
TABLE
  2
DIMSTYLE
  5
A
330
0
100
AcDbSymbolTable
 70
     1
  0
DIMSTYLE
105
27
330
A
100
AcDbSymbolTableRecord
100
AcDbDimStyleTableRecord
  2
ISO-25
 70
     0
  3

  4

  5

  6

  7

 40
1.0
 41
2.5
 42
0.625
 43
3.75
 44
1.25
 45
0.0
 46
0.0
 47
0.0
 48
0.0
140
2.5
141
2.5
142
0.0
143
0.03937007874016
144
1.0
145
0.0
146
1.0
147
0.625
 71
     0
 72
     0
 73
     0
 74
     0
 75
     0
 76
     0
 77
     1
 78
     8
170
     0
171
     3
172
     1
173
     0
174
     0
175
     0
176
     0
177
     0
178
     0
270
     2
271
     2
272
     2
273
     2
274
     3
340
11
275
     0
280
     0
281
     0
282
     0
283
     0
284
     8
285
     0
286
     0
287
     3
288
     0
  0
ENDTAB
  0
TABLE
  2
BLOCK_RECORD
  5
1
330
0
100
AcDbSymbolTable
 70
     1
  0
BLOCK_RECORD
  5
1F
330
1
100
AcDbSymbolTableRecord
100
AcDbBlockTableRecord
  2
*MODEL_SPACE
  0
BLOCK_RECORD
  5
1B
330
1
100
AcDbSymbolTableRecord
100
AcDbBlockTableRecord
  2
*PAPER_SPACE
  0
ENDTAB
  0
ENDSEC
  0
SECTION
  2
BLOCKS
  0
BLOCK
  5
20
330
1F
100
AcDbEntity
  8
0
100
AcDbBlockBegin
  2
*MODEL_SPACE
 70
     0
 10
0.0
 20
0.0
 30
0.0
  3
*MODEL_SPACE
  1

  0
ENDBLK
  5
21
330
1F
100
AcDbEntity
  8
0
100
AcDbBlockEnd
  0
BLOCK
  5
1C
330
1B
100
AcDbEntity
 67
     1
  8
0
100
AcDbBlockBegin
  2
*PAPER_SPACE
  1

  0
ENDBLK
  5
1D
330
1B
100
AcDbEntity
 67
     1
  8
0
100
AcDbBlockEnd
  0
ENDSEC
  0
SECTION
  2
ENTITIES
  0
LWPOLYLINE
  5
100
100
AcDbEntity
  8
Layer_1
 62
7
100
AcDbPolyline
 90
151
 70
0
 10
28.995528
 20
209.994315
 30
0.0
 10
26.478179
 20
210.013055
 30
0.0
 10
25.242164
 20
210.056808
 30
0.0
 10
25.242164
 20
210.056808
 30
0.0
 10
24.006146
 20
210.123999
 30
0.0
 10
22.773256
 20
210.214632
 30
0.0
 10
21.543489
 20
210.341203
 30
0.0
 10
21.543489
 20
210.341203
 30
0.0
 10
20.441858
 20
210.514651
 30
0.0
 10
19.344913
 20
210.716225
 30
0.0
 10
17.157275
 20
211.158439
 30
0.0
 10
17.157275
 20
211.158439
 30
0.0
 10
15.194650
 20
211.538152
 30
0.0
 10
13.400786
 20
211.955367
 30
0.0
 10
12.772621
 20
212.047561
 30
0.0
 10
12.772621
 20
212.047561
 30
0.0
 10
12.142894
 20
212.122564
 30
0.0
 10
10.878751
 20
212.258511
 30
0.0
 10
10.883439
 20
213.800796
 30
0.0
 10
10.899065
 20
218.338585
 30
0.0
 10
10.913128
 20
222.770114
 30
0.0
 10
10.913128
 20
222.770114
 30
0.0
 10
10.892814
 20
223.518602
 30
0.0
 10
10.609984
 20
233.452045
 30
0.0
 10
10.600608
 20
233.753625
 30
0.0
 10
9.930253
 20
243.715200
 30
0.0
 10
10.819372
 20
243.927713
 30
0.0
 10
10.819372
 20
243.927713
 30
0.0
 10
11.255337
 20
244.057408
 30
0.0
 10
11.677239
 20
244.219918
 30
0.0
 10
12.191334
 20
244.499622
 30
0.0
 10
12.191334
 20
244.499622
 30
0.0
 10
12.672615
 20
244.835583
 30
0.0
 10
13.116393
 20
245.215293
 30
0.0
 10
13.317968
 20
245.424682
 30
0.0
 10
13.317968
 20
245.424682
 30
0.0
 10
13.503917
 20
245.648134
 30
0.0
 10
13.719556
 20
245.979404
 30
0.0
 10
13.908630
 20
246.327864
 30
0.0
 10
14.077391
 20
246.687262
 30
0.0
 10
14.077391
 20
246.687262
 30
0.0
 10
14.225838
 20
247.054473
 30
0.0
 10
14.480542
 20
247.813896
 30
0.0
 10
14.675867
 20
248.592070
 30
0.0
 10
14.675867
 20
248.592070
 30
0.0
 10
14.877442
 20
249.620262
 30
0.0
 10
15.024326
 20
250.659391
 30
0.0
 10
15.119645
 20
251.706331
 30
0.0
 10
15.119645
 20
251.706331
 30
0.0
 10
15.175899
 20
252.757961
 30
0.0
 10
15.196213
 20
254.017414
 30
0.0
 10
15.150898
 20
255.276871
 30
0.0
 10
15.107145
 20
255.915974
 30
0.0
 10
15.107145
 20
255.915974
 30
0.0
 10
15.033703
 20
256.551951
 30
0.0
 10
14.794625
 20
257.908288
 30
0.0
 10
14.524295
 20
259.258374
 30
0.0
 10
14.524295
 20
259.258374
 30
0.0
 10
23.354543
 20
262.608586
 30
0.0
 10
23.656126
 20
262.146058
 30
0.0
 10
23.815511
 20
261.922606
 30
0.0
 10
23.815511
 20
261.922606
 30
0.0
 10
23.992083
 20
261.714780
 30
0.0
 10
24.254601
 20
261.489764
 30
0.0
 10
24.535869
 20
261.289753
 30
0.0
 10
24.535869
 20
261.289753
 30
0.0
 10
25.131220
 20
260.931918
 30
0.0
 10
25.468741
 20
260.745968
 30
0.0
 10
25.818761
 20
260.589707
 30
0.0
 10
26.534434
 20
260.360006
 30
0.0
 10
26.534434
 20
260.360006
 30
0.0
 10
27.267292
 20
260.195933
 30
0.0
 10
27.682943
 20
260.144369
 30
0.0
 10
28.101719
 20
260.119364
 30
0.0
 10
28.101719
 20
260.119364
 30
0.0
 10
28.995528
 20
260.121057
 30
0.0
 10
29.889334
 20
260.119364
 30
0.0
 10
30.308110
 20
260.144369
 30
0.0
 10
30.722200
 20
260.195933
 30
0.0
 10
30.722200
 20
260.195933
 30
0.0
 10
31.456619
 20
260.360006
 30
0.0
 10
32.170728
 20
260.589707
 30
0.0
 10
32.522312
 20
260.745968
 30
0.0
 10
32.858273
 20
260.931918
 30
0.0
 10
32.858273
 20
260.931918
 30
0.0
 10
33.453620
 20
261.289753
 30
0.0
 10
33.736452
 20
261.489764
 30
0.0
 10
33.998970
 20
261.714780
 30
0.0
 10
33.998970
 20
261.714780
 30
0.0
 10
34.175542
 20
261.922606
 30
0.0
 10
34.334927
 20
262.146058
 30
0.0
 10
34.634946
 20
262.608586
 30
0.0
 10
34.634946
 20
262.608586
 30
0.0
 10
43.465194
 20
259.258374
 30
0.0
 10
43.194865
 20
257.908288
 30
0.0
 10
42.955789
 20
256.551951
 30
0.0
 10
42.955789
 20
256.551951
 30
0.0
 10
42.883907
 20
255.915974
 30
0.0
 10
42.838593
 20
255.276871
 30
0.0
 10
42.793277
 20
254.017414
 30
0.0
 10
42.793277
 20
254.017414
 30
0.0
 10
42.813597
 20
252.757961
 30
0.0
 10
42.869849
 20
251.706331
 30
0.0
 10
42.965170
 20
250.659391
 30
0.0
 10
43.113616
 20
249.620262
 30
0.0
 10
43.113616
 20
249.620262
 30
0.0
 10
43.313629
 20
248.592070
 30
0.0
 10
43.510516
 20
247.813896
 30
0.0
 10
43.763658
 20
247.054473
 30
0.0
 10
43.763658
 20
247.054473
 30
0.0
 10
43.913668
 20
246.687262
 30
0.0
 10
44.082428
 20
246.327864
 30
0.0
 10
44.271503
 20
245.979404
 30
0.0
 10
44.271503
 20
245.979404
 30
0.0
 10
44.487140
 20
245.648134
 30
0.0
 10
44.671528
 20
245.424682
 30
0.0
 10
44.874665
 20
245.215293
 30
0.0
 10
45.316879
 20
244.835583
 30
0.0
 10
45.316879
 20
244.835583
 30
0.0
 10
45.798161
 20
244.499622
 30
0.0
 10
46.312257
 20
244.219918
 30
0.0
 10
46.735721
 20
244.057408
 30
0.0
 10
46.735721
 20
244.057408
 30
0.0
 10
47.170123
 20
243.927713
 30
0.0
 10
48.059241
 20
243.715200
 30
0.0
 10
47.388887
 20
233.753625
 30
0.0
 10
47.388887
 20
233.753625
 30
0.0
 10
47.381070
 20
233.450481
 30
0.0
 10
47.098238
 20
223.518602
 30
0.0
 10
47.076366
 20
222.770114
 30
0.0
 10
47.090420
 20
218.338585
 30
0.0
 10
47.106055
 20
213.800796
 30
0.0
 10
47.110740
 20
212.258511
 30
0.0
 10
45.848163
 20
212.122564
 30
0.0
 10
45.848163
 20
212.122564
 30
0.0
 10
45.216871
 20
212.047561
 30
0.0
 10
44.588707
 20
211.953804
 30
0.0
 10
42.794843
 20
211.538152
 30
0.0
 10
42.794843
 20
211.538152
 30
0.0
 10
40.833779
 20
211.158439
 30
0.0
 10
38.644579
 20
210.716225
 30
0.0
 10
37.547635
 20
210.514651
 30
0.0
 10
37.547635
 20
210.514651
 30
0.0
 10
36.446003
 20
210.342764
 30
0.0
 10
35.216236
 20
210.214632
 30
0.0
 10
33.983346
 20
210.123999
 30
0.0
 10
33.983346
 20
210.123999
 30
0.0
 10
32.748892
 20
210.056808
 30
0.0
 10
31.511313
 20
210.013055
 30
0.0
 10
28.995531
 20
209.994315
 30
0.0
 10
28.995528
 20
209.994315
 30
0.0
  0
LWPOLYLINE
  5
101
100
AcDbEntity
  8
Layer_1
 62
7
100
AcDbPolyline
 90
150
 70
1
 10
72.806518
 20
253.673188
 30
0.0
 10
73.397181
 20
253.762257
 30
0.0
 10
73.731577
 20
253.849763
 30
0.0
 10
74.401931
 20
254.196659
 30
0.0
 10
74.401931
 20
254.196659
 30
0.0
 10
74.787893
 20
254.476364
 30
0.0
 10
75.142604
 20
254.790447
 30
0.0
 10
75.592632
 20
255.284228
 30
0.0
 10
75.592632
 20
255.284228
 30
0.0
 10
75.798894
 20
255.546746
 30
0.0
 10
75.991093
 20
255.820199
 30
0.0
 10
76.394245
 20
256.545245
 30
0.0
 10
76.394245
 20
256.545245
 30
0.0
 10
76.763019
 20
257.290605
 30
0.0
 10
77.148981
 20
258.679757
 30
0.0
 10
77.364618
 20
259.798579
 30
0.0
 10
77.364618
 20
259.798579
 30
0.0
 10
77.552132
 20
260.922086
 30
0.0
 10
86.594894
 20
257.442178
 30
0.0
 10
86.222995
 20
256.540557
 30
0.0
 10
86.222995
 20
256.540557
 30
0.0
 10
85.882347
 20
255.629564
 30
0.0
 10
85.691712
 20
254.890455
 30
0.0
 10
85.526076
 20
254.143531
 30
0.0
 10
85.327625
 20
253.149719
 30
0.0
 10
85.327625
 20
253.149719
 30
0.0
 10
85.240120
 20
252.402796
 30
0.0
 10
85.185428
 20
251.651184
 30
0.0
 10
85.155741
 20
250.898012
 30
0.0
 10
85.155741
 20
250.898012
 30
0.0
 10
85.149476
 20
250.144840
 30
0.0
 10
85.161978
 20
249.463547
 30
0.0
 10
85.202607
 20
248.783815
 30
0.0
 10
85.202607
 20
248.783815
 30
0.0
 10
85.279174
 20
248.108773
 30
0.0
 10
85.399493
 20
247.441544
 30
0.0
 10
85.574505
 20
246.807128
 30
0.0
 10
85.574505
 20
246.807128
 30
0.0
 10
85.796394
 20
246.188339
 30
0.0
 10
86.063599
 20
245.588300
 30
0.0
 10
86.379242
 20
245.011701
 30
0.0
 10
86.379242
 20
245.011701
 30
0.0
 10
86.598006
 20
244.683555
 30
0.0
 10
86.844897
 20
244.377285
 30
0.0
 10
87.116790
 20
244.092892
 30
0.0
 10
87.116790
 20
244.092892
 30
0.0
 10
87.418373
 20
243.841314
 30
0.0
 10
87.780896
 20
243.619425
 30
0.0
 10
88.165294
 20
243.433477
 30
0.0
 10
88.563758
 20
243.278780
 30
0.0
 10
88.563758
 20
243.278780
 30
0.0
 10
88.974721
 20
243.153770
 30
0.0
 10
89.507568
 20
243.038137
 30
0.0
 10
90.046663
 20
242.949071
 30
0.0
 10
90.046663
 20
242.949071
 30
0.0
 10
91.135795
 20
242.810000
 30
0.0
 10
90.529506
 20
232.626536
 30
0.0
 10
90.526373
 20
232.503092
 30
0.0
 10
90.281046
 20
222.572773
 30
0.0
 10
90.218542
 20
220.031986
 30
0.0
 10
90.218542
 20
220.031986
 30
0.0
 10
90.206040
 20
217.386505
 30
0.0
 10
90.182587
 20
212.748714
 30
0.0
 10
90.174770
 20
211.193926
 30
0.0
 10
85.743237
 20
211.814279
 30
0.0
 10
82.366460
 20
212.297121
 30
0.0
 10
82.366460
 20
212.297121
 30
0.0
 10
78.984994
 20
212.734648
 30
0.0
 10
76.505150
 20
212.987790
 30
0.0
 10
75.264447
 20
213.086234
 30
0.0
 10
75.264447
 20
213.086234
 30
0.0
 10
74.020618
 20
213.159674
 30
0.0
 10
73.045557
 20
213.175309
 30
0.0
 10
72.072057
 20
213.170625
 30
0.0
 10
72.072057
 20
213.170625
 30
0.0
 10
71.096993
 20
213.175309
 30
0.0
 10
70.123496
 20
213.159674
 30
0.0
 10
68.879666
 20
213.086234
 30
0.0
 10
68.879666
 20
213.086234
 30
0.0
 10
67.637400
 20
212.987790
 30
0.0
 10
65.157556
 20
212.734648
 30
0.0
 10
61.776088
 20
212.297121
 30
0.0
 10
61.776088
 20
212.297121
 30
0.0
 10
58.400874
 20
211.814279
 30
0.0
 10
53.967778
 20
211.193926
 30
0.0
 10
53.959960
 20
212.748714
 30
0.0
 10
53.936508
 20
217.386505
 30
0.0
 10
53.925557
 20
220.031986
 30
0.0
 10
53.925557
 20
220.031986
 30
0.0
 10
53.863054
 20
222.572773
 30
0.0
 10
53.617726
 20
232.503092
 30
0.0
 10
53.614594
 20
232.626536
 30
0.0
 10
53.008307
 20
242.810000
 30
0.0
 10
54.095876
 20
242.949071
 30
0.0
 10
54.095876
 20
242.949071
 30
0.0
 10
54.634971
 20
243.038137
 30
0.0
 10
55.169381
 20
243.153770
 30
0.0
 10
55.578781
 20
243.278780
 30
0.0
 10
55.578781
 20
243.278780
 30
0.0
 10
55.978806
 20
243.433477
 30
0.0
 10
56.363207
 20
243.619425
 30
0.0
 10
56.725730
 20
243.841314
 30
0.0
 10
57.025749
 20
244.092892
 30
0.0
 10
57.025749
 20
244.092892
 30
0.0
 10
57.299202
 20
244.377285
 30
0.0
 10
57.546093
 20
244.683555
 30
0.0
 10
57.764858
 20
245.011701
 30
0.0
 10
57.764858
 20
245.011701
 30
0.0
 10
58.080504
 20
245.588300
 30
0.0
 10
58.347709
 20
246.188339
 30
0.0
 10
58.569598
 20
246.807128
 30
0.0
 10
58.569598
 20
246.807128
 30
0.0
 10
58.743046
 20
247.441544
 30
0.0
 10
58.864929
 20
248.108773
 30
0.0
 10
58.941496
 20
248.783815
 30
0.0
 10
58.941496
 20
248.783815
 30
0.0
 10
58.982122
 20
249.463547
 30
0.0
 10
58.994624
 20
250.144840
 30
0.0
 10
58.988387
 20
250.898012
 30
0.0
 10
58.988387
 20
250.898012
 30
0.0
 10
58.958697
 20
251.651184
 30
0.0
 10
58.902445
 20
252.402796
 30
0.0
 10
58.816502
 20
253.149719
 30
0.0
 10
58.816502
 20
253.149719
 30
0.0
 10
58.616489
 20
254.143531
 30
0.0
 10
58.452416
 20
254.890455
 30
0.0
 10
58.261778
 20
255.629564
 30
0.0
 10
57.921133
 20
256.540557
 30
0.0
 10
57.921133
 20
256.540557
 30
0.0
 10
57.547671
 20
257.442178
 30
0.0
 10
66.590435
 20
260.922086
 30
0.0
 10
66.779510
 20
259.798579
 30
0.0
 10
66.779510
 20
259.798579
 30
0.0
 10
66.993587
 20
258.679757
 30
0.0
 10
67.379548
 20
257.290605
 30
0.0
 10
67.748322
 20
256.545245
 30
0.0
 10
67.748322
 20
256.545245
 30
0.0
 10
68.153034
 20
255.820199
 30
0.0
 10
68.343673
 20
255.546746
 30
0.0
 10
68.549935
 20
255.284228
 30
0.0
 10
68.549935
 20
255.284228
 30
0.0
 10
68.998400
 20
254.790447
 30
0.0
 10
69.354675
 20
254.476364
 30
0.0
 10
69.739073
 20
254.196659
 30
0.0
 10
69.739073
 20
254.196659
 30
0.0
 10
70.409429
 20
253.849763
 30
0.0
 10
70.746950
 20
253.762257
 30
0.0
 10
71.337613
 20
253.673188
 30
0.0
 10
72.072065
 20
253.590370
 30
0.0
 10
72.806518
 20
253.673188
 30
0.0
  0
LWPOLYLINE
  5
102
100
AcDbEntity
  8
Layer_1
 62
7
100
AcDbPolyline
 90
96
 70
0
 10
95.119150
 20
250.770324
 30
0.0
 10
96.023893
 20
247.693565
 30
0.0
 10
96.898951
 20
244.608995
 30
0.0
 10
96.898951
 20
244.608995
 30
0.0
 10
97.727127
 20
241.358788
 30
0.0
 10
98.508428
 20
238.097643
 30
0.0
 10
98.950642
 20
236.203774
 30
0.0
 10
99.369420
 20
234.303650
 30
0.0
 10
99.369420
 20
234.303650
 30
0.0
 10
100.214786
 20
230.151823
 30
0.0
 10
101.016398
 20
225.990620
 30
0.0
 10
101.421111
 20
223.767042
 30
0.0
 10
103.204038
 20
213.488266
 30
0.0
 10
103.152471
 20
211.945978
 30
0.0
 10
103.152471
 20
211.945978
 30
0.0
 10
107.763702
 20
212.241309
 30
0.0
 10
111.202984
 20
212.288189
 30
0.0
 10
114.662577
 20
212.241309
 30
0.0
 10
114.662577
 20
212.241309
 30
0.0
 10
118.869096
 20
211.941290
 30
0.0
 10
118.831594
 20
213.485139
 30
0.0
 10
120.780152
 20
224.395206
 30
0.0
 10
121.070796
 20
225.987496
 30
0.0
 10
121.845846
 20
230.150259
 30
0.0
 10
121.845846
 20
230.150259
 30
0.0
 10
122.667773
 20
234.303650
 30
0.0
 10
123.091239
 20
236.217837
 30
0.0
 10
123.539704
 20
238.127332
 30
0.0
 10
124.202246
 20
240.854068
 30
0.0
 10
124.202246
 20
240.854068
 30
0.0
 10
124.900727
 20
243.571427
 30
0.0
 10
125.917980
 20
247.181033
 30
0.0
 10
126.968047
 20
250.781260
 30
0.0
 10
126.968047
 20
250.781260
 30
0.0
 10
122.902164
 20
251.542247
 30
0.0
 10
122.259937
 20
251.796949
 30
0.0
 10
121.636457
 20
252.087593
 30
0.0
 10
121.200494
 20
252.381361
 30
0.0
 10
121.200494
 20
252.381361
 30
0.0
 10
120.792655
 20
252.714197
 30
0.0
 10
120.100423
 20
253.354861
 30
0.0
 10
119.770714
 20
253.692382
 30
0.0
 10
119.770714
 20
253.692382
 30
0.0
 10
119.459759
 20
254.047093
 30
0.0
 10
119.084733
 20
254.576813
 30
0.0
 10
118.725335
 20
255.119035
 30
0.0
 10
118.725335
 20
255.119035
 30
0.0
 10
118.361251
 20
255.656570
 30
0.0
 10
117.970599
 20
256.173790
 30
0.0
 10
117.542448
 20
256.612880
 30
0.0
 10
117.542448
 20
256.612880
 30
0.0
 10
117.081481
 20
257.019155
 30
0.0
 10
116.600201
 20
257.400432
 30
0.0
 10
116.097044
 20
257.752016
 30
0.0
 10
116.097044
 20
257.752016
 30
0.0
 10
115.656391
 20
258.023909
 30
0.0
 10
115.201675
 20
258.272360
 30
0.0
 10
114.734459
 20
258.495813
 30
0.0
 10
114.734459
 20
258.495813
 30
0.0
 10
114.254740
 20
258.691139
 30
0.0
 10
113.885966
 20
258.806771
 30
0.0
 10
113.507816
 20
258.886462
 30
0.0
 10
112.692140
 20
258.983343
 30
0.0
 10
112.692140
 20
258.983343
 30
0.0
 10
111.871777
 20
259.028659
 30
0.0
 10
111.077976
 20
259.020842
 30
0.0
 10
110.316989
 20
258.992704
 30
0.0
 10
109.559130
 20
258.927076
 30
0.0
 10
109.559130
 20
258.927076
 30
0.0
 10
109.045034
 20
258.831759
 30
0.0
 10
108.537189
 20
258.705188
 30
0.0
 10
108.038719
 20
258.550490
 30
0.0
 10
108.038719
 20
258.550490
 30
0.0
 10
107.551189
 20
258.364540
 30
0.0
 10
107.230855
 20
258.209842
 30
0.0
 10
106.921461
 20
258.033270
 30
0.0
 10
106.921461
 20
258.033270
 30
0.0
 10
106.623005
 20
257.837944
 30
0.0
 10
106.337049
 20
257.625431
 30
0.0
 10
106.024530
 20
257.348850
 30
0.0
 10
106.024530
 20
257.348850
 30
0.0
 10
105.724511
 20
257.056646
 30
0.0
 10
105.144784
 20
256.453480
 30
0.0
 10
103.549371
 20
254.786188
 30
0.0
 10
102.930582
 20
254.158023
 30
0.0
 10
102.930582
 20
254.158023
 30
0.0
 10
102.297730
 20
253.547046
 30
0.0
 10
101.646126
 20
252.957947
 30
0.0
 10
101.310166
 20
252.676678
 30
0.0
 10
101.310166
 20
252.676678
 30
0.0
 10
100.960146
 20
252.412600
 30
0.0
 10
100.614810
 20
252.198523
 30
0.0
 10
100.256975
 20
252.006324
 30
0.0
 10
100.256975
 20
252.006324
 30
0.0
 10
99.527241
 20
251.643801
 30
0.0
 10
95.119150
 20
250.770324
 30
0.0
  0
LWPOLYLINE
  5
103
100
AcDbEntity
  8
Layer_1
 62
7
100
AcDbPolyline
 90
108
 70
0
 10
140.634283
 20
230.195071
 30
0.0
 10
141.778104
 20
230.662289
 30
0.0
 10
142.592219
 20
230.993559
 30
0.0
 10
143.539154
 20
231.385772
 30
0.0
 10
143.539154
 20
231.385772
 30
0.0
 10
144.586094
 20
231.824862
 30
0.0
 10
145.640848
 20
232.245200
 30
0.0
 10
146.615912
 20
232.584285
 30
0.0
 10
146.615912
 20
232.584285
 30
0.0
 10
147.605036
 20
232.885868
 30
0.0
 10
148.373835
 20
233.085878
 30
0.0
 10
149.152009
 20
233.245263
 30
0.0
 10
150.186449
 20
233.378086
 30
0.0
 10
150.186449
 20
233.378086
 30
0.0
 10
151.227141
 20
233.451528
 30
0.0
 10
151.936563
 20
233.471848
 30
0.0
 10
152.645982
 20
233.451528
 30
0.0
 10
152.645982
 20
233.451528
 30
0.0
 10
153.216331
 20
233.381210
 30
0.0
 10
153.641357
 20
233.323394
 30
0.0
 10
154.061696
 20
233.240579
 30
0.0
 10
154.511725
 20
233.115568
 30
0.0
 10
154.511725
 20
233.115568
 30
0.0
 10
154.952378
 20
232.963998
 30
0.0
 10
155.380529
 20
232.782735
 30
0.0
 10
155.789932
 20
232.563970
 30
0.0
 10
155.789932
 20
232.563970
 30
0.0
 10
156.272775
 20
232.220198
 30
0.0
 10
156.719679
 20
231.827989
 30
0.0
 10
157.130643
 20
231.399835
 30
0.0
 10
157.130643
 20
231.399835
 30
0.0
 10
157.496290
 20
230.931055
 30
0.0
 10
157.765056
 20
230.476339
 30
0.0
 10
157.994759
 20
229.999747
 30
0.0
 10
157.994759
 20
229.999747
 30
0.0
 10
158.194773
 20
229.505966
 30
0.0
 10
158.374469
 20
229.004369
 30
0.0
 10
158.522918
 20
228.569967
 30
0.0
 10
158.640114
 20
228.126190
 30
0.0
 10
158.640114
 20
228.126190
 30
0.0
 10
158.801060
 20
227.313638
 30
0.0
 10
158.897941
 20
226.491711
 30
0.0
 10
158.919813
 20
225.876046
 30
0.0
 10
158.919813
 20
225.876046
 30
0.0
 10
158.915128
 20
225.260384
 30
0.0
 10
158.888571
 20
224.644719
 30
0.0
 10
158.843258
 20
224.029054
 30
0.0
 10
158.843258
 20
224.029054
 30
0.0
 10
158.680745
 20
222.666468
 30
0.0
 10
158.576052
 20
221.988299
 30
0.0
 10
158.449481
 20
221.313258
 30
0.0
 10
158.449481
 20
221.313258
 30
0.0
 10
158.318223
 20
220.753845
 30
0.0
 10
157.283782
 20
217.034859
 30
0.0
 10
156.585299
 20
214.320627
 30
0.0
 10
155.791498
 20
214.483136
 30
0.0
 10
155.791498
 20
214.483136
 30
0.0
 10
154.993013
 20
214.620646
 30
0.0
 10
154.078892
 20
214.706588
 30
0.0
 10
153.161644
 20
214.728460
 30
0.0
 10
152.363156
 20
214.708140
 30
0.0
 10
152.363156
 20
214.708140
 30
0.0
 10
151.566231
 20
214.655015
 30
0.0
 10
150.773994
 20
214.562818
 30
0.0
 10
149.988005
 20
214.425311
 30
0.0
 10
149.988005
 20
214.425311
 30
0.0
 10
149.525476
 20
214.301864
 30
0.0
 10
149.069199
 20
214.150294
 30
0.0
 10
148.619170
 20
213.979970
 30
0.0
 10
148.619170
 20
213.979970
 30
0.0
 10
148.178517
 20
213.787771
 30
0.0
 10
147.390965
 20
213.372120
 30
0.0
 10
146.611230
 20
212.940842
 30
0.0
 10
146.611230
 20
212.940842
 30
0.0
 10
145.828368
 20
212.514252
 30
0.0
 10
145.431468
 20
212.314238
 30
0.0
 10
145.025192
 20
212.134542
 30
0.0
 10
145.025192
 20
212.134542
 30
0.0
 10
144.650166
 20
212.017346
 30
0.0
 10
144.268893
 20
211.925153
 30
0.0
 10
143.496970
 20
211.762643
 30
0.0
 10
142.537533
 20
211.789200
 30
0.0
 10
142.537533
 20
211.789200
 30
0.0
 10
141.545282
 20
211.912644
 30
0.0
 10
141.431213
 20
211.926699
 30
0.0
 10
140.329581
 20
212.093896
 30
0.0
 10
140.735857
 20
213.901823
 30
0.0
 10
140.735857
 20
213.901823
 30
0.0
 10
140.926493
 20
214.808132
 30
0.0
 10
141.096817
 20
215.717564
 30
0.0
 10
141.331205
 20
217.234848
 30
0.0
 10
141.331205
 20
217.234848
 30
0.0
 10
141.517156
 20
218.758382
 30
0.0
 10
141.653102
 20
220.286604
 30
0.0
 10
141.726545
 20
221.817950
 30
0.0
 10
141.726545
 20
221.817950
 30
0.0
 10
141.729677
 20
222.572686
 30
0.0
 10
141.714042
 20
223.327421
 30
0.0
 10
141.631224
 20
224.833768
 30
0.0
 10
141.631224
 20
224.833768
 30
0.0
 10
141.487466
 20
226.335425
 30
0.0
 10
141.389024
 20
227.083909
 30
0.0
 10
141.268701
 20
227.827709
 30
0.0
 10
141.268701
 20
227.827709
 30
0.0
 10
141.135882
 20
228.424620
 30
0.0
 10
140.978057
 20
229.018410
 30
0.0
 10
140.634288
 20
230.195045
 30
0.0
 10
140.634283
 20
230.195071
 30
0.0
  0
LWPOLYLINE
  5
104
100
AcDbEntity
  8
Layer_1
 62
7
100
AcDbPolyline
 90
18
 70
1
 10
167.793357
 20
214.039313
 30
0.0
 10
167.898053
 20
220.766305
 30
0.0
 10
168.026184
 20
228.854317
 30
0.0
 10
168.126190
 20
235.578186
 30
0.0
 10
168.210571
 20
241.095723
 30
0.0
 10
168.305889
 20
247.332058
 30
0.0
 10
168.293387
 20
248.563385
 30
0.0
 10
163.960299
 20
248.572755
 30
0.0
 10
163.960299
 20
248.572755
 30
0.0
 10
159.628775
 20
248.561805
 30
0.0
 10
159.616273
 20
247.332041
 30
0.0
 10
159.713154
 20
241.094143
 30
0.0
 10
159.799096
 20
235.576605
 30
0.0
 10
159.900665
 20
228.852737
 30
0.0
 10
160.030360
 20
220.764725
 30
0.0
 10
160.136620
 20
214.039296
 30
0.0
 10
163.964987
 20
214.070558
 30
0.0
 10
167.793357
 20
214.039313
 30
0.0
  0
LWPOLYLINE
  5
105
100
AcDbEntity
  8
Layer_1
 62
7
100
AcDbPolyline
 90
108
 70
0
 10
187.056607
 20
230.846157
 30
0.0
 10
185.912785
 20
231.313376
 30
0.0
 10
185.098670
 20
231.644646
 30
0.0
 10
184.151736
 20
232.036858
 30
0.0
 10
184.151736
 20
232.036858
 30
0.0
 10
183.104793
 20
232.475948
 30
0.0
 10
182.050038
 20
232.896290
 30
0.0
 10
181.074977
 20
233.235372
 30
0.0
 10
181.074977
 20
233.235372
 30
0.0
 10
180.085850
 20
233.536954
 30
0.0
 10
179.317052
 20
233.736971
 30
0.0
 10
178.538878
 20
233.896356
 30
0.0
 10
177.504437
 20
234.029175
 30
0.0
 10
177.504437
 20
234.029175
 30
0.0
 10
176.463746
 20
234.102618
 30
0.0
 10
175.754326
 20
234.122938
 30
0.0
 10
175.044907
 20
234.102618
 30
0.0
 10
175.044907
 20
234.102618
 30
0.0
 10
174.474559
 20
234.032302
 30
0.0
 10
174.049532
 20
233.974483
 30
0.0
 10
173.629193
 20
233.891668
 30
0.0
 10
173.179164
 20
233.766660
 30
0.0
 10
173.179164
 20
233.766660
 30
0.0
 10
172.738511
 20
233.615085
 30
0.0
 10
172.310357
 20
233.433822
 30
0.0
 10
171.900957
 20
233.215057
 30
0.0
 10
171.900957
 20
233.215057
 30
0.0
 10
171.418115
 20
232.871288
 30
0.0
 10
170.971210
 20
232.479075
 30
0.0
 10
170.560246
 20
232.050922
 30
0.0
 10
170.560246
 20
232.050922
 30
0.0
 10
170.194599
 20
231.582142
 30
0.0
 10
169.925831
 20
231.127426
 30
0.0
 10
169.696130
 20
230.650834
 30
0.0
 10
169.696130
 20
230.650834
 30
0.0
 10
169.496116
 20
230.157052
 30
0.0
 10
169.316417
 20
229.655459
 30
0.0
 10
169.167971
 20
229.221054
 30
0.0
 10
169.050775
 20
228.777276
 30
0.0
 10
169.050775
 20
228.777276
 30
0.0
 10
168.889830
 20
227.964725
 30
0.0
 10
168.792948
 20
227.142798
 30
0.0
 10
168.771076
 20
226.527133
 30
0.0
 10
168.771076
 20
226.527133
 30
0.0
 10
168.775761
 20
225.911471
 30
0.0
 10
168.802318
 20
225.295806
 30
0.0
 10
168.847632
 20
224.680141
 30
0.0
 10
168.847632
 20
224.680141
 30
0.0
 10
169.010144
 20
223.317555
 30
0.0
 10
169.114837
 20
222.639386
 30
0.0
 10
169.241408
 20
221.964344
 30
0.0
 10
169.241408
 20
221.964344
 30
0.0
 10
169.372667
 20
221.404935
 30
0.0
 10
170.407107
 20
217.685949
 30
0.0
 10
171.105587
 20
214.971713
 30
0.0
 10
171.899388
 20
215.134222
 30
0.0
 10
171.899388
 20
215.134222
 30
0.0
 10
172.697877
 20
215.271732
 30
0.0
 10
173.611997
 20
215.357675
 30
0.0
 10
174.529242
 20
215.379547
 30
0.0
 10
175.327731
 20
215.359227
 30
0.0
 10
175.327731
 20
215.359227
 30
0.0
 10
176.124658
 20
215.306099
 30
0.0
 10
176.916896
 20
215.213905
 30
0.0
 10
177.702882
 20
215.076395
 30
0.0
 10
177.702882
 20
215.076395
 30
0.0
 10
178.165413
 20
214.952951
 30
0.0
 10
178.621690
 20
214.801378
 30
0.0
 10
179.071719
 20
214.631054
 30
0.0
 10
179.071719
 20
214.631054
 30
0.0
 10
179.512372
 20
214.438855
 30
0.0
 10
180.299922
 20
214.023204
 30
0.0
 10
181.079659
 20
213.591926
 30
0.0
 10
181.079659
 20
213.591926
 30
0.0
 10
181.862521
 20
213.165336
 30
0.0
 10
182.259422
 20
212.965325
 30
0.0
 10
182.665697
 20
212.785625
 30
0.0
 10
182.665697
 20
212.785625
 30
0.0
 10
183.040720
 20
212.668430
 30
0.0
 10
183.421996
 20
212.576236
 30
0.0
 10
184.193919
 20
212.413727
 30
0.0
 10
185.153356
 20
212.440284
 30
0.0
 10
185.153356
 20
212.440284
 30
0.0
 10
186.145605
 20
212.563731
 30
0.0
 10
186.259676
 20
212.577786
 30
0.0
 10
187.361308
 20
212.744983
 30
0.0
 10
186.955032
 20
214.552910
 30
0.0
 10
186.955032
 20
214.552910
 30
0.0
 10
186.764397
 20
215.459218
 30
0.0
 10
186.594073
 20
216.368651
 30
0.0
 10
186.359681
 20
217.885934
 30
0.0
 10
186.359681
 20
217.885934
 30
0.0
 10
186.173734
 20
219.409469
 30
0.0
 10
186.037787
 20
220.937691
 30
0.0
 10
185.964345
 20
222.469037
 30
0.0
 10
185.964345
 20
222.469037
 30
0.0
 10
185.961212
 20
223.223772
 30
0.0
 10
185.976847
 20
223.978508
 30
0.0
 10
186.059665
 20
225.484855
 30
0.0
 10
186.059665
 20
225.484855
 30
0.0
 10
186.203426
 20
226.986511
 30
0.0
 10
186.301868
 20
227.734999
 30
0.0
 10
186.422188
 20
228.478795
 30
0.0
 10
186.422188
 20
228.478795
 30
0.0
 10
186.555010
 20
229.075707
 30
0.0
 10
186.712832
 20
229.669497
 30
0.0
 10
187.056604
 20
230.846132
 30
0.0
 10
187.056607
 20
230.846157
 30
0.0
  0
ENDSEC
  0
SECTION
  2
OBJECTS
  0
DICTIONARY
  5
C
330
0
100
AcDbDictionary
  3
ACAD_GROUP
350
D
  3
ACAD_MLINESTYLE
350
17
  0
DICTIONARY
  5
D
330
C
100
AcDbDictionary
  0
DICTIONARY
  5
1A
330
C
100
AcDbDictionary
  0
DICTIONARY
  5
17
330
C
100
AcDbDictionary
  3
STANDARD
350
18
  0
DICTIONARY
  5
19
330
C
100
AcDbDictionary
  0
ENDSEC
  0
EOF
