  0
SECTION
  2
HEADER
  9
$ACADVER
  1
AC1014
  9
$HANDSEED
  5
FFFF
  9
$MEASUREMENT
 70
     1
  0
ENDSEC
  0
SECTION
  2
TABLES
  0
TABLE
  2
VPORT
  5
8
330
0
100
AcDbSymbolTable
 70
     4
  0
VPORT
  5
2E
330
8
100
AcDbSymbolTableRecord
100
AcDbViewportTableRecord
  2
*ACTIVE
 70
     0
 10
0.0
 20
0.0
 11
1.0
 21
1.0
 12
210.0
 22
148.5
 13
0.0
 23
0.0
 14
10.0
 24
10.0
 15
10.0
 25
10.0
 16
0.0
 26
0.0
 36
1.0
 17
0.0
 27
0.0
 37
0.0
 40
341.0
 41
1.24
 42
50.0
 43
0.0
 44
0.0
 50
0.0
 51
0.0
 71
     0
 72
   100
 73
     1
 74
     3
 75
     0
 76
     0
 77
     0
 78
     0
  0
ENDTAB
  0
TABLE
  2
LTYPE
  5
5
330
0
100
AcDbSymbolTable
 70
     1
  0
LTYPE
  5
14
330
5
100
AcDbSymbolTableRecord
100
AcDbLinetypeTableRecord
  2
BYBLOCK
 70
     0
  3

 72
    65
 73
     0
 40
0.0
  0
LTYPE
  5
15
330
5
100
AcDbSymbolTableRecord
100
AcDbLinetypeTableRecord
  2
BYLAYER
 70
     0
  3

 72
    65
 73
     0
 40
0.0
  0
LTYPE
  5
16
330
5
100
AcDbSymbolTableRecord
100
AcDbLinetypeTableRecord
  2
CONTINUOUS
 70
     0
  3
Solid line
 72
    65
 73
     0
 40
0.0
  0
ENDTAB
  0
TABLE
  2
LAYER
  5
2
100
AcDbSymbolTable
 70
2
  0
LAYER
  5
50
100
AcDbSymbolTableRecord
100
AcDbLayerTableRecord
  2
0
 70
0
  6
CONTINUOUS
  0
LAYER
  5
51
100
AcDbSymbolTableRecord
100
AcDbLayerTableRecord
  2
Layer_1
 70
0
  6
CONTINUOUS
  0
ENDTAB
  0
TABLE
  2
STYLE
  5
3
330
0
100
AcDbSymbolTable
 70
     1
  0
STYLE
  5
11
330
3
100
AcDbSymbolTableRecord
100
AcDbTextStyleTableRecord
  2
STANDARD
 70
     0
 40
0.0
 41
1.0
 50
0.0
 71
     0
 42
2.5
  3
txt
  4

  0
ENDTAB
  0
TABLE
  2
VIEW
  5
6
330
0
100
AcDbSymbolTable
 70
     0
  0
ENDTAB
  0
TABLE
  2
UCS
  5
7
330
0
100
AcDbSymbolTable
 70
     0
  0
ENDTAB
  0
TABLE
  2
APPID
  5
9
330
0
100
AcDbSymbolTable
 70
     2
  0
APPID
  5
12
330
9
100
AcDbSymbolTableRecord
100
AcDbRegAppTableRecord
  2
ACAD
 70
     0
  0
ENDTAB
  0
TABLE
  2
DIMSTYLE
  5
A
330
0
100
AcDbSymbolTable
 70
     1
  0
DIMSTYLE
105
27
330
A
100
AcDbSymbolTableRecord
100
AcDbDimStyleTableRecord
  2
ISO-25
 70
     0
  3

  4

  5

  6

  7

 40
1.0
 41
2.5
 42
0.625
 43
3.75
 44
1.25
 45
0.0
 46
0.0
 47
0.0
 48
0.0
140
2.5
141
2.5
142
0.0
143
0.03937007874016
144
1.0
145
0.0
146
1.0
147
0.625
 71
     0
 72
     0
 73
     0
 74
     0
 75
     0
 76
     0
 77
     1
 78
     8
170
     0
171
     3
172
     1
173
     0
174
     0
175
     0
176
     0
177
     0
178
     0
270
     2
271
     2
272
     2
273
     2
274
     3
340
11
275
     0
280
     0
281
     0
282
     0
283
     0
284
     8
285
     0
286
     0
287
     3
288
     0
  0
ENDTAB
  0
TABLE
  2
BLOCK_RECORD
  5
1
330
0
100
AcDbSymbolTable
 70
     1
  0
BLOCK_RECORD
  5
1F
330
1
100
AcDbSymbolTableRecord
100
AcDbBlockTableRecord
  2
*MODEL_SPACE
  0
BLOCK_RECORD
  5
1B
330
1
100
AcDbSymbolTableRecord
100
AcDbBlockTableRecord
  2
*PAPER_SPACE
  0
ENDTAB
  0
ENDSEC
  0
SECTION
  2
BLOCKS
  0
BLOCK
  5
20
330
1F
100
AcDbEntity
  8
0
100
AcDbBlockBegin
  2
*MODEL_SPACE
 70
     0
 10
0.0
 20
0.0
 30
0.0
  3
*MODEL_SPACE
  1

  0
ENDBLK
  5
21
330
1F
100
AcDbEntity
  8
0
100
AcDbBlockEnd
  0
BLOCK
  5
1C
330
1B
100
AcDbEntity
 67
     1
  8
0
100
AcDbBlockBegin
  2
*PAPER_SPACE
  1

  0
ENDBLK
  5
1D
330
1B
100
AcDbEntity
 67
     1
  8
0
100
AcDbBlockEnd
  0
ENDSEC
  0
SECTION
  2
ENTITIES
  0
LWPOLYLINE
  5
100
100
AcDbEntity
  8
Layer_1
 62
7
100
AcDbPolyline
 90
80
 70
0
 10
41.085728
 20
216.440104
 30
0.0
 10
41.777960
 20
216.585426
 30
0.0
 10
42.118605
 20
216.676056
 30
0.0
 10
42.118605
 20
216.676056
 30
0.0
 10
42.448313
 20
216.793252
 30
0.0
 10
42.751457
 20
216.952637
 30
0.0
 10
43.035852
 20
217.144836
 30
0.0
 10
43.035852
 20
217.144836
 30
0.0
 10
43.298367
 20
217.363600
 30
0.0
 10
43.531195
 20
217.613615
 30
0.0
 10
43.787461
 20
218.012079
 30
0.0
 10
43.787461
 20
218.012079
 30
0.0
 10
43.996850
 20
218.441793
 30
0.0
 10
44.167174
 20
218.890259
 30
0.0
 10
44.298433
 20
219.352790
 30
0.0
 10
44.298433
 20
219.352790
 30
0.0
 10
44.456254
 20
220.163778
 30
0.0
 10
44.567198
 20
220.984142
 30
0.0
 10
44.723459
 20
222.638935
 30
0.0
 10
45.201614
 20
237.766458
 30
0.0
 10
45.279745
 20
240.238490
 30
0.0
 10
45.279745
 20
240.238490
 30
0.0
 10
61.263572
 20
241.293245
 30
0.0
 10
77.552104
 20
242.371438
 30
0.0
 10
77.653673
 20
239.910345
 30
0.0
 10
78.097453
 20
229.242480
 30
0.0
 10
78.270902
 20
224.014023
 30
0.0
 10
78.270902
 20
224.014023
 30
0.0
 10
78.339656
 20
222.703002
 30
0.0
 10
78.455289
 20
221.398232
 30
0.0
 10
78.520917
 20
220.906011
 30
0.0
 10
78.608422
 20
220.416920
 30
0.0
 10
78.608422
 20
220.416920
 30
0.0
 10
78.727179
 20
219.938762
 30
0.0
 10
78.883439
 20
219.471546
 30
0.0
 10
79.097516
 20
219.012142
 30
0.0
 10
79.097516
 20
219.012142
 30
0.0
 10
79.355346
 20
218.576176
 30
0.0
 10
79.653802
 20
218.169901
 30
0.0
 10
79.996010
 20
217.799566
 30
0.0
 10
79.996010
 20
217.799566
 30
0.0
 10
80.356970
 20
217.510486
 30
0.0
 10
80.749182
 20
217.265155
 30
0.0
 10
81.164834
 20
217.057330
 30
0.0
 10
81.164834
 20
217.057330
 30
0.0
 10
81.600799
 20
216.894821
 30
0.0
 10
81.982073
 20
216.802627
 30
0.0
 10
82.368037
 20
216.730748
 30
0.0
 10
82.368037
 20
216.730748
 30
0.0
 10
83.147772
 20
216.627615
 30
0.0
 10
84.727562
 20
216.504171
 30
0.0
 10
84.247843
 20
214.599360
 30
0.0
 10
84.247843
 20
214.599360
 30
0.0
 10
84.021267
 20
213.643050
 30
0.0
 10
83.816565
 20
212.683616
 30
0.0
 10
83.594677
 20
211.388219
 30
0.0
 10
83.594677
 20
211.388219
 30
0.0
 10
83.408726
 20
210.085013
 30
0.0
 10
83.250905
 20
208.780243
 30
0.0
 10
83.127461
 20
207.470786
 30
0.0
 10
83.127461
 20
207.470786
 30
0.0
 10
83.060266
 20
206.326961
 30
0.0
 10
83.014953
 20
205.180013
 30
0.0
 10
82.957137
 20
202.886117
 30
0.0
 10
83.010265
 20
201.348522
 30
0.0
 10
83.010265
 20
201.348522
 30
0.0
 10
42.674890
 20
201.348522
 30
0.0
 10
42.724894
 20
202.886117
 30
0.0
 10
42.684265
 20
204.615916
 30
0.0
 10
42.612386
 20
206.344149
 30
0.0
 10
42.612386
 20
206.344149
 30
0.0
 10
42.499878
 20
207.939565
 30
0.0
 10
42.356120
 20
209.531852
 30
0.0
 10
42.177984
 20
211.121017
 30
0.0
 10
42.177984
 20
211.121017
 30
0.0
 10
41.948281
 20
212.702367
 30
0.0
 10
41.760769
 20
213.641490
 30
0.0
 10
41.545132
 20
214.575922
 30
0.0
 10
41.545132
 20
214.575922
 30
0.0
 10
41.085728
 20
216.440104
 30
0.0
  0
LWPOLYLINE
  5
101
100
AcDbEntity
  8
Layer_1
 62
7
100
AcDbPolyline
 90
80
 70
0
 10
136.311098
 20
217.820284
 30
0.0
 10
135.618866
 20
217.965606
 30
0.0
 10
135.278218
 20
218.056238
 30
0.0
 10
135.278218
 20
218.056238
 30
0.0
 10
134.948509
 20
218.173431
 30
0.0
 10
134.645366
 20
218.332816
 30
0.0
 10
134.360974
 20
218.525018
 30
0.0
 10
134.360974
 20
218.525018
 30
0.0
 10
134.098456
 20
218.743780
 30
0.0
 10
133.865628
 20
218.993798
 30
0.0
 10
133.609362
 20
219.392259
 30
0.0
 10
133.609362
 20
219.392259
 30
0.0
 10
133.399973
 20
219.821976
 30
0.0
 10
133.229652
 20
220.270441
 30
0.0
 10
133.098393
 20
220.732969
 30
0.0
 10
133.098393
 20
220.732969
 30
0.0
 10
132.940569
 20
221.543958
 30
0.0
 10
132.829625
 20
222.364324
 30
0.0
 10
132.673367
 20
224.019117
 30
0.0
 10
132.195209
 20
239.146640
 30
0.0
 10
132.117081
 20
241.618673
 30
0.0
 10
132.117081
 20
241.618673
 30
0.0
 10
116.133253
 20
242.673424
 30
0.0
 10
99.844719
 20
243.751618
 30
0.0
 10
99.743150
 20
240.726080
 30
0.0
 10
99.299370
 20
230.622660
 30
0.0
 10
99.125921
 20
225.394202
 30
0.0
 10
99.125921
 20
225.394202
 30
0.0
 10
99.057169
 20
224.083181
 30
0.0
 10
98.941534
 20
222.778412
 30
0.0
 10
98.875906
 20
222.286194
 30
0.0
 10
98.788401
 20
221.797100
 30
0.0
 10
98.788401
 20
221.797100
 30
0.0
 10
98.669644
 20
221.318945
 30
0.0
 10
98.513384
 20
220.851729
 30
0.0
 10
98.299307
 20
220.392324
 30
0.0
 10
98.299307
 20
220.392324
 30
0.0
 10
98.041480
 20
219.956359
 30
0.0
 10
97.743021
 20
219.550083
 30
0.0
 10
97.400813
 20
219.179745
 30
0.0
 10
97.400813
 20
219.179745
 30
0.0
 10
97.039853
 20
218.890665
 30
0.0
 10
96.647641
 20
218.645338
 30
0.0
 10
96.231989
 20
218.437512
 30
0.0
 10
96.231989
 20
218.437512
 30
0.0
 10
95.796024
 20
218.275000
 30
0.0
 10
95.414750
 20
218.182807
 30
0.0
 10
95.028789
 20
218.110927
 30
0.0
 10
95.028789
 20
218.110927
 30
0.0
 10
94.249051
 20
218.007798
 30
0.0
 10
92.669261
 20
217.884351
 30
0.0
 10
93.148980
 20
215.979543
 30
0.0
 10
93.148980
 20
215.979543
 30
0.0
 10
93.375556
 20
215.023233
 30
0.0
 10
93.580258
 20
214.063796
 30
0.0
 10
93.802146
 20
212.768401
 30
0.0
 10
93.802146
 20
212.768401
 30
0.0
 10
93.988097
 20
211.465192
 30
0.0
 10
94.145918
 20
210.160423
 30
0.0
 10
94.269365
 20
208.850965
 30
0.0
 10
94.269365
 20
208.850965
 30
0.0
 10
94.336557
 20
207.707144
 30
0.0
 10
94.381870
 20
206.560196
 30
0.0
 10
94.439686
 20
204.266299
 30
0.0
 10
94.386558
 20
202.728702
 30
0.0
 10
94.386558
 20
202.728702
 30
0.0
 10
134.721933
 20
202.728702
 30
0.0
 10
134.671929
 20
204.266299
 30
0.0
 10
134.712558
 20
205.996095
 30
0.0
 10
134.784437
 20
207.724331
 30
0.0
 10
134.784437
 20
207.724331
 30
0.0
 10
134.896945
 20
209.319745
 30
0.0
 10
135.040703
 20
210.912034
 30
0.0
 10
135.218839
 20
212.501196
 30
0.0
 10
135.218839
 20
212.501196
 30
0.0
 10
135.448542
 20
214.082547
 30
0.0
 10
135.636054
 20
215.021669
 30
0.0
 10
135.851691
 20
215.956104
 30
0.0
 10
135.851691
 20
215.956104
 30
0.0
 10
136.311098
 20
217.820284
 30
0.0
  0
ENDSEC
  0
SECTION
  2
OBJECTS
  0
DICTIONARY
  5
C
330
0
100
AcDbDictionary
  3
ACAD_GROUP
350
D
  3
ACAD_MLINESTYLE
350
17
  0
DICTIONARY
  5
D
330
C
100
AcDbDictionary
  0
DICTIONARY
  5
1A
330
C
100
AcDbDictionary
  0
DICTIONARY
  5
17
330
C
100
AcDbDictionary
  3
STANDARD
350
18
  0
DICTIONARY
  5
19
330
C
100
AcDbDictionary
  0
ENDSEC
  0
EOF
